<svg width="662" height="452" viewBox="0 0 662 452" fill="none" xmlns="http://www.w3.org/2000/svg">
<path d="M361.178 122.14C362.99 120.858 371.609 121.974 371.609 121.974C371.609 121.974 391.055 108.224 393.27 106.416C395.826 104.342 400.507 82.8344 404.445 70.8432C406.528 64.5175 415.139 63.4606 418.518 69.1822C419.127 70.2032 419.504 71.381 419.528 72.7323C419.611 80.1857 404.485 108.822 402.494 111.356C398.891 115.964 374.578 125.577 374.578 125.577C374.578 125.577 369.886 128.157 366.636 128.812C363.359 129.502 359.366 123.422 361.178 122.14Z" fill="#F2AC8C"/>
<path d="M397.66 75.4354C397.55 72.962 398.904 70.6077 399.668 69.4976C395.425 76.1437 405.013 86.862 405.013 86.862C402.768 80.6738 423.285 68.1039 423.148 60.2482C422.984 52.4275 415.772 52.8878 413.629 50.7491C411.485 48.6105 413.549 35.5472 406.846 31.3408C400.144 27.1344 395.011 31.1279 395.011 31.1279C396.182 29.5225 398.716 28.4593 398.716 28.4593C392.034 29.3526 391.506 34.1161 391.637 36.2719C386.268 38.5016 385.841 49.6768 385.841 49.6768L404.276 54.7398C404.629 55.2595 404.833 55.6102 404.916 55.7566C405.386 56.922 403.288 64.0688 399.855 66.4175C395.983 69.0139 397.66 75.4354 397.66 75.4354ZM400.013 69.0106C400.093 68.9054 400.147 68.8352 400.147 68.8352C400.093 68.9054 400.035 68.9446 400.013 69.0106Z" fill="#4A2C76"/>
<path d="M438.74 202.542L442.984 201.314C442.984 201.314 455.975 187.797 455.257 165.94C455.18 163.714 454.944 161.478 454.456 159.244C454.392 159.001 454.386 158.718 454.512 158.481C454.88 157.707 455.816 155.755 457.023 153.011C458.235 150.298 460.262 145.208 462.458 139.497C466.438 129.233 470.997 116.938 472.617 113.036C477.743 100.508 473.483 93.1408 473.483 93.1408C473.483 93.1408 454.613 93.7739 448.914 90.0004L447.469 93.0912C447.469 93.0912 445.835 111.483 446.033 111.551C445.93 112.195 445.797 112.843 445.663 113.49C443.792 123.756 441.785 136.529 441.11 146.792C440.749 152.573 440.789 157.575 441.576 160.872C441.852 162 441.934 163.785 441.914 165.992C441.832 179.042 438.74 202.542 438.74 202.542Z" fill="#56309E"/>
<path d="M430.378 209.235L448.443 206.82C448.443 206.82 448.508 204.008 447.272 202.063C446.106 200.172 444.799 200.283 446.422 196.885C445.435 198.214 441.82 199.201 439.145 199.213C438.906 199.78 437.607 203.481 436.658 204.395C435.59 205.357 430.29 205.751 430.378 209.235Z" fill="#4F326E"/>
<path d="M445.66 113.459C448.4 121.943 454.048 135.929 462.49 139.493C466.471 129.228 471.029 116.934 472.649 113.032C477.775 100.504 473.515 93.1366 473.515 93.1366C473.515 93.1366 454.646 93.7697 448.946 89.9962L447.502 93.087C447.502 93.087 445.867 111.479 446.065 111.547C445.896 112.168 445.763 112.816 445.66 113.459Z" fill="#4F326E"/>
<path d="M456.308 96.7911L455.795 93.4266C462.619 93.3646 477.919 82.2797 477.919 82.2797C477.919 82.2797 485.597 86.0092 488.343 99.2484C489.68 105.715 496.339 132.92 497.78 141.105C498.305 144.09 498.617 146.19 498.764 147.052C498.797 147.3 498.954 147.531 499.133 147.696C500.761 149.274 502.22 151 503.532 152.809C516.355 170.528 514.443 197.209 514.443 197.209L511.979 196.908C511.979 196.908 499.687 171.15 492.471 160.272C491.247 158.42 490.179 157.019 489.316 156.221C486.834 153.907 483.989 149.815 481.085 144.818C475.569 135.35 469.719 122.683 465.446 112.861C465.238 112.952 456.308 96.7911 456.308 96.7911Z" fill="#56309E"/>
<path d="M413.914 79.4986C424.587 75.489 415.47 60.9912 414.889 61.3524C413.332 61.2456 409.631 59.0002 405.936 54.2029L405.579 54.597L399.626 61.4087C399.626 61.4087 401.478 63.4917 403.111 65.5728C404.367 67.2001 405.465 68.8171 405.424 69.4525C404.925 69.9601 411.067 80.5722 413.914 79.4986Z" fill="#FFC2A2"/>
<path d="M405.159 68.6374C405.159 68.6374 403.151 72.4648 402.054 75.7927C400.956 79.1206 398.213 89.6921 398.213 89.6921C398.213 89.6921 403.485 95.9165 410.973 95.6398C410.973 95.6398 415.084 89.4208 413.754 83.7088C412.424 77.9969 405.159 68.6374 405.159 68.6374Z" fill="#C8D1CE"/>
<path d="M399.596 61.4128C399.596 61.4128 401.449 63.4958 403.081 65.5768C406.94 62.4151 406.245 57.2167 405.545 54.5701L399.596 61.4128Z" fill="#F2AC8C"/>
<path d="M399.807 64.4084C399.807 64.4084 409.257 57.381 404.763 51.5566C400.3 45.7281 398.494 40.9302 392.29 45.1612C386.091 49.4231 386.632 52.5319 387.631 54.8235C388.665 57.142 397.262 66.1029 399.807 64.4084Z" fill="#FFC2A2"/>
<path d="M385.441 51.399C385.533 48.5521 386.919 48.0834 387.933 48.1367C390.876 41.4126 397.354 43.0032 397.354 43.0032C401.183 46.6802 406.042 46.7551 406.042 46.7551C406.042 46.7551 405.16 49.1092 400.455 51.1241C399.024 51.7249 397.289 51.7048 395.61 51.3938C399.235 52.8306 402.887 53.0667 402.887 53.0667C396.532 54.5148 389.652 49.4503 388.919 48.9183C388.73 49.857 388.492 51.8416 388.987 53.1927C389.673 55.0223 391.802 58.2337 390.839 58.8034C390.812 58.8385 385.288 55.6715 385.441 51.399Z" fill="#4A2C76"/>
<path d="M500.163 199.905L518.227 197.49C518.227 197.49 518.292 194.678 517.087 192.729C515.921 190.838 514.378 190.131 514.392 187.641C513.405 188.97 511.696 190.552 509.052 190.559C508.813 191.127 507.418 194.117 506.469 195.031C505.375 196.027 500.075 196.421 500.163 199.905Z" fill="#4F326E"/>
<path d="M414.254 91.9255C416.681 92.4199 419.991 92.4498 423.378 92.3435C428.181 92.2368 433.145 91.9196 435.849 92.5975C436.368 92.717 437.905 93.1415 439.53 93.995C439.53 93.995 439.565 94.0219 439.631 94.0445C440.172 94.3187 440.694 94.6899 441.22 95.092C441.995 95.7127 442.691 96.4387 443.217 97.3132C444.455 99.5099 444.083 106.142 443.75 109.777C443.631 111.242 444.475 112.61 445.865 113.117C447.783 113.805 449.693 114.432 451.533 115.005C451.63 115.023 451.731 115.073 451.828 115.091C451.747 114.724 451.702 114.384 451.656 114.043C451.33 111.599 451.37 109.546 451.37 109.546C452.13 111.933 454.094 114.379 455.883 116.218C481.402 122.696 497.76 116.226 496.832 111.405C493.623 94.7002 480.39 81.9181 480.39 81.9181C455.943 60.147 412.329 59.3952 412.329 59.3952C412.329 59.3952 410.255 59.4206 408.177 62.722C405.191 67.4677 405.154 68.6065 405.154 68.6065C405.154 68.6065 407.099 90.4569 414.254 91.9255Z" fill="#EAEAEA"/>
<path d="M423.413 92.3703C428.216 92.2636 433.18 91.9464 435.884 92.6243C434.839 76.7955 425.869 65.9945 425.869 65.9945C425.869 65.9945 423.64 86.2927 423.413 92.3703Z" fill="#C8D1CE"/>
<path d="M374.699 128.837C375.14 127.896 374.731 126.722 373.791 126.281L361.45 120.403C360.509 119.962 359.336 120.371 358.895 121.312C358.454 122.253 358.863 123.426 359.803 123.867L372.144 129.745C373.116 130.182 374.258 129.777 374.699 128.837Z" fill="#56309E"/>
<path d="M360.974 122.734L361.316 121.996L350.502 117.174C349.192 116.561 347.66 116.64 346.435 117.371L342.241 119.916L342.542 120.285L346.517 117.517C347.711 116.791 349.151 116.724 350.425 117.31L360.974 122.734Z" fill="#56309E"/>
<path d="M389.9 137.733C393.71 137.035 398.294 139.76 398.294 139.76C398.294 139.76 408.701 115.156 410.488 112.744C413.32 108.964 411.006 67.6351 414.698 64.4012C414.698 64.4012 426.765 63.9849 428.727 71.5966C430.72 79.2042 422.558 112.359 421.176 115.441C418.654 121.07 402.04 141.401 402.04 141.401C402.04 141.401 400.596 145.437 398.129 145.357C395.663 145.278 384.039 139.587 384.039 139.587C384.039 139.587 386.089 138.431 389.9 137.733Z" fill="#FFC2A2"/>
<path d="M443.754 109.808C443.635 111.273 444.479 112.641 445.869 113.148C447.787 113.836 449.697 114.463 451.537 115.036C451.588 114.714 451.639 114.392 451.66 114.074C451.773 112.799 451.702 111.328 451.374 109.577C449.974 102.173 444.149 97.22 441.228 95.1538C442.003 95.7745 442.698 96.5005 443.225 97.375C444.463 99.5717 444.09 106.204 443.754 109.808Z" fill="#C8D1CE"/>
<path d="M412.333 59.4261C412.333 59.4261 410.163 57.3225 408.903 57.5539C408.903 57.5539 404.75 65.3533 405.158 68.6374C405.158 68.6374 410.37 59.3421 412.333 59.4261Z" fill="#C8D1CE"/>
<path d="M410.486 79.9881C410.486 79.9881 406.584 60.2261 422.506 62.9794C438.402 65.7677 425.354 102.41 425.354 102.41C425.354 102.41 416.356 103.172 412.124 95.7693L410.486 79.9881Z" fill="#EAEAEA"/>
<path d="M301.347 322.487C305.639 337.63 311.396 351.254 318.859 362.099C359.995 421.796 371.604 360.968 382.509 332.55C392.785 305.79 405.758 294.26 429.118 306.255C446.328 315.104 461.491 390.368 487.301 390.54C508.194 390.676 575.118 309.791 537.014 161.845C536.284 158.981 535.209 155.881 533.657 152.75C526.348 137.884 508.516 122.725 466.466 135.087C427.988 146.373 426.273 154.036 400.382 146.19C374.495 138.375 336.283 108.555 309.279 137.362C292.643 155.177 282.095 254.32 301.347 322.487Z" fill="#BE621E"/>
<path d="M301.346 322.487C304.916 331.994 309.186 340.62 314.266 348.004C355.402 407.702 367.011 346.874 377.916 318.455C388.192 291.695 401.165 280.165 424.525 292.16C441.735 301.009 456.898 376.274 482.707 376.445C503.097 376.585 567.134 299.772 535.141 158.914C534.678 156.866 534.184 154.821 533.691 152.777C526.382 137.912 508.55 122.752 466.5 135.114C428.022 146.4 426.308 154.063 400.416 146.217C374.525 138.371 336.318 108.582 309.313 137.389C297.99 149.486 289.501 199.03 291.247 250.955C292.043 275.51 295.173 300.572 301.346 322.487Z" fill="url(#paint0_linear)"/>
<path d="M313.556 158.523C307.707 173.415 313.221 201.938 323.071 202.133C332.924 202.359 337.913 176.085 347.358 164.775C361.014 148.461 348.632 139.691 338.779 139.465C328.902 139.306 318.966 144.823 313.556 158.523Z" fill="#EAEAEA"/>
<path d="M299.899 317.074C300.364 318.902 300.824 320.699 301.347 322.487C304.916 331.994 309.187 340.62 314.267 348.004C345.277 392.961 359.496 369.548 369.279 343.106C372.499 334.455 375.232 325.459 377.916 318.455C383.709 303.381 390.338 293.14 399.196 289.216C403.893 287.139 409.205 286.838 415.347 288.505C418.222 289.286 421.283 290.515 424.53 292.191C435.483 297.813 445.599 330.382 458.176 353.331C465.346 366.451 473.325 376.44 482.712 376.476C499.51 376.593 545.994 324.393 543.857 227.166C543.624 216.237 542.782 204.759 541.204 192.718C539.998 183.462 538.367 173.853 536.222 163.935C535.875 162.28 535.493 160.599 535.115 158.949C532.382 163.472 529.253 168.331 525.704 173.341C502.927 205.741 462.93 245.703 399.321 257.419C389.179 259.279 378.439 260.432 367.08 260.722C344.362 261.303 319.133 258.408 291.213 250.928C291.497 259.646 292.068 268.389 292.978 277.086C294.448 290.905 296.697 304.431 299.899 317.074Z" fill="url(#paint1_linear)"/>
<path d="M399.222 289.181C403.919 287.104 409.231 286.804 415.374 288.471C418.249 289.252 421.31 290.48 424.556 292.156C435.51 297.779 445.626 330.348 458.203 353.296C465.372 366.417 473.351 376.405 482.739 376.441C499.536 376.558 546.02 324.359 543.884 227.132C535.998 249.162 519.412 329.995 472.516 320.705C441.402 314.534 439.984 281.086 399.222 289.181Z" fill="#FF7042"/>
<path d="M299.898 317.074C300.363 318.902 300.824 320.698 301.346 322.487C304.916 331.994 309.39 340.498 314.266 348.004C356.842 413.525 370.335 339.468 380.118 313.026C379.848 313.598 362.37 354.549 336.416 344.822C314.769 336.692 297.987 311.723 292.982 277.117C294.448 290.905 296.697 304.431 299.898 317.074Z" fill="#FF7042"/>
<path d="M525.688 195.832C525.494 194.378 524.161 193.359 522.707 193.553C521.254 193.748 520.235 195.081 520.43 196.535C520.624 197.989 521.957 199.008 523.411 198.814C524.865 198.619 525.883 197.286 525.688 195.832Z" fill="#FFC22A"/>
<path d="M516.9 183.558C516.805 182.846 516.139 182.337 515.427 182.432C514.716 182.527 514.207 183.193 514.302 183.905C514.397 184.617 515.063 185.126 515.775 185.031C516.486 184.936 516.995 184.269 516.9 183.558Z" fill="#FFC22A"/>
<path d="M509.027 200.737C508.932 200.025 508.266 199.516 507.554 199.611C506.843 199.706 506.333 200.373 506.429 201.084C506.524 201.796 507.19 202.305 507.902 202.21C508.613 202.115 509.122 201.449 509.027 200.737Z" fill="#FFC22A"/>
<path d="M96.6774 395.675C96.6774 395.675 102.581 385.663 94.6285 381.36C94.6285 381.36 88.9791 379.154 84.8481 380.168C84.8481 380.168 92.4946 389.027 90.7626 390.347C89.0305 391.666 82.9571 379.867 82.9571 379.867C82.9571 379.867 71.1391 380.778 67.7094 383.253C67.7094 383.253 79.0731 389.65 77.0645 390.48C75.0613 391.34 62.9257 385.238 62.9257 385.238C62.9257 385.238 52.4326 388.99 54.1821 395.497C55.9316 402.004 60.0082 403.378 61.6045 402.906C63.2009 402.434 72.1448 397.085 72.5984 398.4C73.0521 399.714 68.0439 405.099 64.0557 406.024C64.0557 406.024 73.1631 413.104 77.8059 409.781C82.4488 406.458 82.2014 402.539 85.1122 400.536C88.023 398.533 90.7276 398.056 89.6662 399.765C88.6356 401.468 83.1378 403.896 81.919 407.407C80.6695 410.925 79.42 413.364 84.5346 411.638C89.6491 409.912 97.4848 404.568 97.0784 400.106C96.6774 395.675 96.6774 395.675 96.6774 395.675Z" fill="#4A2C6A"/>
<path d="M59.5257 394.713C59.5257 394.713 88.7067 388.395 96.6769 395.675C96.6769 395.675 98.8803 399.725 103.964 402.854L104.971 404.61C104.971 404.61 98.9201 400.13 97.0526 400.142C97.0833 400.137 98.0731 389.216 59.5257 394.713Z" fill="#4A2C6A"/>
<path d="M103.964 402.854C103.964 402.854 111.088 406.416 112.988 414.672L111.867 414.965C111.867 414.965 108.321 406.714 104.098 403.972C99.8802 401.26 103.964 402.854 103.964 402.854Z" fill="#4A2C6A"/>
<path d="M120.81 380.135C120.81 380.135 107.776 375.586 111.72 365.603C111.72 365.603 115.169 359.288 119.653 357.039C119.653 357.039 119.502 370.919 122.076 370.782C124.651 370.645 121.15 355.286 121.15 355.286C121.15 355.286 132.571 347.09 137.57 346.684C137.57 346.684 132.14 361.178 134.606 360.426C137.072 359.674 143.427 344.859 143.427 344.859C143.427 344.859 155.826 340.232 159.193 347.468C162.592 354.699 159.939 359.066 158.12 359.894C156.296 360.691 144.098 362.683 144.718 364.222C145.302 365.736 153.989 366.835 158.313 364.583C158.313 364.583 155.443 377.959 148.696 378.515C141.944 379.04 139.164 375.314 134.986 375.702C130.813 376.121 128.027 377.753 130.251 378.502C132.505 379.246 139.321 377.283 143.139 379.526C146.957 381.77 149.934 383.02 144.015 385.395C138.06 387.745 126.855 388.896 123.807 384.552C120.81 380.135 120.81 380.135 120.81 380.135Z" fill="#7C409C"/>
<path d="M153.769 350.865C153.769 350.865 122.474 367.479 120.813 380.166C120.813 380.166 121.916 385.519 119.681 392.253L120.098 394.621C120.098 394.621 122.151 385.953 123.861 384.511C123.861 384.511 114.58 375.369 153.769 350.865Z" fill="#4A2C6A"/>
<path d="M119.682 392.253C119.682 392.253 115.921 400.936 120.51 409.891L121.767 409.289C121.767 409.289 118.638 399.094 120.416 393.36C122.168 387.662 119.682 392.253 119.682 392.253Z" fill="#4A2C6A"/>
<path d="M100.324 374.301C100.324 374.301 114.392 362.786 105.015 352.203C105.015 352.203 97.8911 345.946 91.3214 345.171C91.3214 345.171 97.7632 362.294 94.5198 363.31C91.2764 364.325 88.6857 343.702 88.6857 343.702C88.6857 343.702 70.8137 338.674 64.4734 340.458C64.4734 340.458 77.7291 355.968 74.3339 356.123C70.9388 356.277 56.3905 340.805 56.3905 340.805C56.3905 340.805 38.9646 340.645 38.0273 351.144C37.0846 361.613 42.3324 365.855 44.961 366.025C47.5589 366.201 63.5694 363.188 63.5331 365.318C63.4715 367.485 53.2386 372.713 46.8533 371.905C46.8533 371.905 56.4283 387.208 65.0356 384.802C73.6484 382.428 75.3989 376.54 80.7322 375.156C86.0654 373.772 90.2903 374.548 87.8405 376.47C85.3907 378.392 76.064 379.054 72.325 383.549C68.6167 388.038 65.4582 390.973 73.8954 391.197C82.3019 391.426 96.7162 387.807 98.5354 381.051C100.324 374.301 100.324 374.301 100.324 374.301Z" fill="#7C409C"/>
<path d="M46.2891 352.889C46.2891 352.889 92.5532 359.345 100.324 374.3C100.324 374.3 101.356 381.409 107.187 388.782L107.74 391.917C107.74 391.917 101.285 382.087 98.5101 381.087C98.5101 381.087 105.886 365.585 46.2891 352.889Z" fill="#4A2C6A"/>
<path d="M107.187 388.781C107.187 388.781 115.754 397.827 114.082 410.992L112.28 410.834C112.28 410.834 111.547 396.793 106.793 390.499C102.044 384.236 107.187 388.781 107.187 388.781Z" fill="#4A2C6A"/>
<path d="M76.3105 414.958L75.6036 415.083L75.4355 414.13L138.348 403.037L138.516 403.99L137.502 404.169C139.328 416.685 133.387 428.638 123.195 434.999L139.177 432.181C141.267 431.813 143.255 433.206 143.624 435.296L81.5416 446.243C81.173 444.153 82.5652 442.164 84.6551 441.795L100.268 439.042C88.546 436.544 78.8748 427.345 76.3105 414.958Z" fill="#FF9F23"/>
<path d="M112.039 436.966L119.661 435.622C129.821 429.266 135.763 417.313 133.942 404.828L126.35 406.166C128.146 418.688 122.23 430.605 112.039 436.966Z" fill="#FFDD71"/>
<path d="M220.511 409.767C220.511 409.767 217.388 413.492 218.405 415.687C219.392 417.885 222.816 419.002 223.626 421.76C224.435 424.518 226.37 425.803 227.917 425.596C229.463 425.389 235.34 424.604 235.34 424.604C235.34 424.604 236.22 422.47 233.389 422.25C230.526 422.035 229.063 418.86 228.808 415.776C228.584 412.688 227.605 408.661 227.605 408.661L221.545 408.086L220.511 409.767Z" fill="#4F326E"/>
<path d="M220.238 407.726C221.144 409.557 228.666 411.418 228.666 411.418C228.666 411.418 231.744 404.77 241.269 381.103C242.099 379.07 242.935 376.848 243.782 374.467C252.887 349.313 263.469 308.118 263.469 308.118L232.087 303.715C232.087 303.715 232.286 316.035 232.831 322.23C233.177 325.995 232.114 334.295 230.327 341.652C229.19 346.339 227.783 350.653 226.26 353.156C219.325 364.635 220.238 407.726 220.238 407.726Z" fill="#6139BC"/>
<path d="M230.362 341.678C233.54 351.08 239.195 366.765 243.782 374.467C252.888 349.313 263.469 308.118 263.469 308.118L232.088 303.715C232.088 303.715 232.287 316.035 232.831 322.23C233.212 326.022 232.149 334.321 230.362 341.678Z" fill="#4A2C76"/>
<path d="M273.262 292.825L275.628 292.382C275.628 292.382 277.814 287.303 282.946 290.365C282.946 290.365 284.998 291.822 283.875 293.075C282.751 294.328 283.005 293.632 281.484 295.442C279.931 297.256 277.754 297.925 276.178 296.97L274.264 296.785L273.262 292.825Z" fill="#FFC2A2"/>
<path d="M241.513 244.218C241.513 244.218 225.043 264.688 236.978 292.258C240.71 300.861 276.591 297.702 276.591 297.702C276.591 297.702 278.236 295.403 274.865 292.326C274.865 292.326 251.993 285.4 249.306 284.373C246.917 283.464 251.117 260.95 249.056 254.013C246.995 247.076 241.513 244.218 241.513 244.218Z" fill="#C8D1CE"/>
<path d="M265.154 412.334C265.154 412.334 265.489 419.785 267.17 420.348L287.087 417.654C287.087 417.654 286.781 415.364 283.524 415.264C280.268 415.164 274.39 414.06 272.873 410.011C271.351 405.931 265.154 412.334 265.154 412.334Z" fill="#4F326E"/>
<path d="M268.06 305.96C268.06 305.96 268.738 319.035 269.573 334.703C270.724 356.03 272.145 382.202 272.617 387.147C273.415 395.702 273.847 409.534 273.847 409.534C273.847 409.534 271.003 413.221 264.232 412.741C264.232 412.741 255.784 394.059 251.327 373.678C251.251 373.342 251.174 373.006 251.098 372.67C246.746 351.897 238.403 308.099 238.403 308.099L268.06 305.96Z" fill="#6139BC"/>
<path d="M231.063 239.064C231.063 239.064 243.922 245.282 251.005 241.973C251.005 241.973 248.545 239.12 246.235 236.91C246.284 235.391 246.326 234.063 246.274 232.967C246.249 230.419 246.054 228.965 246.054 228.965L240.584 225.728L235.385 222.643C237.225 233.106 231.063 239.064 231.063 239.064Z" fill="#FFC2A2"/>
<path d="M227.064 336.324C243.454 344.463 273.441 337.493 273.664 337.275C273.294 330.741 272.181 320.055 271.015 310.164C269.563 297.886 268.09 286.87 268.057 286.622C268.057 286.622 268.007 286.251 267.894 285.636C267.567 283.664 266.831 279.101 266.252 275.714C266.134 275.068 266.025 274.484 265.955 273.958C265.95 273.927 265.946 273.896 265.942 273.865C265.647 272.362 264.173 268.401 262.205 263.814C259.357 257.108 255.478 249.059 252.85 245.411C251.498 243.544 247.101 238.211 247.101 238.211C244.6 239.049 242.676 238.551 239.776 237.584C236.616 236.558 233.254 235.432 232.782 235.905C229.292 239.238 227.515 245.963 227.206 254.257C227.066 259.094 226.255 335.928 227.064 336.324Z" fill="#EAEAEA"/>
<path d="M235.897 226.701C235.897 226.701 239.935 232.177 246.31 232.994C246.284 230.446 246.09 228.992 246.09 228.992L240.619 225.755L235.897 226.701Z" fill="#F2AC8C"/>
<path d="M248.327 228.535C248.327 228.535 236.377 232.18 234.197 224.818C232.047 217.452 229.055 212.97 236.604 210.323C244.153 207.676 246.457 210.077 247.801 212.354C249.113 214.635 251.387 227.402 248.327 228.535Z" fill="#FFC2A2"/>
<path d="M227.788 210.557C227.648 210.45 227.388 210.39 226.827 210.433C226.827 210.433 227.254 210.093 227.837 209.983C227.853 209.162 228.069 207.716 229.416 207.19C229.416 207.19 228.727 207.691 228.746 208.539C230.109 206.719 233.319 205.061 242.822 204.547C255.296 203.887 252.299 212.319 250.819 213.494C249.334 214.637 244.97 212.606 242.033 213.251C239.097 213.895 239.084 218.275 238.173 218.995C237.231 219.72 237.492 218.614 236.049 218.177C234.605 217.74 234.783 220.015 235.353 221.451C235.953 222.883 234.323 225.053 234.323 225.053C234.323 225.053 234.323 225.053 232.163 223.263C230.003 221.473 227.051 213.049 227.669 211.077C227.679 210.918 227.72 210.755 227.788 210.557Z" fill="#533771"/>
<path d="M271.016 310.164C269.563 297.886 268.091 286.87 268.058 286.622C268.058 286.622 268.008 286.251 267.894 285.636C254.156 272.607 236.945 259.506 236.945 259.506C236.945 259.506 239.357 302.743 271.016 310.164Z" fill="#C8D1CE"/>
<path d="M180.751 353.287L398.859 223.811C400.492 222.837 401.054 220.683 400.08 219.05L399.063 217.328C398.089 215.694 395.936 215.131 394.303 216.106L176.164 345.586C174.531 346.56 173.969 348.714 174.943 350.347L175.96 352.07C176.969 353.73 179.087 354.266 180.751 353.287Z" fill="#744DA5"/>
<path d="M346.817 224.312L355.592 239.076L392.754 217.006L383.979 202.242C383.127 200.812 381.303 200.363 379.87 201.185L347.869 220.172C346.444 221.055 346 222.91 346.817 224.312Z" fill="#EAEAEA"/>
<path d="M334.137 216.37C336.663 220.19 341.018 223.797 347.873 220.203C360.001 213.888 380.305 199.016 387.156 198.919C387.156 198.919 387.151 198.888 387.116 198.862C387.038 198.746 386.869 198.422 386.555 197.96C384.285 194.642 375.178 184.458 356.127 199.509C341.316 211.19 331.375 210.314 331.375 210.314C331.375 210.314 331.375 210.314 331.379 210.345C331.379 210.345 331.383 210.376 331.388 210.407C331.555 210.951 332.395 213.705 334.137 216.37Z" fill="#FFDD71"/>
<path d="M332.17 212.255C331.716 211.213 331.435 210.527 331.384 210.376C331.384 210.376 331.388 210.407 331.392 210.438C331.487 210.677 331.706 211.372 332.17 212.255Z" fill="#D5DCD9"/>
<path d="M387.155 198.92C387.155 198.92 379.065 189.041 367.86 197.31C356.655 205.58 338.092 215.338 331.379 210.345C331.379 210.345 337.795 221.362 349.49 215.578C361.154 209.798 378.106 193.169 387.155 198.92Z" fill="#C4C4C4"/>
<path d="M387.155 198.92C387.155 198.92 379.065 189.041 367.86 197.31C356.655 205.58 338.092 215.338 331.379 210.345C331.379 210.345 337.795 221.362 349.49 215.578C361.154 209.798 378.106 193.169 387.155 198.92Z" fill="url(#paint2_linear)"/>
<path d="M334.137 216.37C336.663 220.19 341.018 223.797 347.873 220.203C360.001 213.889 380.305 199.017 387.156 198.92C387.156 198.92 380.037 195.84 366.101 206.994C340.388 227.566 334.568 217.005 332.174 212.286C332.628 213.328 333.295 214.782 334.137 216.37Z" fill="#C4C4C4"/>
<path d="M334.137 216.37C336.663 220.19 341.018 223.797 347.873 220.203C360.001 213.889 380.305 199.017 387.156 198.92C387.156 198.92 380.037 195.84 366.101 206.994C340.388 227.566 334.568 217.005 332.174 212.286C332.628 213.328 333.295 214.782 334.137 216.37Z" fill="url(#paint3_linear)"/>
<path d="M331.379 210.344C343.043 213.509 358.374 199.365 370.1 194.049C381.352 188.954 386.704 198.129 387.12 198.892C387.042 198.776 386.873 198.453 386.559 197.991C384.289 194.672 375.182 184.488 356.131 199.539C341.289 211.224 331.379 210.344 331.379 210.344Z" fill="#C4C4C4"/>
<path d="M331.379 210.344C343.043 213.509 358.374 199.365 370.1 194.049C381.352 188.954 386.704 198.129 387.12 198.892C387.042 198.776 386.873 198.453 386.559 197.991C384.289 194.672 375.182 184.488 356.131 199.539C341.289 211.224 331.379 210.344 331.379 210.344Z" fill="url(#paint4_linear)"/>
<path d="M346.817 224.312L350.678 230.82C361.068 215.509 379.081 206.109 384.67 203.409L383.979 202.242C383.127 200.812 381.303 200.363 379.871 201.185L347.869 220.172C346.444 221.055 346 222.91 346.817 224.312Z" fill="#C8D1CE"/>
<path d="M247.437 255.552C247.624 255.779 254.317 277.341 263.939 276.306C264.871 276.213 265.663 276.013 266.284 275.709C266.166 275.064 266.056 274.48 265.986 273.954C265.982 273.923 265.978 273.892 265.974 273.861C265.678 272.357 264.204 268.397 262.237 263.809C258.174 263.565 253.116 260.588 247.437 255.552Z" fill="#C8D1CE"/>
<path d="M232.756 235.94C232.756 235.94 233.458 232.476 234.336 231.981C234.336 231.981 247.601 233.231 253.804 246.89C253.808 246.921 247.626 238.834 232.756 235.94Z" fill="#C8D1CE"/>
<path d="M296.085 279.599C296.085 279.599 296.186 279.177 296.751 278.692C297.149 278.134 297.561 277.449 297.635 277.062C297.783 276.286 298.672 276.104 298.957 276.822C299.052 277.061 299.054 277.313 299.025 277.569C300.512 277.149 302.712 276.887 306.051 277.133C306.051 277.133 308.615 277.231 306.665 279.13C305.355 280.407 304.394 280.284 302.52 282.046C300.647 283.809 298.102 284.558 296.392 283.779L294.243 283.72L293.357 280.153L296.085 279.599Z" fill="#FFC2A2"/>
<path d="M231.414 247.332C231.414 247.332 230.134 270.495 258.301 284.525C265.889 288.298 296.958 284.711 296.958 284.711C296.958 284.711 297.373 280.75 295.086 279.418C295.086 279.418 267.354 273.582 264.817 274.394C262.582 275.102 247.428 254.073 242.069 250.254C236.705 246.404 231.414 247.332 231.414 247.332Z" fill="#EAEAEA"/>
<path d="M566.043 232.263C566.043 232.263 565.808 231.917 565.135 231.597C564.609 231.195 563.175 229.655 563.002 229.3C562.624 228.594 561.969 229.343 561.913 230.107C561.915 230.358 562.506 231.004 562.631 231.239C561.095 231.287 558.884 231.709 555.81 232.97C555.81 232.97 553.375 233.831 555.84 235.076C557.461 235.899 558.348 235.465 560.668 236.573C562.989 237.68 565.628 237.642 567.03 236.352L569.045 235.642L568.808 231.988L566.043 232.263Z" fill="#FFC2A2"/>
<path d="M617.014 185.134C617.014 185.134 627.586 203.216 605.048 225.159C598.975 231.073 568.294 237.096 568.294 237.096C568.294 237.096 566.703 233.435 568.455 231.469C568.455 231.469 589.237 220.879 593.262 219.428C595.485 218.626 597.034 199.836 600.961 194.587C604.852 189.311 617.014 185.134 617.014 185.134Z" fill="#C8D1CE"/>
<path d="M658.596 358.379C658.596 358.379 659.247 367.489 657.505 367.879C657.261 367.943 648.631 369.097 648.631 369.097L637.65 370.565C637.65 370.565 637.317 367.838 640.459 366.851C643.602 365.864 648.713 362.881 650.091 358.35C651.529 353.56 658.596 358.379 658.596 358.379Z" fill="#4A2C6A"/>
<path d="M659.326 359.131C659.326 359.131 656.135 360.692 653.505 361.043C650.598 361.432 647.83 360.983 647.83 360.983C647.83 360.983 646.396 354.97 641.101 341.977C638.333 335.166 634.523 326.447 629.305 315.68C614.904 285.92 609.374 268.108 608.864 266.413C608.852 266.32 608.817 266.293 608.817 266.293L608.848 266.289L638.461 248.282C638.461 248.282 640.302 291.722 647.483 307.517C648.469 309.716 649.448 312.326 650.332 315.168C655.847 332.636 659.326 359.131 659.326 359.131Z" fill="#6139BC"/>
<path d="M650.327 315.138L641.101 341.978C638.333 335.167 634.522 326.448 629.304 315.68C614.904 285.92 609.374 268.109 608.864 266.413C608.856 266.351 608.851 266.32 608.843 266.258L638.457 248.252C638.457 248.252 640.297 291.691 647.478 307.487C648.469 309.717 649.443 312.295 650.327 315.138Z" fill="#4A2C76"/>
<path d="M634.716 361.572C634.716 361.572 635.368 370.681 633.625 371.072C633.382 371.136 624.752 372.29 624.752 372.29L613.7 373.704C613.7 373.704 613.406 371.035 616.58 370.044C619.722 369.057 624.834 366.074 626.211 361.543C627.649 356.753 634.716 361.572 634.716 361.572Z" fill="#4A2C6A"/>
<path d="M601.505 254.231C601.505 254.231 604.822 282.103 614.18 315.592C623.573 349.108 623.869 363.809 623.869 363.809C623.869 363.809 627.324 364.449 628.666 364.364C632.106 364.188 635.426 362.642 635.426 362.642C635.426 362.642 637.757 327.558 633.493 310.742C629.23 293.926 635.088 250.843 635.088 250.843L601.505 254.231Z" fill="#6139BC"/>
<path d="M615.108 186.176L609.522 191.017L600.425 190.564C600.453 189.836 600.644 186.787 600.81 184.024C600.82 183.866 600.83 183.707 600.841 183.548C600.998 181.196 601.14 179.193 601.14 179.193L608.942 174.433L611.853 172.658C611.861 172.72 611.945 175.229 611.963 175.604C612.232 182.088 615.108 186.176 615.108 186.176Z" fill="#FFC2A2"/>
<path d="M599.841 255.682C601.926 270.332 607.508 304.547 608.314 305.163C616.939 311.506 649.31 297.635 650.016 289.257C650.722 280.879 629.304 185.915 615.738 183.824C612.908 183.383 599.06 190.022 599.06 190.022C599.06 190.022 597.597 196.265 597.094 204.048C596.914 206.939 597.797 227.199 598.532 240.707C598.729 244.303 598.927 247.426 599.061 249.613C599.115 250.487 599.405 252.653 599.841 255.682Z" fill="#EAEAEA"/>
<path d="M611.321 175.753C609.909 179.091 603.491 182.658 600.804 183.993C600.815 183.834 600.825 183.675 600.835 183.517C600.993 181.165 601.134 179.162 601.134 179.162L608.936 174.402C610.722 174.1 611.893 174.385 611.321 175.753Z" fill="#FFB792"/>
<path d="M597.909 179.058C597.909 179.058 611.8 181.453 613.157 172.767C614.515 164.082 617.208 158.556 608.389 156.649C599.574 154.772 597.336 157.812 596.163 160.582C595.026 163.38 594.333 178.213 597.909 179.058Z" fill="#FFC2A2"/>
<path d="M596.612 159.703C596.612 159.703 598.777 169.304 600.703 168.637C602.656 167.935 604.439 167.381 604.523 170.362C604.607 173.343 602.274 177.088 608.562 176.783C614.819 176.482 621.588 159.293 619.486 156.519C613.397 148.42 588.074 150.01 596.612 159.703Z" fill="#4A2C6A"/>
<path d="M602.091 185.838C602.268 185.751 611.424 180.054 612.619 180.273C613.813 180.491 615.703 183.797 615.703 183.797L599.026 189.996C599.026 189.996 600.019 187.06 602.091 185.838Z" fill="#C8D1CE"/>
<path d="M550.058 229.267L587.088 295.466C587.827 296.753 589.464 297.227 590.755 296.519L594.885 294.203C596.172 293.464 596.645 291.826 595.937 290.535L558.907 224.336C558.168 223.049 556.531 222.575 555.24 223.283L551.11 225.599C549.788 226.311 549.315 227.949 550.058 229.267Z" fill="#744DA5"/>
<path d="M550.058 229.267L554.155 236.593C559.78 234.392 566.679 238.194 566.679 238.194L558.903 224.305C558.164 223.018 556.527 222.544 555.236 223.252L551.106 225.568C549.789 226.311 549.315 227.949 550.058 229.267Z" fill="#4A2C76"/>
<path d="M570.832 266.426L587.088 295.466C587.827 296.753 589.465 297.227 590.756 296.519L594.885 294.203C596.172 293.464 596.646 291.826 595.938 290.535L579.682 261.495L570.832 266.426Z" fill="#56309E"/>
<path d="M496.116 212.731C507.784 233.596 534.16 241.062 555.017 229.391C561.844 225.581 567.229 220.168 570.988 213.902C578.712 201.027 579.495 184.512 571.637 170.476C559.968 149.611 533.596 142.176 512.739 153.846C512.477 154.007 512.184 154.173 511.923 154.333C491.686 166.173 484.577 192.131 496.116 212.731ZM515.672 159.061C520.329 156.454 525.295 154.971 530.3 154.491C532.416 154.302 534.49 154.277 536.59 154.437C548.64 155.314 560.06 162.071 566.393 173.413C571.815 183.114 572.444 194.179 569.051 203.893C566.161 212.185 560.34 219.514 552.081 224.146C540.747 230.512 527.49 230.269 516.735 224.714C510.479 221.488 505.047 216.419 501.363 209.824C491.306 191.83 497.715 169.115 515.672 159.061Z" fill="#744DA5"/>
<path d="M511.918 154.302C518.818 153.159 524.886 153.324 530.3 154.49C532.415 154.302 534.49 154.276 536.589 154.437C548.64 155.314 560.059 162.071 566.393 173.413C571.815 183.113 572.444 194.179 569.051 203.892C569.948 207.772 570.566 211.217 570.988 213.901C578.712 201.026 579.495 184.512 571.636 170.476C559.968 149.61 533.596 142.175 512.739 153.846C512.473 153.976 512.18 154.141 511.918 154.302Z" fill="#56309E"/>
<g opacity="0.5">
<path opacity="0.5" d="M501.36 209.793C505.048 216.418 510.476 221.456 516.732 224.683C527.487 230.237 540.708 230.454 552.077 224.115C570.034 214.06 576.443 191.345 566.39 173.382C560.056 162.04 548.637 155.283 536.586 154.406C529.56 153.896 522.291 155.341 515.703 159.056C497.716 169.114 491.307 191.83 501.36 209.793Z" fill="#FFA32C"/>
<path opacity="0.5" d="M501.359 209.793C505.047 216.418 510.475 221.456 516.731 224.683C523.758 225.192 531.023 223.717 537.614 220.032C555.571 209.978 561.98 187.263 551.927 169.3C548.239 162.675 542.811 157.636 536.555 154.41C529.528 153.9 522.259 155.345 515.672 159.06C497.715 169.114 491.307 191.83 501.359 209.793Z" fill="#FFDD71"/>
<path opacity="0.5" d="M523.871 162.688C506.207 172.577 499.816 194.723 509.547 212.162C511.033 214.798 512.799 217.176 514.78 219.274C511.137 216.517 508.021 212.996 505.632 208.78C496.483 192.397 502.309 171.681 518.686 162.531C524.572 159.224 531.037 157.887 537.323 158.275C532.737 158.826 528.147 160.29 523.871 162.688Z" fill="#EE8914"/>
</g>
<path d="M599.842 255.682C628.846 229.82 622.272 200.431 622.272 200.431C610.776 209.117 600.655 227.384 598.528 240.676C598.725 244.272 598.923 247.395 599.057 249.582C599.116 250.487 599.405 252.653 599.842 255.682Z" fill="#C8D1CE"/>
<path d="M570.762 249.9C570.762 249.9 570.469 249.593 569.729 249.472C569.127 249.206 567.423 248.237 567.161 247.925C566.274 246.941 565.859 247.847 566.433 248.841C566.555 249.045 567.05 249.452 567.203 249.652C565.712 250.04 563.664 250.975 560.964 252.911C560.964 252.911 558.788 254.304 561.457 254.955C563.245 255.378 563.983 254.775 566.481 255.323C568.979 255.871 571.567 255.21 572.618 253.652L574.416 252.499L573.348 248.988L570.762 249.9Z" fill="#FFC2A2"/>
<path d="M611.12 188.378C611.12 188.378 638.908 189.923 609.075 233.849C604.316 240.879 574.062 254.089 574.062 254.089C574.062 254.089 571.685 250.911 572.946 248.569C572.946 248.569 593.734 229.317 596.33 228.718C598.621 228.191 600.834 202.352 603.461 196.331C606.088 190.311 611.12 188.378 611.12 188.378Z" fill="#EAEAEA"/>
<path d="M369.522 191.608L366.514 193.837L370.056 192.544C370.454 192.459 370.881 192.591 371.174 192.899L374.788 198.494L372.141 192.36C372.057 191.962 372.193 191.566 372.535 191.299L376.262 188.565L372.091 190.099C371.613 190.289 371.089 190.138 370.752 189.742L368.159 186.121L369.771 190.409C369.984 190.822 369.856 191.28 369.522 191.608Z" fill="white"/>
<path d="M507.487 133.634L501.774 141.296L509.532 135.503C510.468 134.968 511.637 135.001 512.559 135.539L525.583 146.522L514.612 133.469C514.082 132.564 514.154 131.452 514.766 130.614L521.881 121.19L512.816 128.04C511.789 128.839 510.346 128.874 509.271 128.136L500.285 121.211L507.348 130.472C507.979 131.427 508.048 132.646 507.487 133.634Z" fill="#4A2C76"/>
<path d="M325.129 342.583L320.215 349.162L326.858 344.211C327.648 343.759 328.658 343.781 329.444 344.243L340.588 353.651L331.19 342.466C330.742 341.707 330.8 340.723 331.336 340.021L337.437 331.962L329.687 337.817C328.803 338.502 327.575 338.508 326.641 337.877L318.921 331.949L325.021 339.889C325.57 340.698 325.613 341.731 325.129 342.583Z" fill="#EAEAEA"/>
<defs>
<linearGradient id="paint0_linear" x1="291.439" y1="266.471" x2="546.528" y2="232.367" gradientUnits="userSpaceOnUse">
<stop stop-color="#FED747"/>
<stop offset="1" stop-color="#F94E43"/>
</linearGradient>
<linearGradient id="paint1_linear" x1="295.424" y1="296.26" x2="550.511" y2="262.156" gradientUnits="userSpaceOnUse">
<stop stop-color="#FED747"/>
<stop offset="1" stop-color="#F94E43"/>
</linearGradient>
<linearGradient id="paint2_linear" x1="331.692" y1="212.688" x2="365.684" y2="208.144" gradientUnits="userSpaceOnUse">
<stop stop-color="#9966FF"/>
<stop offset="1" stop-color="#7976FF"/>
</linearGradient>
<linearGradient id="paint3_linear" x1="332.84" y1="217.266" x2="366.514" y2="212.764" gradientUnits="userSpaceOnUse">
<stop stop-color="#9966FF"/>
<stop offset="1" stop-color="#7976FF"/>
</linearGradient>
<linearGradient id="paint4_linear" x1="330.909" y1="206.825" x2="364.882" y2="202.283" gradientUnits="userSpaceOnUse">
<stop stop-color="#9966FF"/>
<stop offset="1" stop-color="#7976FF"/>
</linearGradient>
</defs>
</svg>
