<svg width="96" height="96" viewBox="0 0 96 96" fill="none" xmlns="http://www.w3.org/2000/svg">
<path d="M38.625 40.5C38.625 45.6694 42.8306 49.875 48 49.875C51.1016 49.875 53.625 52.3984 53.625 55.5C53.625 58.6016 51.1016 61.125 48 61.125C44.8984 61.125 42.375 58.6016 42.375 55.5C42.375 54.4644 41.5356 53.625 40.5 53.625C39.4644 53.625 38.625 54.4644 38.625 55.5C38.625 60.0274 41.8509 63.8152 46.125 64.6864V68.625C46.125 69.6606 46.9646 70.5 48 70.5C49.0354 70.5 49.875 69.6606 49.875 68.625V64.6864C54.1491 63.8152 57.375 60.0276 57.375 55.5C57.375 50.3306 53.1694 46.125 48 46.125C44.8984 46.125 42.375 43.6016 42.375 40.5C42.375 37.3984 44.8984 34.875 48 34.875C51.1016 34.875 53.625 37.3984 53.625 40.5C53.625 41.5356 54.4646 42.375 55.5 42.375C56.5354 42.375 57.375 41.5356 57.375 40.5C57.375 35.9726 54.1491 32.1847 49.875 31.3136V27.375C49.875 26.3394 49.0354 25.5 48 25.5C46.9646 25.5 46.125 26.3394 46.125 27.375V31.3136C41.8509 32.1847 38.625 35.9726 38.625 40.5Z" fill="white"/>
<path d="M48 0C22.1479 0 0 22.1475 0 48C0 73.8521 22.1475 96 48 96C73.8473 96 96 73.857 96 48C96 22.1923 73.8964 0 48 0ZM48 92.25C24.4275 92.25 3.75 71.5725 3.75 48C3.75 24.4275 24.4275 3.75 48 3.75C71.5725 3.75 92.25 24.4275 92.25 48C92.25 71.5725 71.5725 92.25 48 92.25Z" fill="white"/>
<path d="M55.9014 12.1811C54.8944 11.9422 53.8832 12.5645 53.6439 13.5722C53.4047 14.5796 54.0276 15.5904 55.035 15.8297C69.8376 19.3444 81 33.1745 81 47.9994C81 65.5789 65.5794 80.9994 48 80.9994C30.4206 80.9994 15 65.5789 15 47.9994C15 33.1745 26.1624 19.3445 40.9648 15.8297C41.9724 15.5904 42.5951 14.5796 42.3559 13.5722C42.1166 12.5645 41.1062 11.9417 40.0984 12.1811C23.7956 16.0522 11.25 31.2917 11.25 47.9994C11.25 67.5369 28.3311 84.7494 48 84.7494C67.5375 84.7494 84.75 67.6684 84.75 47.9994C84.75 31.3061 72.2179 16.0554 55.9014 12.1811Z" fill="white"/>
<path d="M48 15.1875C49.0355 15.1875 49.875 14.348 49.875 13.3125C49.875 12.277 49.0355 11.4375 48 11.4375C46.9645 11.4375 46.125 12.277 46.125 13.3125C46.125 14.348 46.9645 15.1875 48 15.1875Z" fill="white"/>
</svg>
