<svg width="97" height="98" viewBox="0 0 97 98" fill="none" xmlns="http://www.w3.org/2000/svg">
<path d="M67.1101 77.6696H52.5471V64.7247C52.5471 60.2565 48.9248 56.6342 44.4566 56.6342H34.7479V47.7508L56.7219 32.0551C57.0778 31.8031 57.3171 31.418 57.3853 30.9871C57.4498 30.5577 57.339 30.1204 57.0778 29.7735L52.2235 23.3011C51.7005 22.6057 50.7211 22.4484 50.0067 22.9451L33.4211 34.4175C36.3539 28.8921 34.252 22.0351 28.7265 19.1025C23.2011 16.1697 16.3441 18.2716 13.4115 23.7971C11.0533 28.2398 11.9075 33.7054 15.5086 37.2169H13.7125C13.256 37.2179 12.8209 37.4118 12.5151 37.7508L2.0621 49.3689C-0.80782 52.5754 -0.665628 57.4671 2.38572 60.5015L10.9455 69.1098C11.2819 69.4466 11.7495 69.6183 12.2238 69.5791C12.7042 69.542 13.1431 69.2931 13.4212 68.8995L15.3306 66.1972V95.4688C15.3306 96.3624 16.0551 97.0869 16.9487 97.0869H26.6574C27.551 97.0869 28.2755 96.3624 28.2755 95.4688V69.5791H39.6023V77.6696H34.7479C33.8543 77.6696 33.1298 78.3941 33.1298 79.2877V95.4688C33.1298 96.3624 33.8543 97.0869 34.7479 97.0869H67.1101C68.0037 97.0869 68.7282 96.3624 68.7282 95.4688V79.2877C68.7282 78.3941 68.0039 77.6696 67.1101 77.6696ZM15.3306 29.1263C15.3306 24.6581 18.9529 21.0358 23.4212 21.0358C27.8894 21.0358 31.5117 24.6581 31.5117 29.1263C31.5117 33.5945 27.8894 37.2169 23.4212 37.2169C18.9529 37.2169 15.3306 33.5945 15.3306 29.1263ZM27.2723 40.4531L25.0393 44.9191L22.8063 40.4531H27.2723ZM15.3306 57.783L12.7416 55.0161L15.3306 52.4271V57.783ZM26.6574 66.3428C25.7638 66.3428 25.0393 67.0673 25.0393 67.9609V93.8507H18.5668V48.5436C18.5636 47.8903 18.1678 47.3031 17.5636 47.055C16.9611 46.8015 16.2653 46.9356 15.7999 47.3948L9.32741 53.8672C8.71071 54.4965 8.71071 55.5033 9.32741 56.1326L14.6186 61.6503L11.884 65.4691L4.6349 58.2523C2.78641 56.423 2.70793 53.4619 4.4569 51.5371L14.4406 40.4531H19.1817L23.5991 49.2718C24.0067 50.0671 24.9816 50.3816 25.7771 49.974C26.0791 49.8193 26.3249 49.5738 26.4794 49.2718L31.1557 39.9353L50.573 26.4888L53.5018 30.3884L32.1913 45.6148C31.767 45.9168 31.5141 46.4047 31.5117 46.9255V58.2523C31.5117 59.1459 32.2362 59.8704 33.1298 59.8704H44.4566C47.1376 59.8704 49.3109 62.0437 49.3109 64.7247V77.6696H42.8385V67.9609C42.8385 67.0673 42.114 66.3428 41.2204 66.3428H26.6574ZM65.492 93.8507H36.366V80.9058H65.492V93.8507Z" fill="white"/>
<path d="M94.618 12.9449C88.3624 12.9449 83.2912 7.87372 83.2912 1.61811C83.2912 0.724509 82.5667 0 81.6731 0C80.7795 0 80.055 0.724509 80.055 1.61811C80.055 7.87372 74.9838 12.9449 68.7282 12.9449C67.8346 12.9449 67.1101 13.6694 67.1101 14.563C67.1101 15.4566 67.8346 16.1811 68.7282 16.1811C74.9838 16.1811 80.055 21.2523 80.055 27.5079C80.055 28.4015 80.7795 29.126 81.6731 29.126C82.5667 29.126 83.2912 28.4015 83.2912 27.5079C83.2912 21.2523 88.3624 16.1811 94.618 16.1811C95.5116 16.1811 96.2361 15.4566 96.2361 14.563C96.2361 13.6694 95.5118 12.9449 94.618 12.9449ZM81.6731 20.8413C80.2781 18.1511 78.0851 15.9582 75.3948 14.563C78.0849 13.1678 80.2779 10.9748 81.6731 8.28472C83.0683 10.9748 85.2613 13.1678 87.9514 14.563C85.2613 15.9582 83.0683 18.1511 81.6731 20.8413Z" fill="white"/>
<path d="M54.3813 40.7621L49.9709 43.9961L51.8845 46.6058L56.2949 43.3718L54.3813 40.7621Z" fill="white"/>
<path d="M74.2483 26.2011L58.0723 38.0713L59.9868 40.6803L76.1629 28.8101L74.2483 26.2011Z" fill="white"/>
<path d="M67.8218 18.0676L58.1152 24.5391L59.9104 27.2316L69.617 20.7601L67.8218 18.0676Z" fill="white"/>
</svg>
