<svg width="92" height="92" viewBox="0 0 92 92" fill="none" xmlns="http://www.w3.org/2000/svg">
<path d="M45.4347 11.628C46.4288 11.628 47.2347 10.8221 47.2347 9.828V1.79996C47.2347 0.805879 46.4288 0 45.4347 0C44.4406 0 43.6348 0.805879 43.6348 1.79996V9.828C43.6349 10.8221 44.4408 11.628 45.4347 11.628Z" fill="white"/>
<path d="M89.4323 61.8364L86.2526 58.6656C85.1214 57.5358 83.6139 56.9135 82.0075 56.9135C80.9803 56.9135 79.9943 57.1691 79.1205 57.6479L73.1285 51.6631L73.4204 51.3716C75.8512 48.9359 75.8503 44.978 73.4202 42.5505C72.5518 41.6805 71.4681 41.1003 70.2869 40.8562C70.4496 40.2948 70.5352 39.7068 70.5352 39.105C70.5352 37.433 69.8857 35.8652 68.71 34.6944C67.8414 33.8244 66.758 33.2442 65.5768 33.0001C65.7394 32.4387 65.825 31.8509 65.825 31.2489C65.825 29.5767 65.1755 28.0091 63.9979 26.8365C63.1086 25.9482 62.0153 25.386 60.8673 25.1466C61.4814 23.0293 60.9567 20.647 59.291 18.9784C57.9044 17.5978 56.0229 17.0044 54.2098 17.1967L42.3361 14.9492C40.5252 14.6057 38.2638 14.3785 36.8363 15.6806C36.7462 15.7628 36.6543 15.8573 36.5639 15.9626C34.3506 15.1558 31.769 15.6362 29.9966 17.4067C28.8207 18.5811 28.173 20.1482 28.173 21.8193C28.173 22.4212 28.2583 23.0091 28.4208 23.5706C27.2408 23.8146 26.1586 24.394 25.293 25.2612C24.1149 26.4345 23.4652 27.9998 23.464 29.669C23.4634 30.2723 23.549 30.8621 23.7124 31.4251C22.5319 31.6686 21.449 32.2469 20.5807 33.1141C19.4026 34.291 18.7538 35.859 18.7538 37.5292C18.7538 38.8085 19.1357 40.0272 19.8435 41.0567C18.9499 41.3596 18.1313 41.8638 17.4459 42.5485C15.0134 44.978 15.0125 48.9361 17.4475 51.3753L17.7383 51.6649L11.7456 57.6467C9.51845 56.5981 6.77446 56.9909 4.93661 58.8264L1.75492 61.9992C0.62322 63.1295 0.000178727 64.6372 0 66.2445C0 67.8519 0.62322 69.3599 1.75492 70.4903L5.72569 74.4563C6.42898 75.1588 7.56872 75.1581 8.27111 74.4548C8.97369 73.7515 8.97297 72.6118 8.26968 71.9094L4.29891 67.9435C3.84816 67.4932 3.59991 66.8899 3.59991 66.2447C3.59991 65.5996 3.84816 64.9964 4.29784 64.5473L7.47971 61.3744C8.27469 60.5803 9.49146 60.462 10.4155 61.0144C10.4805 61.1122 10.5558 61.2051 10.6419 61.2914C10.7962 61.446 10.9722 61.5645 11.1592 61.6512L29.4059 79.8711C29.4926 80.0601 29.6116 80.2379 29.7669 80.3934C29.9181 80.5448 30.0906 80.6618 30.2736 80.748C30.6595 81.1842 30.8727 81.7415 30.8727 82.336C30.8727 82.9812 30.6245 83.5844 30.1737 84.0346L26.9951 87.2095C26.0558 88.1446 24.5281 88.1444 23.5917 87.2123L19.621 83.2412C18.918 82.5383 17.7785 82.5383 17.0755 83.2412C16.3726 83.9441 16.3726 85.0837 17.0755 85.7866L21.0492 89.7606C22.2188 90.9254 23.7547 91.5075 25.2914 91.5075C26.8285 91.5075 28.3662 90.9245 29.5373 89.7587L32.7179 86.5818C33.8496 85.4513 34.4728 83.9436 34.4728 82.336C34.4728 81.1887 34.1538 80.0931 33.5606 79.1484L40.305 72.4122C40.3122 72.4048 40.3193 72.3975 40.3266 72.3902C41.0989 71.5918 43.2495 71.7412 45.3294 71.8856C46.8071 71.9884 48.4546 72.1026 50.0642 71.9171L57.4499 79.294C56.9715 80.1664 56.716 81.1512 56.716 82.1767C56.716 83.7826 57.3393 85.2894 58.471 86.4199L61.6518 89.5967C62.7827 90.7265 64.2903 91.3488 65.8967 91.3488C67.5029 91.3488 69.0105 90.7266 70.1416 89.5967L89.4336 70.3282C90.5653 69.1979 91.1885 67.6902 91.1885 66.0827C91.1883 64.4754 90.5651 62.9677 89.4323 61.8364ZM41.6658 18.4862L49.4739 19.9641L44.8003 24.6358C44.0774 24.2884 43.0865 23.6403 41.9995 22.6005C40.5116 21.1771 39.4473 19.5337 39.3504 18.5087C39.3503 18.5082 39.3503 18.5077 39.3503 18.5071C39.3503 18.5069 39.3501 18.5068 39.3501 18.5066C39.3431 18.433 39.3413 18.3741 39.3422 18.3293C39.5776 18.2721 40.2028 18.2086 41.6658 18.4862ZM32.5404 19.9537C33.4523 19.0428 34.8689 18.9377 35.8992 19.6354C36.4831 22.0836 38.5715 24.3025 39.5111 25.2015C40.2074 25.8678 42.4417 27.8654 44.6969 28.4145C45.0019 28.8518 45.168 29.3732 45.168 29.9233C45.168 30.6319 44.8954 31.2945 44.3987 31.7906C43.9035 32.2868 43.2399 32.5599 42.53 32.5599C41.8199 32.5599 41.1563 32.2868 40.6587 31.7883L40.6585 31.7881L40.6576 31.7872L32.5402 23.6845C32.0453 23.1903 31.7728 22.5278 31.7728 21.8193C31.773 21.1106 32.0455 20.4481 32.5404 19.9537ZM27.837 27.8082C28.3323 27.3123 28.9952 27.039 29.704 27.039C30.4137 27.039 31.0788 27.3128 31.5772 27.8107L38.1136 34.3341C39.1429 35.365 39.1429 37.0425 38.1172 38.0698C37.6193 38.5658 36.9533 38.8389 36.2422 38.8389C35.531 38.8389 34.8651 38.5658 34.3693 38.072L34.3691 38.0718L29.4104 33.1141C29.4027 33.1064 29.3943 33.0993 29.3864 33.0914L27.8351 31.5408C27.3373 31.0435 27.0633 30.3798 27.0639 29.6716C27.0646 28.9658 27.3377 28.3055 27.837 27.8082ZM23.1247 35.6611C23.6203 35.1662 24.2847 34.8937 24.9956 34.8937C25.7007 34.8937 26.3593 35.1623 26.8528 35.6486L31.8268 40.6203C32.3227 41.1143 32.596 41.7761 32.596 42.4838C32.596 43.1914 32.3227 43.8532 31.8248 44.3492C31.3294 44.8439 30.6657 45.1165 29.956 45.1165C29.2452 45.1165 28.5795 44.8432 28.0833 44.3492L26.2801 42.5482C26.2798 42.5476 26.2793 42.5473 26.2789 42.5469L23.1249 39.3967C22.6277 38.9 22.3539 38.2366 22.3539 37.5288C22.3539 36.8212 22.6277 36.1576 23.1247 35.6611ZM19.9899 45.0954C20.4876 44.5982 21.1528 44.3244 21.8629 44.3244C22.5728 44.3244 23.2379 44.598 23.7354 45.0949L25.5411 46.8984C26.0373 47.3924 26.3104 48.0542 26.3104 48.762C26.3104 49.4697 26.0371 50.1314 25.5374 50.6293C25.0421 51.1253 24.3785 51.3986 23.6686 51.3986C22.9585 51.3986 22.2949 51.1255 21.7961 50.6257L21.57 50.4005C21.5669 50.3975 21.5646 50.3943 21.5618 50.3914C21.5584 50.3882 21.5548 50.3853 21.5514 50.3821L19.9917 48.8285C18.9624 47.797 18.9615 46.1225 19.9899 45.0954ZM56.6707 65.5521C55.9681 64.8486 54.8283 64.8481 54.1252 65.5505L52.5238 67.1499C51.0022 68.6716 48.2449 68.48 45.5785 68.295C42.683 68.0938 39.6888 67.8861 37.7512 69.8753L31.1213 76.4971L14.5421 59.9422L20.4093 54.0855C21.3791 54.68 22.4981 54.9986 23.669 54.9986C25.3417 54.9986 26.9102 54.3502 28.0817 53.1765C29.2611 52.0019 29.9108 50.4343 29.9108 48.7622C29.9108 48.7466 29.9097 48.7312 29.9097 48.7157C29.9253 48.7159 29.9408 48.7168 29.9564 48.7168C31.6268 48.7168 33.194 48.0703 34.3672 46.8986C35.5466 45.724 36.1963 44.1562 36.1963 42.4842C36.1963 42.4686 36.1952 42.4533 36.1952 42.4377C36.2109 42.4377 36.2266 42.4388 36.2426 42.4388C37.9124 42.4388 39.4805 41.7931 40.6616 40.6169C41.8876 39.3888 42.4941 37.7721 42.4824 36.1587C42.4985 36.1589 42.5146 36.1598 42.5307 36.1598C44.2034 36.1596 45.7717 35.5114 46.9451 34.3359C48.1209 33.1615 48.7686 31.5944 48.7686 29.9233C48.7686 28.7546 48.4508 27.6374 47.8584 26.6696L53.0009 21.5292C53.384 21.1476 53.8566 20.9081 54.3519 20.8093C54.4055 20.8036 54.4584 20.795 54.5107 20.7846C55.3054 20.6751 56.1398 20.9203 56.7475 21.5255C57.7768 22.5565 57.7768 24.2341 56.7513 25.2614L55.1851 26.8211C55.1799 26.8263 55.1744 26.831 55.1692 26.8361L53.3653 28.637C52.6618 29.3394 52.6611 30.4791 53.3637 31.1824C54.0664 31.8859 55.206 31.8864 55.9091 31.184L57.4815 29.6137C57.4819 29.6134 57.4823 29.613 57.4826 29.6127L57.7203 29.3758C58.7525 28.3532 60.4246 28.3553 61.4557 29.385C61.9518 29.879 62.2251 30.5408 62.2251 31.2485C62.2251 31.9561 61.9518 32.6179 61.4518 33.1159L59.8766 34.6942C59.8765 34.6944 59.8763 34.6946 59.8761 34.6949L58.0724 36.4913C57.368 37.1928 57.3657 38.3326 58.0672 39.0367C58.7687 39.7411 59.9083 39.7432 60.6126 39.0419L62.4246 37.2373C62.9198 36.7412 63.5834 36.4681 64.2933 36.4681C65.0034 36.4681 65.6672 36.7412 66.166 37.2409C66.6622 37.7351 66.9353 38.3969 66.9353 39.1047C66.9353 39.8122 66.6622 40.4741 66.1632 40.9709L63.023 44.1124C62.3202 44.8155 62.3204 45.9551 63.0233 46.6578C63.3749 47.0092 63.8353 47.1847 64.2958 47.1847C64.7566 47.1847 65.2174 47.0088 65.5687 46.6573L67.1077 45.1177C67.1165 45.1093 67.126 45.102 67.1347 45.0932C67.63 44.5971 68.2936 44.324 69.0035 44.324C69.7136 44.324 70.3772 44.5971 70.8742 45.095C71.9025 46.1222 71.9016 47.7968 70.8742 48.826L69.3095 50.3889C69.309 50.3895 69.3082 50.39 69.3077 50.3905C69.3072 50.3911 69.3066 50.3918 69.3061 50.3923L66.8225 52.8729C66.1192 53.5754 66.1185 54.7152 66.8209 55.4185C67.1724 55.7704 67.6336 55.9464 68.0945 55.9464C68.5547 55.9464 69.0151 55.7709 69.3665 55.4201L70.5813 54.2067L76.4037 60.0223L59.8259 76.5799L53.8861 70.6472C54.3002 70.3809 54.6964 70.0678 55.0684 69.6959L56.6689 68.0973C57.3725 67.3951 57.3732 66.2554 56.6707 65.5521ZM86.8894 67.7812L67.5975 87.0497C67.1462 87.5004 66.5421 87.7487 65.8965 87.7487C65.251 87.7487 64.6469 87.5004 64.1954 87.0495L61.0146 83.8727C60.5639 83.4226 60.3156 82.8203 60.3156 82.1767C60.3156 81.5333 60.5639 80.931 61.0146 80.4808L80.3065 61.2123C80.758 60.7613 81.3619 60.5131 82.0077 60.5131C82.6532 60.5131 83.2573 60.7613 83.7099 61.2133L86.8896 64.3841C87.3403 64.8343 87.5886 65.4374 87.5886 66.0826C87.5884 66.7279 87.3401 67.3311 86.8894 67.7812Z" fill="white"/>
<path d="M21.5337 10.1102C21.885 10.4609 22.3451 10.636 22.8051 10.636C23.2662 10.636 23.7275 10.4598 24.0791 10.1075C24.7813 9.40389 24.7802 8.26433 24.0766 7.56211L17.5177 1.01625C16.8142 0.314033 15.6745 0.314927 14.9722 1.01875C14.27 1.7224 14.2711 2.86196 14.9747 3.56418L21.5337 10.1102Z" fill="white"/>
<path d="M68.0641 10.636C68.5243 10.636 68.9847 10.4605 69.3361 10.1096L75.89 3.56357C76.5933 2.86118 76.594 1.72144 75.8914 1.01815C75.189 0.314859 74.0494 0.314144 73.346 1.01672L66.7921 7.56276C66.0888 8.26516 66.0881 9.4049 66.7906 10.1082C67.1422 10.4601 67.6031 10.636 68.0641 10.636Z" fill="white"/>
<path d="M11.0676 77.4248C10.3708 78.1337 10.3804 79.2734 11.0894 79.9702L11.0946 79.9752C11.4444 80.3191 11.8985 80.4903 12.3525 80.4903C12.8184 80.4903 13.2844 80.31 13.6374 79.9509C14.3342 79.2421 14.3219 78.0999 13.6131 77.403C12.9044 76.7062 11.7648 76.716 11.0676 77.4248Z" fill="white"/>
<path d="M61.0731 62.9586C61.3469 62.9586 61.6246 62.8962 61.8854 62.7649C62.7729 62.3172 63.1295 61.2348 62.682 60.3472C62.2343 59.4597 61.1517 59.1029 60.2643 59.5507L60.2543 59.5557C59.3668 60.0034 59.0152 61.0832 59.4628 61.9708C59.7787 62.5978 60.4143 62.9586 61.0731 62.9586Z" fill="white"/>
</svg>
