<svg width="1440" height="1997" viewBox="0 0 1440 1997" fill="none" xmlns="http://www.w3.org/2000/svg">
<path d="M369.184 766.078L640.55 1037.44L630.555 1041.59L362.113 773.149L369.184 766.078Z" fill="#9966FF"/>
<path d="M373.513 761.749L468.868 857.104L452.604 873.367L357.25 778.012L373.513 761.749Z" fill="#9966FF"/>
<path d="M140 762L356 762L356 785L140 785L140 762Z" fill="#9966FF"/>
<path d="M0 768.999L356 768.999L356 778.999L8.74228e-07 778.999L0 768.999Z" fill="#9966FF"/>
<path d="M379 569L379 785L356 785L356 569L379 569Z" fill="#9966FF"/>
<path d="M373 0L373 698L363 698L363 4.37113e-07L373 0Z" fill="#9966FF"/>
</svg>
