<svg width="40" height="40" viewBox="0 0 40 40" fill="none" xmlns="http://www.w3.org/2000/svg">
<path d="M20 2.5C10.3359 2.5 2.5 10.3359 2.5 20C2.5 29.6641 10.3359 37.5 20 37.5C29.6641 37.5 37.5 29.6641 37.5 20C37.5 10.3359 29.6641 2.5 20 2.5ZM20 34.5312C11.9766 34.5312 5.46875 28.0234 5.46875 20C5.46875 11.9766 11.9766 5.46875 20 5.46875C28.0234 5.46875 34.5312 11.9766 34.5312 20C34.5312 28.0234 28.0234 34.5312 20 34.5312Z" fill="white"/>
<path d="M26.7891 13.75C26.7891 13.5781 26.6484 13.4375 26.4766 13.4375L23.8984 13.4492L20.0156 18.0781L16.1367 13.4531L13.5547 13.4414C13.3828 13.4414 13.2422 13.5781 13.2422 13.7539C13.2422 13.8281 13.2695 13.8984 13.3164 13.957L18.3984 20.0117L13.3164 26.0625C13.2692 26.1198 13.243 26.1914 13.2422 26.2656C13.2422 26.4375 13.3828 26.5781 13.5547 26.5781L16.1367 26.5664L20.0156 21.9375L23.8945 26.5625L26.4727 26.5742C26.6445 26.5742 26.7852 26.4375 26.7852 26.2617C26.7852 26.1875 26.7578 26.1172 26.7109 26.0586L21.6367 20.0078L26.7188 13.9531C26.7656 13.8984 26.7891 13.8242 26.7891 13.75Z" fill="white"/>
</svg>
