<svg width="33" height="33" viewBox="0 0 33 33" fill="none" xmlns="http://www.w3.org/2000/svg">
<circle cx="16.5" cy="16.5" r="16" stroke="white"/>
<path d="M16.4869 8.70637C19.021 8.70637 19.3139 8.7191 20.3199 8.75731C21.2495 8.79551 21.7461 8.94832 22.0772 9.08839C22.5229 9.26667 22.8412 9.47042 23.1723 9.8015C23.5034 10.1326 23.7072 10.4509 23.8854 10.8966C24.0128 11.2277 24.1656 11.7371 24.2165 12.6539C24.2675 13.6599 24.2675 13.9528 24.2675 16.4869C24.2675 19.021 24.2547 19.3139 24.2165 20.3199C24.1783 21.2495 24.0255 21.7461 23.8854 22.0772C23.7072 22.5229 23.5034 22.8412 23.1723 23.1723C22.8412 23.5034 22.5229 23.7072 22.0772 23.8854C21.7461 24.0128 21.2367 24.1656 20.3199 24.2165C19.3139 24.2675 19.021 24.2675 16.4869 24.2675C13.9528 24.2675 13.6599 24.2547 12.6539 24.2165C11.7244 24.1783 11.2277 24.0255 10.8966 23.8854C10.4509 23.7072 10.1326 23.5034 9.8015 23.1723C9.47042 22.8412 9.26667 22.5229 9.08839 22.0772C8.96105 21.7461 8.80824 21.2367 8.75731 20.3199C8.70637 19.3139 8.70637 19.021 8.70637 16.4869C8.70637 13.9528 8.7191 13.6599 8.75731 12.6539C8.79551 11.7244 8.94832 11.2277 9.08839 10.8966C9.26667 10.4509 9.47042 10.1326 9.8015 9.8015C10.1326 9.47042 10.4509 9.26667 10.8966 9.08839C11.2277 8.96105 11.7371 8.80824 12.6539 8.75731C13.6472 8.7191 13.9528 8.70637 16.4869 8.70637ZM16.4869 7C13.9019 7 13.5835 7.01273 12.5775 7.05094C11.5715 7.10187 10.8839 7.25468 10.2727 7.49663C9.64869 7.73858 9.11386 8.05693 8.59176 8.59176C8.06967 9.1266 7.73858 9.64869 7.49663 10.2727C7.26742 10.8712 7.10187 11.5715 7.05094 12.5775C7.01273 13.5835 7 13.9019 7 16.4869C7 19.0592 7.01273 19.3903 7.05094 20.3963C7.10187 21.4023 7.25468 22.0899 7.49663 22.7012C7.73858 23.3251 8.05693 23.86 8.59176 24.3821C9.11386 24.9042 9.64869 25.2352 10.2727 25.4772C10.8712 25.7064 11.5715 25.872 12.5775 25.9229C13.5835 25.9738 13.9146 25.9738 16.4869 25.9738C19.0592 25.9738 19.3903 25.9611 20.3963 25.9229C21.4023 25.872 22.0899 25.7191 22.7012 25.4772C23.3251 25.2352 23.86 24.9169 24.3821 24.3821C24.9042 23.86 25.2352 23.3251 25.4772 22.7012C25.7064 22.1027 25.872 21.4023 25.9229 20.3963C25.9738 19.3903 25.9738 19.0592 25.9738 16.4869C25.9738 13.9146 25.9611 13.5835 25.9229 12.5775C25.872 11.5715 25.7191 10.8839 25.4772 10.2727C25.2352 9.64869 24.9169 9.11386 24.3821 8.59176C23.86 8.06967 23.3251 7.73858 22.7012 7.49663C22.1027 7.26742 21.4023 7.10187 20.3963 7.05094C19.3776 7.01273 19.0592 7 16.4869 7Z" fill="white"/>
<path d="M16.487 11.6097C13.8001 11.6097 11.6226 13.7873 11.6226 16.4742C11.6226 19.1611 13.8001 21.3386 16.487 21.3386C19.1739 21.3386 21.3514 19.1611 21.3514 16.4742C21.3514 13.7873 19.1739 11.6097 16.487 11.6097ZM16.487 19.645C14.7424 19.645 13.3289 18.2315 13.3289 16.4869C13.3289 14.7423 14.7424 13.3288 16.487 13.3288C18.2316 13.3288 19.645 14.7423 19.645 16.4869C19.645 18.2315 18.2316 19.645 16.487 19.645Z" fill="white"/>
<path d="M21.5425 12.5521C22.1684 12.5521 22.6759 12.0447 22.6759 11.4187C22.6759 10.7928 22.1684 10.2854 21.5425 10.2854C20.9166 10.2854 20.4092 10.7928 20.4092 11.4187C20.4092 12.0447 20.9166 12.5521 21.5425 12.5521Z" fill="white"/>
</svg>
