<svg width="32" height="32" viewBox="0 0 32 32" fill="none" xmlns="http://www.w3.org/2000/svg">
<circle cx="16" cy="16" r="15.5" stroke="white"/>
<path d="M15.2961 21.958H16.4318C16.4318 21.958 16.7748 21.9232 16.9501 21.7491C17.1113 21.5891 17.1062 21.2889 17.1062 21.2889C17.1062 21.2889 17.0839 19.8831 17.7911 19.676C18.4884 19.472 19.3837 21.0347 20.3325 21.6357C21.0501 22.0903 21.5954 21.9908 21.5954 21.9908L24.1327 21.958C24.1327 21.958 25.46 21.8825 24.8306 20.9197C24.7791 20.8411 24.4639 20.2076 22.944 18.9059C21.3528 17.5436 21.5661 17.764 23.4826 15.4074C24.6498 13.9723 25.1163 13.0961 24.9705 12.7209C24.8316 12.3635 23.9731 12.4579 23.9731 12.4579L21.1162 12.4742C21.1162 12.4742 20.9043 12.4476 20.7473 12.5342C20.5938 12.619 20.4953 12.817 20.4953 12.817C20.4953 12.817 20.0429 13.9275 19.4401 14.872C18.168 16.8648 17.6592 16.9703 17.4513 16.8464C16.9675 16.558 17.0884 15.6879 17.0884 15.0696C17.0884 13.1382 17.4059 12.333 16.47 12.1245C16.1595 12.0554 15.9308 12.0097 15.1365 12.0022C14.1171 11.9927 13.2545 12.0051 12.766 12.2259C12.4409 12.3727 12.1902 12.6999 12.343 12.7187C12.5318 12.7419 12.9594 12.8252 13.1861 13.1097C13.4789 13.4773 13.4687 14.3024 13.4687 14.3024C13.4687 14.3024 13.6369 16.5759 13.0758 16.8582C12.6908 17.0519 12.1624 16.6565 11.0283 14.8485C10.4473 13.9224 10.0084 12.8986 10.0084 12.8986C10.0084 12.8986 9.92393 12.7073 9.773 12.6049C9.58994 12.4808 9.33414 12.4415 9.33414 12.4415L6.61929 12.4579C6.61929 12.4579 6.21181 12.4684 6.06209 12.6318C5.92889 12.7774 6.05145 13.0781 6.05145 13.0781C6.05145 13.0781 8.17675 17.6655 10.5835 19.9773C12.7905 22.0972 15.2961 21.958 15.2961 21.958Z" fill="white"/>
</svg>
