<svg width="60" height="49" viewBox="0 0 60 49" fill="none" xmlns="http://www.w3.org/2000/svg">
<g clip-path="url(#clip0)">
<path d="M28.6884 0H26.1084V16.3519H28.6884V0Z" fill="#9966FF"/>
<path fill-rule="evenodd" clip-rule="evenodd" d="M35.9234 19.7605C35.7368 19.883 35.4074 19.9944 34.9353 20.0947C34.7047 20.1392 34.5291 20.1838 34.4083 20.2172C34.1119 20.2952 33.9033 20.4065 33.7825 20.5402C33.6617 20.6739 33.5959 20.841 33.5959 21.0637C33.5959 21.3311 33.6727 21.5539 33.8484 21.7209C34.0131 21.888 34.2326 21.966 34.5071 21.966C34.9243 21.966 35.2647 21.8435 35.5282 21.5984C35.7917 21.3534 35.9234 21.0303 35.9234 20.6405V19.7605ZM38.6132 23.3361H36.121C36.0881 23.2136 36.0661 23.091 36.0442 22.9574C36.0222 22.8237 36.0002 22.69 35.9893 22.5564C35.6489 22.9017 35.2756 23.1579 34.8914 23.3249C34.5071 23.492 34.0789 23.57 33.6178 23.57C32.8932 23.57 32.3223 23.3695 31.9051 22.9685C31.4879 22.5675 31.2793 22.0217 31.2793 21.3422C31.2793 20.7184 31.444 20.206 31.7734 19.8162C32.1027 19.4263 32.5968 19.1479 33.2555 18.9919C33.6288 18.9139 34.0899 18.8137 34.6498 18.7246C35.4952 18.5798 35.9124 18.3793 35.9124 18.1119V17.9337C35.9124 17.7109 35.8356 17.5439 35.6709 17.4325C35.5062 17.3211 35.2647 17.2654 34.9463 17.2654C34.5949 17.2654 34.3205 17.3322 34.1228 17.477C33.9142 17.6218 33.7935 17.8335 33.7386 18.1119H31.4879C31.6087 17.2542 31.96 16.6193 32.5419 16.196C33.1238 15.7728 33.9472 15.5723 35.0121 15.5723C35.6709 15.5723 36.2418 15.6502 36.6919 15.8173C37.153 15.9844 37.5044 16.2295 37.7569 16.5525C37.9325 16.7864 38.0643 17.076 38.1302 17.399C38.207 17.7221 38.24 18.2567 38.24 18.9808V21.8546C38.24 22.1999 38.2729 22.4672 38.3278 22.6677C38.3937 22.8682 38.4815 22.9908 38.6023 23.0576V23.3361H38.6132ZM38.8548 23.3361L41.4897 19.3818L38.9646 15.7505H41.852L42.8731 17.5661L43.938 15.7505H46.7926L44.2674 19.3818L46.9133 23.3361H44.0478L42.8731 21.2531L41.7203 23.3361H38.8548Z" fill="black"/>
<path fill-rule="evenodd" clip-rule="evenodd" d="M28.6885 37.7607V34.4636H29.5119V35.7223L30.6757 34.4636H31.6748L30.3573 35.856L31.7077 37.7719H30.7086L29.7974 36.4463L29.5119 36.736V37.7719H28.6885V37.7607ZM32.586 36.1122C32.586 36.4463 32.6519 36.7025 32.7836 36.8808C32.9154 37.059 33.113 37.1481 33.3655 37.1481C33.618 37.1481 33.8157 37.059 33.9474 36.8808C34.0791 36.7025 34.156 36.4463 34.156 36.1122C34.156 35.778 34.0901 35.5218 33.9474 35.3436C33.8157 35.1654 33.618 35.0763 33.3655 35.0763C33.113 35.0763 32.9154 35.1654 32.7836 35.3436C32.6519 35.5218 32.586 35.778 32.586 36.1122ZM31.7406 36.1122C31.7406 35.5775 31.8834 35.1542 32.1798 34.8423C32.4762 34.5305 32.8715 34.3745 33.3655 34.3745C33.8705 34.3745 34.2658 34.5305 34.5622 34.8423C34.8587 35.1542 35.0014 35.5775 35.0014 36.1122C35.0014 36.6468 34.8587 37.0701 34.5622 37.382C34.2658 37.6939 33.8705 37.8498 33.3655 37.8498C32.8605 37.8498 32.4652 37.6939 32.1798 37.382C31.8834 37.0701 31.7406 36.6468 31.7406 36.1122ZM36.3079 35.7446H36.9776C37.1203 35.7446 37.2191 35.7223 37.296 35.6666C37.3619 35.6109 37.3948 35.533 37.3948 35.4216C37.3948 35.3213 37.3619 35.2433 37.296 35.1988C37.2301 35.1431 37.1313 35.1208 37.0105 35.1208H36.3079V35.7446ZM36.3079 37.1035H36.9337C37.1313 37.1035 37.274 37.0701 37.3509 37.0144C37.4277 36.9587 37.4716 36.8585 37.4716 36.736C37.4716 36.6134 37.4387 36.5243 37.3619 36.4686C37.285 36.4129 37.1752 36.3795 37.0215 36.3795H36.3079V37.1035ZM35.5064 37.7607V34.4636H37.0874C37.4607 34.4636 37.7461 34.5305 37.9218 34.6753C38.0974 34.8089 38.1963 35.0206 38.1963 35.3102C38.1963 35.4884 38.1523 35.6332 38.0755 35.7557C37.9986 35.8671 37.8779 35.9562 37.7132 36.0231C37.8998 36.0676 38.0425 36.1567 38.1414 36.2904C38.2402 36.4241 38.2951 36.58 38.2951 36.7694C38.2951 36.9587 38.2512 37.1258 38.1743 37.2706C38.0865 37.4154 37.9767 37.538 37.823 37.6159C37.7242 37.6716 37.6034 37.7162 37.4497 37.7385C37.307 37.7607 37.0874 37.7719 36.78 37.7719H35.5064V37.7607ZM39.5137 36.1122C39.5137 36.4463 39.5796 36.7025 39.7114 36.8808C39.8431 37.059 40.0407 37.1481 40.2932 37.1481C40.5458 37.1481 40.7434 37.059 40.8751 36.8808C41.0069 36.7025 41.0837 36.4463 41.0837 36.1122C41.0837 35.778 41.0178 35.5218 40.8751 35.3436C40.7434 35.1654 40.5458 35.0763 40.2932 35.0763C40.0407 35.0763 39.8431 35.1654 39.7114 35.3436C39.5796 35.5218 39.5137 35.778 39.5137 36.1122ZM38.6684 36.1122C38.6684 35.5775 38.8111 35.1542 39.1075 34.8423C39.4039 34.5305 39.7992 34.3745 40.2932 34.3745C40.7983 34.3745 41.1935 34.5305 41.4899 34.8423C41.7864 35.1542 41.9291 35.5775 41.9291 36.1122C41.9291 36.6468 41.7864 37.0701 41.4899 37.382C41.1935 37.6939 40.7983 37.8498 40.2932 37.8498C39.7882 37.8498 39.393 37.6939 39.1075 37.382C38.8221 37.0701 38.6684 36.6468 38.6684 36.1122ZM43.2795 35.9117H43.8285C43.9822 35.9117 44.092 35.8783 44.1578 35.8114C44.2347 35.7446 44.2676 35.6443 44.2676 35.5107C44.2676 35.377 44.2347 35.2768 44.1578 35.2211C44.081 35.1542 43.9712 35.1208 43.8175 35.1208H43.2795V35.9117ZM42.4451 37.7607V34.4636H43.9382C44.3115 34.4636 44.608 34.5527 44.8056 34.731C45.0032 34.9092 45.102 35.1654 45.102 35.4995C45.102 35.856 45.0032 36.1233 44.8056 36.3127C44.608 36.502 44.3335 36.5912 43.9602 36.5912H43.2795V37.7607H42.4451ZM45.5631 37.7607V34.4636H46.3866V35.7223L47.5503 34.4636H48.5494L47.2319 35.856L48.5823 37.7719H47.5833L46.672 36.4463L46.3866 36.736V37.7719H45.5631V37.7607ZM52.3262 37.7607V34.4636H53.1606V35.6332H54.3024V34.4636H55.1368V37.7607H54.3024V36.3684H53.1606V37.7607H52.3262Z" fill="black"/>
<path fill-rule="evenodd" clip-rule="evenodd" d="M51.6888 37.7606V34.4635H50.7885L50.1737 35.544C50.0749 35.7222 49.9761 35.9004 49.8882 36.0675C49.8004 36.2458 49.7126 36.4128 49.6357 36.5799C49.6467 36.3349 49.6577 36.101 49.6577 35.8782C49.6686 35.6554 49.6687 35.466 49.6687 35.2989V34.4524H48.8672V37.7606H49.7675L50.4042 36.6468C50.4811 36.5131 50.5579 36.3683 50.6458 36.2012C50.7336 36.0341 50.8324 35.8559 50.9312 35.6665C50.9203 35.8782 50.8983 36.0787 50.8983 36.268C50.8873 36.4574 50.8873 36.6133 50.8873 36.7581V37.7495H51.6888V37.7606Z" fill="black"/>
<path fill-rule="evenodd" clip-rule="evenodd" d="M55.6631 37.7606V35.1319V34.4524H57.4197V35.1319H56.4865V37.7606H55.6631Z" fill="black"/>
<path fill-rule="evenodd" clip-rule="evenodd" d="M30.8396 42.6507C30.7518 43.2634 30.5102 43.7423 30.126 44.0876C29.7307 44.4218 29.2257 44.6 28.6109 44.6C27.8753 44.6 27.2715 44.355 26.8213 43.8649C26.3712 43.3747 26.1406 42.7287 26.1406 41.9267C26.1406 41.0913 26.3712 40.4341 26.8323 39.9328C27.2934 39.4427 27.9192 39.1865 28.6877 39.1865C29.3026 39.1865 29.8076 39.3536 30.1919 39.6766C30.5761 40.0108 30.8067 40.4564 30.8616 41.0244H29.6429C29.588 40.7794 29.4672 40.59 29.3026 40.4675C29.1379 40.345 28.9183 40.2781 28.6438 40.2781C28.2815 40.2781 27.9961 40.4229 27.7875 40.7126C27.5789 41.0022 27.4691 41.4032 27.4691 41.9044C27.4691 42.4057 27.5679 42.7955 27.7655 43.074C27.9631 43.3525 28.2486 43.4861 28.6109 43.4861C28.9073 43.4861 29.1379 43.4193 29.3135 43.2745C29.4892 43.1297 29.599 42.9181 29.6429 42.6507H30.8396ZM33.0354 42.4502H34.1443L33.5843 40.6791L33.0354 42.4502ZM32.9146 39.3091H34.3309L36.1205 44.4441H34.7262L34.4187 43.4973H32.728L32.4425 44.4441H31.0921L32.9146 39.3091ZM37.921 43.3747H38.6237C39.0299 43.3747 39.3154 43.2522 39.502 43.0183C39.6886 42.7844 39.7874 42.4057 39.7874 41.8933C39.7874 41.3809 39.6886 41.0022 39.502 40.7682C39.3154 40.5343 39.0189 40.4118 38.6237 40.4118H37.921V43.3747ZM36.6255 44.4552V39.3202H38.7884C39.5349 39.3202 40.1168 39.543 40.5121 39.9885C40.9073 40.4341 41.1159 41.069 41.1159 41.8933C41.1159 42.751 40.9073 43.397 40.4901 43.8203C40.0729 44.2436 39.4471 44.4552 38.6237 44.4552H36.6255ZM41.9613 45.1236H41.4014L43.158 39.1865H43.7179L41.9613 45.1236ZM48.7243 42.6507C48.6365 43.2634 48.3949 43.7423 48.0107 44.0876C47.6154 44.4218 47.1104 44.6 46.4956 44.6C45.76 44.6 45.1562 44.355 44.706 43.8649C44.2559 43.3747 44.0253 42.7287 44.0253 41.9267C44.0253 41.0913 44.2559 40.4341 44.717 39.9328C45.1781 39.4427 45.8039 39.1865 46.5724 39.1865C47.1873 39.1865 47.6923 39.3536 48.0766 39.6766C48.4608 40.0108 48.6914 40.4564 48.7463 41.0244H47.5276C47.4727 40.7794 47.3519 40.59 47.1873 40.4675C47.0226 40.345 46.803 40.2781 46.5285 40.2781C46.1662 40.2781 45.8808 40.4229 45.6722 40.7126C45.4636 41.0022 45.3538 41.4032 45.3538 41.9044C45.3538 42.4057 45.4526 42.7955 45.6502 43.074C45.8478 43.3525 46.1333 43.4861 46.4956 43.4861C46.792 43.4861 47.0226 43.4193 47.1982 43.2745C47.3739 43.1297 47.4837 42.9181 47.5276 42.6507H48.7243ZM50.9201 42.4502H52.029L51.469 40.6791L50.9201 42.4502ZM50.7993 39.3091H52.2156L54.0052 44.4441H52.6109L52.3034 43.4973H50.6127L50.3272 44.4441H48.9768L50.7993 39.3091ZM54.5102 44.4552V39.3202H56.2888L56.9585 41.8264C57.0134 42.0492 57.0683 42.2609 57.1232 42.4725C57.1671 42.6841 57.211 42.8846 57.2549 43.0851C57.2989 42.8735 57.3428 42.6619 57.3977 42.4279C57.4526 42.194 57.5184 41.949 57.5843 41.6928L58.2101 39.3313H59.9887V44.4664H58.803V42.1829C58.803 42.0269 58.803 41.793 58.814 41.5034C58.8249 41.2138 58.8359 40.8796 58.8469 40.5009L57.8698 44.4552H56.5852L55.6301 40.5009C55.641 40.9576 55.663 41.3697 55.663 41.7262C55.674 42.0938 55.674 42.3722 55.674 42.5839V44.4552H54.5102Z" fill="black"/>
<path d="M59.8681 26.533H36.1206V29.1506H59.8681V26.533Z" fill="#9966FF"/>
<path d="M14.1961 16.3521C15.7908 16.3521 17.0835 15.1702 17.0835 13.7122C17.0835 12.2542 15.7908 11.0723 14.1961 11.0723C12.6014 11.0723 11.3086 12.2542 11.3086 13.7122C11.3086 15.1702 12.6014 16.3521 14.1961 16.3521Z" fill="#FF7F08"/>
<path d="M23.0703 30.4442L6.60449 47.1499L8.42885 49.0008L24.8946 32.2951L23.0703 30.4442Z" fill="#9966FF"/>
<path fill-rule="evenodd" clip-rule="evenodd" d="M12.9113 18.9696H15.4803V29.1394H12.9113V18.9696ZM10.8582 18.9696V29.1394H8.51967V24.6282C8.51967 24.3052 8.53065 23.8596 8.54163 23.2915C8.55261 22.7234 8.58554 22.0551 8.61848 21.3088L6.69716 29.1394H4.13907L2.25069 21.3088C2.28362 22.211 2.30558 23.0242 2.32754 23.7371C2.3495 24.4611 2.36048 25.018 2.36048 25.4302V29.1394H0V18.9696H3.52425L4.84172 23.9153C4.96249 24.3497 5.0613 24.773 5.16011 25.1851C5.25892 25.5973 5.33577 25.9983 5.41263 26.3881C5.50046 25.976 5.59927 25.5416 5.70906 25.0849C5.81885 24.6282 5.93962 24.1492 6.08234 23.6257L7.32296 18.9585H10.8582V18.9696ZM20.1464 18.9696V26.5218H25.021V29.1394H24.9991H17.5883H17.5663V18.9696H20.1464ZM28.688 18.9696V26.5218H33.5407V29.1394H26.108V18.9696H28.688Z" fill="#1C1B17"/>
</g>
<defs>
<clipPath id="clip0">
<rect width="60" height="49" fill="white"/>
</clipPath>
</defs>
</svg>
