<svg width="135" height="109" viewBox="0 0 135 109" fill="none" xmlns="http://www.w3.org/2000/svg">
<path d="M64.5596 0H58.7534V36.1876H64.5596V0Z" fill="white"/>
<path fill-rule="evenodd" clip-rule="evenodd" d="M80.8418 43.7309C80.4217 44.0021 79.6805 44.2486 78.6181 44.4704C78.0993 44.569 77.7039 44.6677 77.4322 44.7416C76.7651 44.9142 76.2956 45.1607 76.0239 45.4565C75.7521 45.7523 75.6038 46.1221 75.6038 46.6151C75.6038 47.2067 75.7768 47.6997 76.1721 48.0695C76.5427 48.4392 77.0369 48.6118 77.6545 48.6118C78.5934 48.6118 79.3593 48.3406 79.9523 47.7983C80.5453 47.256 80.8418 46.5411 80.8418 45.6783V43.7309ZM86.895 51.6439H81.2865C81.2124 51.3727 81.1629 51.1015 81.1135 50.8057C81.0641 50.5099 81.0147 50.2141 80.99 49.9183C80.2241 50.6825 79.384 51.2495 78.5193 51.6192C77.6545 51.989 76.691 52.1615 75.6533 52.1615C74.0226 52.1615 72.7378 51.7178 71.7989 50.8304C70.8601 49.943 70.3906 48.7351 70.3906 47.2314C70.3906 45.8509 70.7612 44.717 71.5024 43.8542C72.2437 42.9914 73.3555 42.3751 74.8379 42.03C75.678 41.8574 76.7157 41.6356 77.9757 41.4384C79.8782 41.1179 80.8171 40.6742 80.8171 40.0826V39.6882C80.8171 39.1951 80.6441 38.8254 80.2735 38.5789C79.9029 38.3324 79.3593 38.2091 78.6428 38.2091C77.8522 38.2091 77.2345 38.357 76.7898 38.6775C76.3203 38.9979 76.0486 39.4663 75.925 40.0826H70.8601C71.1318 38.1845 71.9225 36.7793 73.2319 35.8426C74.5414 34.9059 76.3945 34.4622 78.7911 34.4622C80.2735 34.4622 81.5583 34.6347 82.5713 35.0045C83.609 35.3742 84.3996 35.9166 84.9679 36.6314C85.3632 37.1491 85.6597 37.79 85.8079 38.5049C85.9808 39.2198 86.055 40.403 86.055 42.0053V48.3653C86.055 49.1295 86.1291 49.7211 86.2526 50.1648C86.4009 50.6085 86.5985 50.8797 86.8703 51.0276V51.6439H86.895ZM87.4386 51.6439L93.3683 42.8928L87.6856 34.8566H94.1836L96.4814 38.8747L98.878 34.8566H105.302L99.6192 42.8928L105.574 51.6439H99.1251L96.4814 47.0341L93.8871 51.6439H87.4386Z" fill="white"/>
<path fill-rule="evenodd" clip-rule="evenodd" d="M64.5601 83.5661V76.2695H66.4131V79.055L69.0321 76.2695H71.2804L68.3156 79.3508L71.3545 83.5908H69.1062L67.0555 80.6573L66.4131 81.2983V83.5908H64.5601V83.5661ZM73.3311 79.9178C73.3311 80.6573 73.4794 81.2243 73.7758 81.6187C74.0723 82.0131 74.5171 82.2103 75.0853 82.2103C75.6536 82.2103 76.0983 82.0131 76.3948 81.6187C76.6913 81.2243 76.8642 80.6573 76.8642 79.9178C76.8642 79.1783 76.716 78.6113 76.3948 78.2169C76.0983 77.8225 75.6536 77.6253 75.0853 77.6253C74.5171 77.6253 74.0723 77.8225 73.7758 78.2169C73.4794 78.6113 73.3311 79.1783 73.3311 79.9178ZM71.4287 79.9178C71.4287 78.7346 71.7499 77.7978 72.4169 77.1076C73.084 76.4174 73.9735 76.0723 75.0853 76.0723C76.2218 76.0723 77.1113 76.4174 77.7784 77.1076C78.4455 77.7978 78.7667 78.7346 78.7667 79.9178C78.7667 81.1011 78.4455 82.0378 77.7784 82.728C77.1113 83.4182 76.2218 83.7634 75.0853 83.7634C73.9488 83.7634 73.0593 83.4182 72.4169 82.728C71.7499 82.0378 71.4287 81.1011 71.4287 79.9178ZM81.7068 79.1043H83.214C83.5352 79.1043 83.7575 79.055 83.9305 78.9318C84.0787 78.8085 84.1529 78.636 84.1529 78.3895C84.1529 78.1676 84.0787 77.995 83.9305 77.8964C83.7822 77.7732 83.5599 77.7239 83.2881 77.7239H81.7068V79.1043ZM81.7068 82.1117H83.1151C83.5599 82.1117 83.8811 82.0378 84.054 81.9145C84.227 81.7913 84.3258 81.5694 84.3258 81.2983C84.3258 81.0271 84.2517 80.8299 84.0787 80.7066C83.9058 80.5834 83.6587 80.5094 83.3128 80.5094H81.7068V82.1117ZM79.9032 83.5661V76.2695H83.461C84.3011 76.2695 84.9435 76.4174 85.3388 76.7378C85.7341 77.0336 85.9565 77.502 85.9565 78.1429C85.9565 78.5374 85.8576 78.8578 85.6847 79.129C85.5117 79.3755 85.24 79.5727 84.8694 79.7206C85.2894 79.8192 85.6106 80.0164 85.8329 80.3122C86.0553 80.608 86.1788 80.9531 86.1788 81.3722C86.1788 81.7913 86.08 82.161 85.9071 82.4815C85.7094 82.802 85.4623 83.0731 85.1164 83.2457C84.8941 83.3689 84.6223 83.4675 84.2764 83.5168C83.9552 83.5661 83.461 83.5908 82.7692 83.5908H79.9032V83.5661ZM88.9213 79.9178C88.9213 80.6573 89.0696 81.2243 89.3661 81.6187C89.6626 82.0131 90.1073 82.2103 90.6755 82.2103C91.2438 82.2103 91.6885 82.0131 91.985 81.6187C92.2815 81.2243 92.4545 80.6573 92.4545 79.9178C92.4545 79.1783 92.3062 78.6113 91.985 78.2169C91.6885 77.8225 91.2438 77.6253 90.6755 77.6253C90.1073 77.6253 89.6626 77.8225 89.3661 78.2169C89.0696 78.6113 88.9213 79.1783 88.9213 79.9178ZM87.0189 79.9178C87.0189 78.7346 87.3401 77.7978 88.0072 77.1076C88.6743 76.4174 89.5637 76.0723 90.6755 76.0723C91.8121 76.0723 92.7015 76.4174 93.3686 77.1076C94.0357 77.7978 94.3569 78.7346 94.3569 79.9178C94.3569 81.1011 94.0357 82.0378 93.3686 82.728C92.7015 83.4182 91.8121 83.7634 90.6755 83.7634C89.539 83.7634 88.6496 83.4182 88.0072 82.728C87.3648 82.0378 87.0189 81.1011 87.0189 79.9178ZM97.3959 79.4741H98.6313C98.9772 79.4741 99.2242 79.4001 99.3725 79.2522C99.5454 79.1043 99.6195 78.8825 99.6195 78.5867C99.6195 78.2908 99.5454 78.069 99.3725 77.9457C99.1995 77.7978 98.9524 77.7239 98.6065 77.7239H97.3959V79.4741ZM95.5182 83.5661V76.2695H98.8783C99.7184 76.2695 100.385 76.4667 100.83 76.8611C101.275 77.2555 101.497 77.8225 101.497 78.562C101.497 79.3508 101.275 79.9425 100.83 80.3615C100.385 80.7806 99.7678 80.9778 98.9277 80.9778H97.3959V83.5661H95.5182ZM102.535 83.5661V76.2695H104.388V79.055L107.007 76.2695H109.255L106.29 79.3508L109.329 83.5908H107.081L105.03 80.6573L104.388 81.2983V83.5908H102.535V83.5661ZM117.755 83.5661V76.2695H119.632V78.8578H122.202V76.2695H124.08V83.5661H122.202V80.4848H119.632V83.5661H117.755Z" fill="white"/>
<path fill-rule="evenodd" clip-rule="evenodd" d="M116.321 83.5663V76.2696H114.295L112.912 78.6608C112.689 79.0552 112.467 79.4496 112.269 79.8194C112.072 80.2138 111.874 80.5836 111.701 80.9533C111.726 80.411 111.751 79.8933 111.751 79.4003C111.775 78.9073 111.775 78.4882 111.775 78.1185V76.245H109.972V83.5663H111.998L113.431 81.1012C113.604 80.8054 113.777 80.485 113.974 80.1152C114.172 79.7454 114.394 79.351 114.617 78.932C114.592 79.4003 114.543 79.844 114.543 80.2631C114.518 80.6822 114.518 81.0273 114.518 81.3477V83.5417H116.321V83.5663Z" fill="white"/>
<path fill-rule="evenodd" clip-rule="evenodd" d="M125.265 83.5663V77.7487V76.245H129.218V77.7487H127.118V83.5663H125.265Z" fill="white"/>
<path fill-rule="evenodd" clip-rule="evenodd" d="M69.4023 94.3886C69.2046 95.7444 68.6611 96.8044 67.7963 97.5686C66.9069 98.3081 65.7704 98.7025 64.3868 98.7025C62.7314 98.7025 61.3725 98.1602 60.3595 97.0756C59.3465 95.9909 58.8276 94.5612 58.8276 92.7863C58.8276 90.9375 59.3465 89.4831 60.3842 88.3738C61.4219 87.2891 62.8302 86.7222 64.5597 86.7222C65.9433 86.7222 67.0798 87.0919 67.9446 87.8068C68.8093 88.5463 69.3282 89.5324 69.4517 90.7896H66.7092C66.5857 90.2473 66.3139 89.8282 65.9433 89.557C65.5727 89.2859 65.0785 89.138 64.4609 89.138C63.6455 89.138 63.0031 89.4584 62.5337 90.0994C62.0643 90.7403 61.8172 91.6277 61.8172 92.737C61.8172 93.8463 62.0396 94.7091 62.4843 95.3254C62.929 95.9416 63.5714 96.2374 64.3868 96.2374C65.0538 96.2374 65.5727 96.0895 65.968 95.7691C66.3633 95.4486 66.6104 94.9802 66.7092 94.3886H69.4023ZM74.3437 93.9449H76.8392L75.5791 90.0254L74.3437 93.9449ZM74.072 86.9933H77.2592L81.2865 98.3574H78.1486L77.4568 96.2621H73.6519L73.0096 98.3574H69.9706L74.072 86.9933ZM85.3384 95.9909H86.9197C87.8339 95.9909 88.4762 95.7198 88.8963 95.2021C89.3163 94.6844 89.5386 93.8463 89.5386 92.7124C89.5386 91.5784 89.3163 90.7403 88.8963 90.2226C88.4762 89.7049 87.8091 89.4338 86.9197 89.4338H85.3384V95.9909ZM82.423 98.3821V87.018H87.2903C88.9704 87.018 90.2799 87.511 91.1693 88.497C92.0588 89.4831 92.5282 90.8882 92.5282 92.7124C92.5282 94.6105 92.0588 96.0402 91.1199 96.977C90.181 97.9137 88.7727 98.3821 86.9197 98.3821H82.423ZM94.4307 99.8611H93.1706L97.1238 86.7222H98.3838L94.4307 99.8611ZM109.65 94.3886C109.453 95.7444 108.909 96.8044 108.044 97.5686C107.155 98.3081 106.018 98.7025 104.635 98.7025C102.979 98.7025 101.62 98.1602 100.607 97.0756C99.5945 95.9909 99.0756 94.5612 99.0756 92.7863C99.0756 90.9375 99.5945 89.4831 100.632 88.3738C101.67 87.2891 103.078 86.7222 104.808 86.7222C106.191 86.7222 107.328 87.0919 108.193 87.8068C109.057 88.5463 109.576 89.5324 109.7 90.7896H106.957C106.834 90.2473 106.562 89.8282 106.191 89.557C105.821 89.2859 105.327 89.138 104.709 89.138C103.894 89.138 103.251 89.4584 102.782 90.0994C102.312 90.7403 102.065 91.6277 102.065 92.737C102.065 93.8463 102.288 94.7091 102.732 95.3254C103.177 95.9416 103.819 96.2374 104.635 96.2374C105.302 96.2374 105.821 96.0895 106.216 95.7691C106.611 95.4486 106.858 94.9802 106.957 94.3886H109.65ZM114.592 93.9449H117.087L115.827 90.0254L114.592 93.9449ZM114.32 86.9933H117.507L121.534 98.3574H118.397L117.705 96.2621H113.9L113.258 98.3574H110.219L114.32 86.9933ZM122.671 98.3821V87.018H126.674L128.181 92.5644C128.304 93.0575 128.428 93.5258 128.551 93.9942C128.65 94.4626 128.749 94.9063 128.848 95.35C128.947 94.8816 129.045 94.4133 129.169 93.8956C129.292 93.3779 129.441 92.8356 129.589 92.2686L130.997 87.0426H135V98.4067H132.331V93.3533C132.331 93.0082 132.331 92.4905 132.356 91.8496C132.381 91.2086 132.406 90.4691 132.43 89.631L130.231 98.3821H127.341L125.191 89.631C125.216 90.6417 125.265 91.5538 125.265 92.3426C125.29 93.1561 125.29 93.7723 125.29 94.2407V98.3821H122.671Z" fill="white"/>
<path d="M134.728 58.719H81.2866V64.512H134.728V58.719Z" fill="white"/>
<path d="M31.9462 36.1882C35.535 36.1882 38.4442 33.5725 38.4442 30.3459C38.4442 27.1193 35.535 24.5037 31.9462 24.5037C28.3575 24.5037 25.4482 27.1193 25.4482 30.3459C25.4482 33.5725 28.3575 36.1882 31.9462 36.1882Z" fill="#FF7F08"/>
<path d="M51.9176 67.3758L14.8628 104.346L18.9683 108.443L56.0232 71.472L51.9176 67.3758Z" fill="white"/>
<path fill-rule="evenodd" clip-rule="evenodd" d="M29.0556 41.9802H34.8371V64.4865H29.0556V41.9802ZM24.4354 41.9802V64.4865H19.1728V54.5029C19.1728 53.788 19.1975 52.802 19.2222 51.5448C19.2469 50.2876 19.321 48.8085 19.3951 47.1569L15.0714 64.4865H9.3146L5.06497 47.1569C5.13909 49.1536 5.18851 50.9532 5.23792 52.5308C5.28733 54.1331 5.31204 55.3657 5.31204 56.2778V64.4865H0V41.9802H7.931L10.8959 52.9252C11.1676 53.8866 11.39 54.8234 11.6124 55.7354C11.8347 56.6475 12.0077 57.535 12.1806 58.3977C12.3783 57.4857 12.6007 56.5243 12.8477 55.5136C13.0948 54.5029 13.3666 53.4429 13.6878 52.2843L16.4797 41.9556H24.4354V41.9802ZM45.3377 41.9802V58.6936H56.3076V64.4865H56.2582H39.5809H39.5315V41.9802H45.3377ZM64.5598 41.9802V58.6936H75.4804V64.4865H58.7537V41.9802H64.5598Z" fill="white"/>
</svg>
