<svg width="1124" height="337" viewBox="0 0 1124 337" fill="none" xmlns="http://www.w3.org/2000/svg">
<line x1="76" y1="-4.37114e-08" x2="76" y2="335" stroke="#9D9D9D" stroke-width="2"/>
<line x1="1120" y1="336" x2="75" y2="336" stroke="#9D9D9D" stroke-width="2"/>
<path d="M1.59375 19.625H3.10156V29.7734H8.71094V19.625H10.2109V29.7422H11.4062L11.2656 33.7422H9.91406V31H1.59375V19.625ZM16.5312 31.1562C15.3854 31.1562 14.4531 30.7812 13.7344 30.0312C13.0156 29.276 12.6562 28.2682 12.6562 27.0078V26.7422C12.6562 25.9036 12.8151 25.1562 13.1328 24.5C13.4557 23.8385 13.9036 23.3229 14.4766 22.9531C15.0547 22.5781 15.6797 22.3906 16.3516 22.3906C17.4505 22.3906 18.3047 22.7526 18.9141 23.4766C19.5234 24.2005 19.8281 25.237 19.8281 26.5859V27.1875H14.1016C14.1224 28.0208 14.3646 28.6953 14.8281 29.2109C15.2969 29.7214 15.8906 29.9766 16.6094 29.9766C17.1198 29.9766 17.5521 29.8724 17.9062 29.6641C18.2604 29.4557 18.5703 29.1797 18.8359 28.8359L19.7188 29.5234C19.0104 30.612 17.9479 31.1562 16.5312 31.1562ZM16.3516 23.5781C15.7682 23.5781 15.2786 23.7917 14.8828 24.2188C14.487 24.6406 14.2422 25.2344 14.1484 26H18.3828V25.8906C18.3411 25.1562 18.1432 24.5885 17.7891 24.1875C17.4349 23.7812 16.9557 23.5781 16.3516 23.5781ZM28.4141 31H26.9688V27.3906H23.0859V31H21.6328V22.5469H23.0859V26.2109H26.9688V22.5469H28.4141V31ZM32.3203 25.4609H34.5156C35.474 25.4714 36.2318 25.7214 36.7891 26.2109C37.3464 26.7005 37.625 27.3646 37.625 28.2031C37.625 29.0469 37.3385 29.724 36.7656 30.2344C36.1927 30.7448 35.4219 31 34.4531 31H30.875V22.5469H32.3203V25.4609ZM40.6406 31H39.1875V22.5469H40.6406V31ZM32.3203 26.6406V29.8203H34.4688C35.0104 29.8203 35.4297 29.6823 35.7266 29.4062C36.0234 29.125 36.1719 28.7422 36.1719 28.2578C36.1719 27.7891 36.026 27.4062 35.7344 27.1094C35.4479 26.8073 35.0443 26.651 34.5234 26.6406H32.3203ZM47.2656 31V22.5469H50.5625C51.6875 22.5469 52.5495 22.7448 53.1484 23.1406C53.7526 23.5312 54.0547 24.1068 54.0547 24.8672C54.0547 25.2578 53.9375 25.612 53.7031 25.9297C53.4688 26.2422 53.1224 26.4818 52.6641 26.6484C53.1745 26.7682 53.5833 27.0026 53.8906 27.3516C54.2031 27.7005 54.3594 28.1172 54.3594 28.6016C54.3594 29.3776 54.0729 29.9714 53.5 30.3828C52.9323 30.7943 52.1276 31 51.0859 31H47.2656ZM48.7109 27.2891V29.8359H51.1016C51.7057 29.8359 52.1562 29.724 52.4531 29.5C52.7552 29.276 52.9062 28.9609 52.9062 28.5547C52.9062 27.7109 52.2865 27.2891 51.0469 27.2891H48.7109ZM48.7109 26.1328H50.5781C51.9323 26.1328 52.6094 25.737 52.6094 24.9453C52.6094 24.1536 51.9688 23.7448 50.6875 23.7188H48.7109V26.1328ZM65.1172 28.8516H62.5V31H61.0078V28.8516H59.3906V27.6172H61.0078V26.5469H59.3906V25.3203H61.0078V19.625H65.2031C66.4219 19.625 67.388 19.9349 68.1016 20.5547C68.8151 21.1745 69.1719 22.013 69.1719 23.0703C69.1719 24.1797 68.8281 25.0365 68.1406 25.6406C67.4583 26.2396 66.487 26.5417 65.2266 26.5469H62.5V27.6172H65.1172V28.8516ZM62.5 25.3203H65.2031C66.0104 25.3203 66.625 25.1302 67.0469 24.75C67.4688 24.3698 67.6797 23.8151 67.6797 23.0859C67.6797 22.4245 67.4609 21.8906 67.0234 21.4844C66.5859 21.0729 65.9948 20.8646 65.25 20.8594H62.5V25.3203Z" fill="#676767"/>
<path d="M15.75 81H14.2969V71.3672L11.3828 72.4375V71.125L15.5234 69.5703H15.75V81ZM27.4375 81H19.9844V79.9609L23.9219 75.5859C24.5052 74.9245 24.9062 74.388 25.125 73.9766C25.349 73.5599 25.4609 73.1302 25.4609 72.6875C25.4609 72.0938 25.2812 71.6068 24.9219 71.2266C24.5625 70.8464 24.0833 70.6562 23.4844 70.6562C22.7656 70.6562 22.2057 70.862 21.8047 71.2734C21.4089 71.6797 21.2109 72.2474 21.2109 72.9766H19.7656C19.7656 71.9297 20.1016 71.0833 20.7734 70.4375C21.4505 69.7917 22.3542 69.4688 23.4844 69.4688C24.5417 69.4688 25.3776 69.7474 25.9922 70.3047C26.6068 70.8568 26.9141 71.5938 26.9141 72.5156C26.9141 73.6354 26.2005 74.9688 24.7734 76.5156L21.7266 79.8203H27.4375V81ZM40.0703 76.1484C40.0703 77.8411 39.7812 79.099 39.2031 79.9219C38.625 80.7448 37.7214 81.1562 36.4922 81.1562C35.2786 81.1562 34.3802 80.7552 33.7969 79.9531C33.2135 79.1458 32.9115 77.9427 32.8906 76.3438V74.4141C32.8906 72.7422 33.1797 71.5 33.7578 70.6875C34.3359 69.875 35.2422 69.4688 36.4766 69.4688C37.7005 69.4688 38.6016 69.862 39.1797 70.6484C39.7578 71.4297 40.0547 72.638 40.0703 74.2734V76.1484ZM38.625 74.1719C38.625 72.9479 38.4531 72.0573 38.1094 71.5C37.7656 70.9375 37.2214 70.6562 36.4766 70.6562C35.737 70.6562 35.1979 70.9349 34.8594 71.4922C34.5208 72.0495 34.3464 72.9062 34.3359 74.0625V76.375C34.3359 77.6042 34.513 78.513 34.8672 79.1016C35.2266 79.6849 35.7682 79.9766 36.4922 79.9766C37.2057 79.9766 37.7344 79.7005 38.0781 79.1484C38.4271 78.5964 38.6094 77.7266 38.625 76.5391V74.1719ZM49.0547 76.1484C49.0547 77.8411 48.7656 79.099 48.1875 79.9219C47.6094 80.7448 46.7057 81.1562 45.4766 81.1562C44.263 81.1562 43.3646 80.7552 42.7812 79.9531C42.1979 79.1458 41.8958 77.9427 41.875 76.3438V74.4141C41.875 72.7422 42.1641 71.5 42.7422 70.6875C43.3203 69.875 44.2266 69.4688 45.4609 69.4688C46.6849 69.4688 47.5859 69.862 48.1641 70.6484C48.7422 71.4297 49.0391 72.638 49.0547 74.2734V76.1484ZM47.6094 74.1719C47.6094 72.9479 47.4375 72.0573 47.0938 71.5C46.75 70.9375 46.2057 70.6562 45.4609 70.6562C44.7214 70.6562 44.1823 70.9349 43.8438 71.4922C43.5052 72.0495 43.3307 72.9062 43.3203 74.0625V76.375C43.3203 77.6042 43.4974 78.513 43.8516 79.1016C44.2109 79.6849 44.7526 79.9766 45.4766 79.9766C46.1901 79.9766 46.7188 79.7005 47.0625 79.1484C47.4115 78.5964 47.5938 77.7266 47.6094 76.5391V74.1719ZM58.0391 76.1484C58.0391 77.8411 57.75 79.099 57.1719 79.9219C56.5938 80.7448 55.6901 81.1562 54.4609 81.1562C53.2474 81.1562 52.349 80.7552 51.7656 79.9531C51.1823 79.1458 50.8802 77.9427 50.8594 76.3438V74.4141C50.8594 72.7422 51.1484 71.5 51.7266 70.6875C52.3047 69.875 53.2109 69.4688 54.4453 69.4688C55.6693 69.4688 56.5703 69.862 57.1484 70.6484C57.7266 71.4297 58.0234 72.638 58.0391 74.2734V76.1484ZM56.5938 74.1719C56.5938 72.9479 56.4219 72.0573 56.0781 71.5C55.7344 70.9375 55.1901 70.6562 54.4453 70.6562C53.7057 70.6562 53.1667 70.9349 52.8281 71.4922C52.4896 72.0495 52.3151 72.9062 52.3047 74.0625V76.375C52.3047 77.6042 52.4818 78.513 52.8359 79.1016C53.1953 79.6849 53.737 79.9766 54.4609 79.9766C55.1745 79.9766 55.7031 79.7005 56.0469 79.1484C56.3958 78.5964 56.5781 77.7266 56.5938 76.5391V74.1719Z" fill="#676767"/>
<path d="M15.6562 125.297L16.2344 119.625H22.0625V120.961H17.4609L17.1172 124.062C17.6745 123.734 18.3073 123.57 19.0156 123.57C20.0521 123.57 20.875 123.914 21.4844 124.602C22.0938 125.284 22.3984 126.208 22.3984 127.375C22.3984 128.547 22.0807 129.471 21.4453 130.148C20.8151 130.82 19.9323 131.156 18.7969 131.156C17.7917 131.156 16.9714 130.878 16.3359 130.32C15.7005 129.763 15.3385 128.992 15.25 128.008H16.6172C16.7057 128.659 16.9375 129.151 17.3125 129.484C17.6875 129.812 18.1823 129.977 18.7969 129.977C19.4688 129.977 19.9948 129.747 20.375 129.289C20.7604 128.831 20.9531 128.198 20.9531 127.391C20.9531 126.63 20.7448 126.021 20.3281 125.562C19.9167 125.099 19.3672 124.867 18.6797 124.867C18.0495 124.867 17.5547 125.005 17.1953 125.281L16.8125 125.594L15.6562 125.297ZM35.0781 126.148C35.0781 127.841 34.7891 129.099 34.2109 129.922C33.6328 130.745 32.7292 131.156 31.5 131.156C30.2865 131.156 29.388 130.755 28.8047 129.953C28.2214 129.146 27.9193 127.943 27.8984 126.344V124.414C27.8984 122.742 28.1875 121.5 28.7656 120.688C29.3438 119.875 30.25 119.469 31.4844 119.469C32.7083 119.469 33.6094 119.862 34.1875 120.648C34.7656 121.43 35.0625 122.638 35.0781 124.273V126.148ZM33.6328 124.172C33.6328 122.948 33.4609 122.057 33.1172 121.5C32.7734 120.938 32.2292 120.656 31.4844 120.656C30.7448 120.656 30.2057 120.935 29.8672 121.492C29.5286 122.049 29.3542 122.906 29.3438 124.062V126.375C29.3438 127.604 29.5208 128.513 29.875 129.102C30.2344 129.685 30.776 129.977 31.5 129.977C32.2135 129.977 32.7422 129.701 33.0859 129.148C33.4349 128.596 33.6172 127.727 33.6328 126.539V124.172ZM44.0625 126.148C44.0625 127.841 43.7734 129.099 43.1953 129.922C42.6172 130.745 41.7135 131.156 40.4844 131.156C39.2708 131.156 38.3724 130.755 37.7891 129.953C37.2057 129.146 36.9036 127.943 36.8828 126.344V124.414C36.8828 122.742 37.1719 121.5 37.75 120.688C38.3281 119.875 39.2344 119.469 40.4688 119.469C41.6927 119.469 42.5938 119.862 43.1719 120.648C43.75 121.43 44.0469 122.638 44.0625 124.273V126.148ZM42.6172 124.172C42.6172 122.948 42.4453 122.057 42.1016 121.5C41.7578 120.938 41.2135 120.656 40.4688 120.656C39.7292 120.656 39.1901 120.935 38.8516 121.492C38.513 122.049 38.3385 122.906 38.3281 124.062V126.375C38.3281 127.604 38.5052 128.513 38.8594 129.102C39.2188 129.685 39.7604 129.977 40.4844 129.977C41.1979 129.977 41.7266 129.701 42.0703 129.148C42.4193 128.596 42.6016 127.727 42.6172 126.539V124.172ZM53.0469 126.148C53.0469 127.841 52.7578 129.099 52.1797 129.922C51.6016 130.745 50.6979 131.156 49.4688 131.156C48.2552 131.156 47.3568 130.755 46.7734 129.953C46.1901 129.146 45.888 127.943 45.8672 126.344V124.414C45.8672 122.742 46.1562 121.5 46.7344 120.688C47.3125 119.875 48.2188 119.469 49.4531 119.469C50.6771 119.469 51.5781 119.862 52.1562 120.648C52.7344 121.43 53.0312 122.638 53.0469 124.273V126.148ZM51.6016 124.172C51.6016 122.948 51.4297 122.057 51.0859 121.5C50.7422 120.938 50.1979 120.656 49.4531 120.656C48.7135 120.656 48.1745 120.935 47.8359 121.492C47.4974 122.049 47.3229 122.906 47.3125 124.062V126.375C47.3125 127.604 47.4896 128.513 47.8438 129.102C48.2031 129.685 48.7448 129.977 49.4688 129.977C50.1823 129.977 50.7109 129.701 51.0547 129.148C51.4036 128.596 51.5859 127.727 51.6016 126.539V124.172Z" fill="#676767"/>
<path d="M19.7422 181H18.2891V171.367L15.375 172.438V171.125L19.5156 169.57H19.7422V181ZM35.0781 176.148C35.0781 177.841 34.7891 179.099 34.2109 179.922C33.6328 180.745 32.7292 181.156 31.5 181.156C30.2865 181.156 29.388 180.755 28.8047 179.953C28.2214 179.146 27.9193 177.943 27.8984 176.344V174.414C27.8984 172.742 28.1875 171.5 28.7656 170.688C29.3438 169.875 30.25 169.469 31.4844 169.469C32.7083 169.469 33.6094 169.862 34.1875 170.648C34.7656 171.43 35.0625 172.638 35.0781 174.273V176.148ZM33.6328 174.172C33.6328 172.948 33.4609 172.057 33.1172 171.5C32.7734 170.938 32.2292 170.656 31.4844 170.656C30.7448 170.656 30.2057 170.935 29.8672 171.492C29.5286 172.049 29.3542 172.906 29.3438 174.062V176.375C29.3438 177.604 29.5208 178.513 29.875 179.102C30.2344 179.685 30.776 179.977 31.5 179.977C32.2135 179.977 32.7422 179.701 33.0859 179.148C33.4349 178.596 33.6172 177.727 33.6328 176.539V174.172ZM44.0625 176.148C44.0625 177.841 43.7734 179.099 43.1953 179.922C42.6172 180.745 41.7135 181.156 40.4844 181.156C39.2708 181.156 38.3724 180.755 37.7891 179.953C37.2057 179.146 36.9036 177.943 36.8828 176.344V174.414C36.8828 172.742 37.1719 171.5 37.75 170.688C38.3281 169.875 39.2344 169.469 40.4688 169.469C41.6927 169.469 42.5938 169.862 43.1719 170.648C43.75 171.43 44.0469 172.638 44.0625 174.273V176.148ZM42.6172 174.172C42.6172 172.948 42.4453 172.057 42.1016 171.5C41.7578 170.938 41.2135 170.656 40.4688 170.656C39.7292 170.656 39.1901 170.935 38.8516 171.492C38.513 172.049 38.3385 172.906 38.3281 174.062V176.375C38.3281 177.604 38.5052 178.513 38.8594 179.102C39.2188 179.685 39.7604 179.977 40.4844 179.977C41.1979 179.977 41.7266 179.701 42.0703 179.148C42.4193 178.596 42.6016 177.727 42.6172 176.539V174.172ZM53.0469 176.148C53.0469 177.841 52.7578 179.099 52.1797 179.922C51.6016 180.745 50.6979 181.156 49.4688 181.156C48.2552 181.156 47.3568 180.755 46.7734 179.953C46.1901 179.146 45.888 177.943 45.8672 176.344V174.414C45.8672 172.742 46.1562 171.5 46.7344 170.688C47.3125 169.875 48.2188 169.469 49.4531 169.469C50.6771 169.469 51.5781 169.862 52.1562 170.648C52.7344 171.43 53.0312 172.638 53.0469 174.273V176.148ZM51.6016 174.172C51.6016 172.948 51.4297 172.057 51.0859 171.5C50.7422 170.938 50.1979 170.656 49.4531 170.656C48.7135 170.656 48.1745 170.935 47.8359 171.492C47.4974 172.049 47.3229 172.906 47.3125 174.062V176.375C47.3125 177.604 47.4896 178.513 47.8438 179.102C48.2031 179.685 48.7448 179.977 49.4688 179.977C50.1823 179.977 50.7109 179.701 51.0547 179.148C51.4036 178.596 51.5859 177.727 51.6016 176.539V174.172Z" fill="#676767"/>
<path d="M22.6328 225.297L23.2109 219.625H29.0391V220.961H24.4375L24.0938 224.062C24.651 223.734 25.2839 223.57 25.9922 223.57C27.0286 223.57 27.8516 223.914 28.4609 224.602C29.0703 225.284 29.375 226.208 29.375 227.375C29.375 228.547 29.0573 229.471 28.4219 230.148C27.7917 230.82 26.9089 231.156 25.7734 231.156C24.7682 231.156 23.9479 230.878 23.3125 230.32C22.6771 229.763 22.3151 228.992 22.2266 228.008H23.5938C23.6823 228.659 23.9141 229.151 24.2891 229.484C24.6641 229.812 25.1589 229.977 25.7734 229.977C26.4453 229.977 26.9714 229.747 27.3516 229.289C27.737 228.831 27.9297 228.198 27.9297 227.391C27.9297 226.63 27.7214 226.021 27.3047 225.562C26.8932 225.099 26.3438 224.867 25.6562 224.867C25.026 224.867 24.5312 225.005 24.1719 225.281L23.7891 225.594L22.6328 225.297ZM38.0859 226.148C38.0859 227.841 37.7969 229.099 37.2188 229.922C36.6406 230.745 35.737 231.156 34.5078 231.156C33.2943 231.156 32.3958 230.755 31.8125 229.953C31.2292 229.146 30.9271 227.943 30.9062 226.344V224.414C30.9062 222.742 31.1953 221.5 31.7734 220.688C32.3516 219.875 33.2578 219.469 34.4922 219.469C35.7161 219.469 36.6172 219.862 37.1953 220.648C37.7734 221.43 38.0703 222.638 38.0859 224.273V226.148ZM36.6406 224.172C36.6406 222.948 36.4688 222.057 36.125 221.5C35.7812 220.938 35.237 220.656 34.4922 220.656C33.7526 220.656 33.2135 220.935 32.875 221.492C32.5365 222.049 32.362 222.906 32.3516 224.062V226.375C32.3516 227.604 32.5286 228.513 32.8828 229.102C33.2422 229.685 33.7839 229.977 34.5078 229.977C35.2214 229.977 35.75 229.701 36.0938 229.148C36.4427 228.596 36.625 227.727 36.6406 226.539V224.172ZM47.0703 226.148C47.0703 227.841 46.7812 229.099 46.2031 229.922C45.625 230.745 44.7214 231.156 43.4922 231.156C42.2786 231.156 41.3802 230.755 40.7969 229.953C40.2135 229.146 39.9115 227.943 39.8906 226.344V224.414C39.8906 222.742 40.1797 221.5 40.7578 220.688C41.3359 219.875 42.2422 219.469 43.4766 219.469C44.7005 219.469 45.6016 219.862 46.1797 220.648C46.7578 221.43 47.0547 222.638 47.0703 224.273V226.148ZM45.625 224.172C45.625 222.948 45.4531 222.057 45.1094 221.5C44.7656 220.938 44.2214 220.656 43.4766 220.656C42.737 220.656 42.1979 220.935 41.8594 221.492C41.5208 222.049 41.3464 222.906 41.3359 224.062V226.375C41.3359 227.604 41.513 228.513 41.8672 229.102C42.2266 229.685 42.7682 229.977 43.4922 229.977C44.2057 229.977 44.7344 229.701 45.0781 229.148C45.4271 228.596 45.6094 227.727 45.625 226.539V224.172Z" fill="#676767"/>
<path d="M29.4219 281H21.9688V279.961L25.9062 275.586C26.4896 274.924 26.8906 274.388 27.1094 273.977C27.3333 273.56 27.4453 273.13 27.4453 272.688C27.4453 272.094 27.2656 271.607 26.9062 271.227C26.5469 270.846 26.0677 270.656 25.4688 270.656C24.75 270.656 24.1901 270.862 23.7891 271.273C23.3932 271.68 23.1953 272.247 23.1953 272.977H21.75C21.75 271.93 22.0859 271.083 22.7578 270.438C23.4349 269.792 24.3385 269.469 25.4688 269.469C26.526 269.469 27.362 269.747 27.9766 270.305C28.5911 270.857 28.8984 271.594 28.8984 272.516C28.8984 273.635 28.1849 274.969 26.7578 276.516L23.7109 279.82H29.4219V281ZM38.0859 276.148C38.0859 277.841 37.7969 279.099 37.2188 279.922C36.6406 280.745 35.737 281.156 34.5078 281.156C33.2943 281.156 32.3958 280.755 31.8125 279.953C31.2292 279.146 30.9271 277.943 30.9062 276.344V274.414C30.9062 272.742 31.1953 271.5 31.7734 270.688C32.3516 269.875 33.2578 269.469 34.4922 269.469C35.7161 269.469 36.6172 269.862 37.1953 270.648C37.7734 271.43 38.0703 272.638 38.0859 274.273V276.148ZM36.6406 274.172C36.6406 272.948 36.4688 272.057 36.125 271.5C35.7812 270.938 35.237 270.656 34.4922 270.656C33.7526 270.656 33.2135 270.935 32.875 271.492C32.5365 272.049 32.362 272.906 32.3516 274.062V276.375C32.3516 277.604 32.5286 278.513 32.8828 279.102C33.2422 279.685 33.7839 279.977 34.5078 279.977C35.2214 279.977 35.75 279.701 36.0938 279.148C36.4427 278.596 36.625 277.727 36.6406 276.539V274.172ZM47.0703 276.148C47.0703 277.841 46.7812 279.099 46.2031 279.922C45.625 280.745 44.7214 281.156 43.4922 281.156C42.2786 281.156 41.3802 280.755 40.7969 279.953C40.2135 279.146 39.9115 277.943 39.8906 276.344V274.414C39.8906 272.742 40.1797 271.5 40.7578 270.688C41.3359 269.875 42.2422 269.469 43.4766 269.469C44.7005 269.469 45.6016 269.862 46.1797 270.648C46.7578 271.43 47.0547 272.638 47.0703 274.273V276.148ZM45.625 274.172C45.625 272.948 45.4531 272.057 45.1094 271.5C44.7656 270.938 44.2214 270.656 43.4766 270.656C42.737 270.656 42.1979 270.935 41.8594 271.492C41.5208 272.049 41.3464 272.906 41.3359 274.062V276.375C41.3359 277.604 41.513 278.513 41.8672 279.102C42.2266 279.685 42.7682 279.977 43.4922 279.977C44.2057 279.977 44.7344 279.701 45.0781 279.148C45.4271 278.596 45.6094 277.727 45.625 276.539V274.172Z" fill="#676767"/>
<path d="M38.0859 326.148C38.0859 327.841 37.7969 329.099 37.2188 329.922C36.6406 330.745 35.737 331.156 34.5078 331.156C33.2943 331.156 32.3958 330.755 31.8125 329.953C31.2292 329.146 30.9271 327.943 30.9062 326.344V324.414C30.9062 322.742 31.1953 321.5 31.7734 320.688C32.3516 319.875 33.2578 319.469 34.4922 319.469C35.7161 319.469 36.6172 319.862 37.1953 320.648C37.7734 321.43 38.0703 322.638 38.0859 324.273V326.148ZM36.6406 324.172C36.6406 322.948 36.4688 322.057 36.125 321.5C35.7812 320.938 35.237 320.656 34.4922 320.656C33.7526 320.656 33.2135 320.935 32.875 321.492C32.5365 322.049 32.362 322.906 32.3516 324.062V326.375C32.3516 327.604 32.5286 328.513 32.8828 329.102C33.2422 329.685 33.7839 329.977 34.5078 329.977C35.2214 329.977 35.75 329.701 36.0938 329.148C36.4427 328.596 36.625 327.727 36.6406 326.539V324.172Z" fill="#676767"/>
<line x1="77" y1="304.522" x2="1120" y2="304.522" stroke="#FAFAFA"/>
<line x1="77" y1="278.628" x2="1120" y2="278.628" stroke="#FAFAFA"/>
<line x1="77" y1="252.734" x2="1120" y2="252.734" stroke="#FAFAFA"/>
<line x1="77" y1="226.841" x2="1120" y2="226.841" stroke="#FAFAFA"/>
<line x1="77" y1="200.947" x2="1120" y2="200.947" stroke="#FAFAFA"/>
<line x1="77" y1="175.053" x2="1120" y2="175.053" stroke="#FAFAFA"/>
<line x1="77" y1="149.159" x2="1120" y2="149.159" stroke="#FAFAFA"/>
<line x1="77" y1="123.266" x2="1120" y2="123.266" stroke="#FAFAFA"/>
<line x1="77" y1="97.3719" x2="1120" y2="97.3719" stroke="#FAFAFA"/>
<line x1="77" y1="71.4781" x2="1120" y2="71.4781" stroke="#FAFAFA"/>
<path d="M96.5859 165H94.9316V157.009L92.4912 157.843V156.441L96.374 155.013H96.5859V165ZM105.452 159.265H106.464C106.974 159.26 107.378 159.128 107.674 158.868C107.975 158.608 108.125 158.232 108.125 157.74C108.125 157.266 108 156.899 107.749 156.64C107.503 156.375 107.125 156.243 106.614 156.243C106.168 156.243 105.801 156.373 105.514 156.633C105.227 156.888 105.083 157.223 105.083 157.638H103.422C103.422 157.127 103.556 156.662 103.825 156.243C104.099 155.824 104.477 155.498 104.96 155.266C105.448 155.029 105.992 154.91 106.594 154.91C107.587 154.91 108.367 155.161 108.932 155.662C109.501 156.159 109.786 156.852 109.786 157.74C109.786 158.187 109.643 158.608 109.355 159.005C109.073 159.397 108.706 159.693 108.255 159.894C108.802 160.08 109.216 160.374 109.499 160.775C109.786 161.176 109.93 161.655 109.93 162.211C109.93 163.104 109.622 163.815 109.007 164.344C108.396 164.872 107.592 165.137 106.594 165.137C105.637 165.137 104.853 164.882 104.242 164.371C103.632 163.861 103.326 163.182 103.326 162.334H104.987C104.987 162.771 105.133 163.127 105.425 163.4C105.721 163.674 106.118 163.811 106.614 163.811C107.129 163.811 107.535 163.674 107.831 163.4C108.127 163.127 108.275 162.73 108.275 162.211C108.275 161.687 108.12 161.284 107.811 161.001C107.501 160.718 107.04 160.577 106.43 160.577H105.452V159.265ZM117.976 160.81C117.976 162.241 117.707 163.321 117.169 164.05C116.636 164.774 115.822 165.137 114.729 165.137C113.653 165.137 112.842 164.784 112.295 164.077C111.753 163.366 111.475 162.316 111.461 160.926V159.203C111.461 157.772 111.728 156.699 112.261 155.983C112.799 155.268 113.617 154.91 114.715 154.91C115.804 154.91 116.615 155.259 117.148 155.956C117.686 156.653 117.962 157.697 117.976 159.087V160.81ZM116.314 158.95C116.314 158.016 116.187 157.332 115.932 156.899C115.676 156.462 115.271 156.243 114.715 156.243C114.173 156.243 113.774 156.451 113.519 156.865C113.263 157.275 113.129 157.918 113.115 158.793V161.049C113.115 161.979 113.245 162.671 113.505 163.127C113.765 163.583 114.173 163.811 114.729 163.811C115.262 163.811 115.656 163.601 115.911 163.182C116.166 162.758 116.301 162.097 116.314 161.199V158.95ZM125.933 160.81C125.933 162.241 125.664 163.321 125.126 164.05C124.593 164.774 123.779 165.137 122.686 165.137C121.61 165.137 120.799 164.784 120.252 164.077C119.71 163.366 119.432 162.316 119.418 160.926V159.203C119.418 157.772 119.685 156.699 120.218 155.983C120.756 155.268 121.574 154.91 122.672 154.91C123.761 154.91 124.572 155.259 125.105 155.956C125.643 156.653 125.919 157.697 125.933 159.087V160.81ZM124.271 158.95C124.271 158.016 124.144 157.332 123.889 156.899C123.633 156.462 123.228 156.243 122.672 156.243C122.13 156.243 121.731 156.451 121.476 156.865C121.22 157.275 121.086 157.918 121.072 158.793V161.049C121.072 161.979 121.202 162.671 121.462 163.127C121.722 163.583 122.13 163.811 122.686 163.811C123.219 163.811 123.613 163.601 123.868 163.182C124.123 162.758 124.258 162.097 124.271 161.199V158.95Z" fill="#515151"/>
<path d="M140.586 160H138.932V152.009L136.491 152.843V151.441L140.374 150.013H140.586V160ZM152.699 149.999V151.373H152.494C151.564 151.387 150.822 151.642 150.266 152.139C149.71 152.635 149.379 153.34 149.274 154.251C149.808 153.69 150.489 153.41 151.318 153.41C152.198 153.41 152.891 153.72 153.396 154.34C153.907 154.96 154.162 155.759 154.162 156.739C154.162 157.751 153.864 158.571 153.267 159.2C152.674 159.825 151.895 160.137 150.929 160.137C149.935 160.137 149.129 159.77 148.509 159.036C147.894 158.302 147.586 157.341 147.586 156.151V155.584C147.586 153.839 148.01 152.471 148.857 151.482C149.71 150.493 150.933 149.999 152.528 149.999H152.699ZM150.915 154.75C150.55 154.75 150.215 154.853 149.91 155.058C149.609 155.263 149.388 155.536 149.247 155.878V156.384C149.247 157.122 149.402 157.71 149.712 158.147C150.022 158.58 150.423 158.797 150.915 158.797C151.407 158.797 151.797 158.612 152.084 158.243C152.371 157.874 152.515 157.389 152.515 156.787C152.515 156.186 152.369 155.696 152.077 155.317C151.785 154.939 151.398 154.75 150.915 154.75ZM161.976 155.81C161.976 157.241 161.707 158.321 161.169 159.05C160.636 159.774 159.822 160.137 158.729 160.137C157.653 160.137 156.842 159.784 156.295 159.077C155.753 158.366 155.475 157.316 155.461 155.926V154.203C155.461 152.772 155.728 151.699 156.261 150.983C156.799 150.268 157.617 149.91 158.715 149.91C159.804 149.91 160.615 150.259 161.148 150.956C161.686 151.653 161.962 152.697 161.976 154.087V155.81ZM160.314 153.95C160.314 153.016 160.187 152.332 159.932 151.899C159.676 151.462 159.271 151.243 158.715 151.243C158.173 151.243 157.774 151.451 157.519 151.865C157.263 152.275 157.129 152.918 157.115 153.793V156.049C157.115 156.979 157.245 157.671 157.505 158.127C157.765 158.583 158.173 158.811 158.729 158.811C159.262 158.811 159.656 158.601 159.911 158.182C160.166 157.758 160.301 157.097 160.314 156.199V153.95ZM169.933 155.81C169.933 157.241 169.664 158.321 169.126 159.05C168.593 159.774 167.779 160.137 166.686 160.137C165.61 160.137 164.799 159.784 164.252 159.077C163.71 158.366 163.432 157.316 163.418 155.926V154.203C163.418 152.772 163.685 151.699 164.218 150.983C164.756 150.268 165.574 149.91 166.672 149.91C167.761 149.91 168.572 150.259 169.105 150.956C169.643 151.653 169.919 152.697 169.933 154.087V155.81ZM168.271 153.95C168.271 153.016 168.144 152.332 167.889 151.899C167.633 151.462 167.228 151.243 166.672 151.243C166.13 151.243 165.731 151.451 165.476 151.865C165.22 152.275 165.086 152.918 165.072 153.793V156.049C165.072 156.979 165.202 157.671 165.462 158.127C165.722 158.583 166.13 158.811 166.686 158.811C167.219 158.811 167.613 158.601 167.868 158.182C168.123 157.758 168.258 157.097 168.271 156.199V153.95Z" fill="#515151"/>
<path d="M184.586 160H182.932V152.009L180.491 152.843V151.441L184.374 150.013H184.586V160ZM196.699 149.999V151.373H196.494C195.564 151.387 194.822 151.642 194.266 152.139C193.71 152.635 193.379 153.34 193.274 154.251C193.808 153.69 194.489 153.41 195.318 153.41C196.198 153.41 196.891 153.72 197.396 154.34C197.907 154.96 198.162 155.759 198.162 156.739C198.162 157.751 197.864 158.571 197.267 159.2C196.674 159.825 195.895 160.137 194.929 160.137C193.935 160.137 193.129 159.77 192.509 159.036C191.894 158.302 191.586 157.341 191.586 156.151V155.584C191.586 153.839 192.01 152.471 192.857 151.482C193.71 150.493 194.933 149.999 196.528 149.999H196.699ZM194.915 154.75C194.55 154.75 194.215 154.853 193.91 155.058C193.609 155.263 193.388 155.536 193.247 155.878V156.384C193.247 157.122 193.402 157.71 193.712 158.147C194.022 158.58 194.423 158.797 194.915 158.797C195.407 158.797 195.797 158.612 196.084 158.243C196.371 157.874 196.515 157.389 196.515 156.787C196.515 156.186 196.369 155.696 196.077 155.317C195.785 154.939 195.398 154.75 194.915 154.75ZM205.976 155.81C205.976 157.241 205.707 158.321 205.169 159.05C204.636 159.774 203.822 160.137 202.729 160.137C201.653 160.137 200.842 159.784 200.295 159.077C199.753 158.366 199.475 157.316 199.461 155.926V154.203C199.461 152.772 199.728 151.699 200.261 150.983C200.799 150.268 201.617 149.91 202.715 149.91C203.804 149.91 204.615 150.259 205.148 150.956C205.686 151.653 205.962 152.697 205.976 154.087V155.81ZM204.314 153.95C204.314 153.016 204.187 152.332 203.932 151.899C203.676 151.462 203.271 151.243 202.715 151.243C202.173 151.243 201.774 151.451 201.519 151.865C201.263 152.275 201.129 152.918 201.115 153.793V156.049C201.115 156.979 201.245 157.671 201.505 158.127C201.765 158.583 202.173 158.811 202.729 158.811C203.262 158.811 203.656 158.601 203.911 158.182C204.166 157.758 204.301 157.097 204.314 156.199V153.95ZM213.933 155.81C213.933 157.241 213.664 158.321 213.126 159.05C212.593 159.774 211.779 160.137 210.686 160.137C209.61 160.137 208.799 159.784 208.252 159.077C207.71 158.366 207.432 157.316 207.418 155.926V154.203C207.418 152.772 207.685 151.699 208.218 150.983C208.756 150.268 209.574 149.91 210.672 149.91C211.761 149.91 212.572 150.259 213.105 150.956C213.643 151.653 213.919 152.697 213.933 154.087V155.81ZM212.271 153.95C212.271 153.016 212.144 152.332 211.889 151.899C211.633 151.462 211.228 151.243 210.672 151.243C210.13 151.243 209.731 151.451 209.476 151.865C209.22 152.275 209.086 152.918 209.072 153.793V156.049C209.072 156.979 209.202 157.671 209.462 158.127C209.722 158.583 210.13 158.811 210.686 158.811C211.219 158.811 211.613 158.601 211.868 158.182C212.123 157.758 212.258 157.097 212.271 156.199V153.95Z" fill="#515151"/>
<path d="M269.607 79H267.953V71.0088L265.513 71.8428V70.4414L269.396 69.0127H269.607V79ZM277.564 79H275.91V71.0088L273.47 71.8428V70.4414L277.353 69.0127H277.564V79ZM290.997 74.8096C290.997 76.2406 290.728 77.3206 290.19 78.0498C289.657 78.7744 288.844 79.1367 287.75 79.1367C286.674 79.1367 285.863 78.7835 285.316 78.0771C284.774 77.3662 284.496 76.3158 284.482 74.9258V73.2031C284.482 71.7721 284.749 70.6989 285.282 69.9834C285.82 69.2679 286.638 68.9102 287.736 68.9102C288.826 68.9102 289.637 69.2588 290.17 69.9561C290.708 70.6533 290.983 71.6969 290.997 73.0869V74.8096ZM289.336 72.9502C289.336 72.016 289.208 71.3324 288.953 70.8994C288.698 70.4619 288.292 70.2432 287.736 70.2432C287.194 70.2432 286.795 70.4505 286.54 70.8652C286.285 71.2754 286.15 71.918 286.137 72.793V75.0488C286.137 75.9785 286.267 76.6712 286.526 77.127C286.786 77.5827 287.194 77.8105 287.75 77.8105C288.283 77.8105 288.677 77.6009 288.933 77.1816C289.188 76.7578 289.322 76.097 289.336 75.1992V72.9502ZM298.954 74.8096C298.954 76.2406 298.685 77.3206 298.147 78.0498C297.614 78.7744 296.801 79.1367 295.707 79.1367C294.632 79.1367 293.82 78.7835 293.273 78.0771C292.731 77.3662 292.453 76.3158 292.439 74.9258V73.2031C292.439 71.7721 292.706 70.6989 293.239 69.9834C293.777 69.2679 294.595 68.9102 295.693 68.9102C296.783 68.9102 297.594 69.2588 298.127 69.9561C298.665 70.6533 298.94 71.6969 298.954 73.0869V74.8096ZM297.293 72.9502C297.293 72.016 297.165 71.3324 296.91 70.8994C296.655 70.4619 296.249 70.2432 295.693 70.2432C295.151 70.2432 294.752 70.4505 294.497 70.8652C294.242 71.2754 294.107 71.918 294.094 72.793V75.0488C294.094 75.9785 294.224 76.6712 294.483 77.127C294.743 77.5827 295.151 77.8105 295.707 77.8105C296.24 77.8105 296.634 77.6009 296.89 77.1816C297.145 76.7578 297.279 76.097 297.293 75.1992V72.9502ZM306.911 74.8096C306.911 76.2406 306.642 77.3206 306.104 78.0498C305.571 78.7744 304.758 79.1367 303.664 79.1367C302.589 79.1367 301.777 78.7835 301.23 78.0771C300.688 77.3662 300.41 76.3158 300.396 74.9258V73.2031C300.396 71.7721 300.663 70.6989 301.196 69.9834C301.734 69.2679 302.552 68.9102 303.65 68.9102C304.74 68.9102 305.551 69.2588 306.084 69.9561C306.622 70.6533 306.897 71.6969 306.911 73.0869V74.8096ZM305.25 72.9502C305.25 72.016 305.122 71.3324 304.867 70.8994C304.612 70.4619 304.206 70.2432 303.65 70.2432C303.108 70.2432 302.709 70.4505 302.454 70.8652C302.199 71.2754 302.064 71.918 302.051 72.793V75.0488C302.051 75.9785 302.181 76.6712 302.44 77.127C302.7 77.5827 303.108 77.8105 303.664 77.8105C304.197 77.8105 304.591 77.6009 304.847 77.1816C305.102 76.7578 305.236 76.097 305.25 75.1992V72.9502Z" fill="#515151"/>
<path d="M322.607 70H320.953V62.0088L318.513 62.8428V61.4414L322.396 60.0127H322.607V70ZM332.759 70H326.066V68.8584L329.382 65.2422C329.86 64.709 330.2 64.2646 330.4 63.9092C330.605 63.5492 330.708 63.1891 330.708 62.8291C330.708 62.3551 330.574 61.9723 330.305 61.6807C330.04 61.389 329.683 61.2432 329.231 61.2432C328.694 61.2432 328.277 61.4072 327.98 61.7354C327.684 62.0635 327.536 62.5124 327.536 63.082H325.875C325.875 62.4759 326.012 61.9313 326.285 61.4482C326.563 60.9606 326.957 60.5824 327.468 60.3135C327.983 60.0446 328.575 59.9102 329.245 59.9102C330.211 59.9102 330.972 60.154 331.528 60.6416C332.089 61.1247 332.369 61.7946 332.369 62.6514C332.369 63.1481 332.228 63.6699 331.945 64.2168C331.667 64.7591 331.209 65.3766 330.571 66.0693L328.138 68.6738H332.759V70ZM343.997 65.8096C343.997 67.2406 343.728 68.3206 343.19 69.0498C342.657 69.7744 341.844 70.1367 340.75 70.1367C339.674 70.1367 338.863 69.7835 338.316 69.0771C337.774 68.3662 337.496 67.3158 337.482 65.9258V64.2031C337.482 62.7721 337.749 61.6989 338.282 60.9834C338.82 60.2679 339.638 59.9102 340.736 59.9102C341.826 59.9102 342.637 60.2588 343.17 60.9561C343.708 61.6533 343.983 62.6969 343.997 64.0869V65.8096ZM342.336 63.9502C342.336 63.016 342.208 62.3324 341.953 61.8994C341.698 61.4619 341.292 61.2432 340.736 61.2432C340.194 61.2432 339.795 61.4505 339.54 61.8652C339.285 62.2754 339.15 62.918 339.137 63.793V66.0488C339.137 66.9785 339.267 67.6712 339.526 68.127C339.786 68.5827 340.194 68.8105 340.75 68.8105C341.283 68.8105 341.677 68.6009 341.933 68.1816C342.188 67.7578 342.322 67.097 342.336 66.1992V63.9502ZM351.954 65.8096C351.954 67.2406 351.685 68.3206 351.147 69.0498C350.614 69.7744 349.801 70.1367 348.707 70.1367C347.632 70.1367 346.82 69.7835 346.273 69.0771C345.731 68.3662 345.453 67.3158 345.439 65.9258V64.2031C345.439 62.7721 345.706 61.6989 346.239 60.9834C346.777 60.2679 347.595 59.9102 348.693 59.9102C349.783 59.9102 350.594 60.2588 351.127 60.9561C351.665 61.6533 351.94 62.6969 351.954 64.0869V65.8096ZM350.293 63.9502C350.293 63.016 350.165 62.3324 349.91 61.8994C349.655 61.4619 349.249 61.2432 348.693 61.2432C348.151 61.2432 347.752 61.4505 347.497 61.8652C347.242 62.2754 347.107 62.918 347.094 63.793V66.0488C347.094 66.9785 347.224 67.6712 347.483 68.127C347.743 68.5827 348.151 68.8105 348.707 68.8105C349.24 68.8105 349.634 68.6009 349.89 68.1816C350.145 67.7578 350.279 67.097 350.293 66.1992V63.9502ZM359.911 65.8096C359.911 67.2406 359.642 68.3206 359.104 69.0498C358.571 69.7744 357.758 70.1367 356.664 70.1367C355.589 70.1367 354.777 69.7835 354.23 69.0771C353.688 68.3662 353.41 67.3158 353.396 65.9258V64.2031C353.396 62.7721 353.663 61.6989 354.196 60.9834C354.734 60.2679 355.552 59.9102 356.65 59.9102C357.74 59.9102 358.551 60.2588 359.084 60.9561C359.622 61.6533 359.897 62.6969 359.911 64.0869V65.8096ZM358.25 63.9502C358.25 63.016 358.122 62.3324 357.867 61.8994C357.612 61.4619 357.206 61.2432 356.65 61.2432C356.108 61.2432 355.709 61.4505 355.454 61.8652C355.199 62.2754 355.064 62.918 355.051 63.793V66.0488C355.051 66.9785 355.181 67.6712 355.44 68.127C355.7 68.5827 356.108 68.8105 356.664 68.8105C357.197 68.8105 357.591 68.6009 357.847 68.1816C358.102 67.7578 358.236 67.097 358.25 66.1992V63.9502Z" fill="#515151"/>
<path d="M375.607 75H373.953V67.0088L371.513 67.8428V66.4414L375.396 65.0127H375.607V75ZM383.564 75H381.91V67.0088L379.47 67.8428V66.4414L383.353 65.0127H383.564V75ZM390.954 70.0645L391.494 65.0469H396.84V66.4824H392.875L392.602 68.8613C393.062 68.597 393.581 68.4648 394.16 68.4648C395.108 68.4648 395.844 68.7679 396.368 69.374C396.897 69.9801 397.161 70.7959 397.161 71.8213C397.161 72.833 396.869 73.6396 396.286 74.2412C395.703 74.8382 394.903 75.1367 393.887 75.1367C392.975 75.1367 392.219 74.8792 391.617 74.3643C391.02 73.8447 390.697 73.1611 390.646 72.3135H392.253C392.317 72.7965 392.49 73.168 392.772 73.4277C393.055 73.6829 393.424 73.8105 393.88 73.8105C394.39 73.8105 394.787 73.6283 395.069 73.2637C395.356 72.8991 395.5 72.4023 395.5 71.7734C395.5 71.1673 395.343 70.6888 395.028 70.3379C394.714 69.9824 394.281 69.8047 393.729 69.8047C393.429 69.8047 393.174 69.8457 392.964 69.9277C392.754 70.0052 392.526 70.1602 392.28 70.3926L390.954 70.0645ZM404.954 70.8096C404.954 72.2406 404.685 73.3206 404.147 74.0498C403.614 74.7744 402.801 75.1367 401.707 75.1367C400.632 75.1367 399.82 74.7835 399.273 74.0771C398.731 73.3662 398.453 72.3158 398.439 70.9258V69.2031C398.439 67.7721 398.706 66.6989 399.239 65.9834C399.777 65.2679 400.595 64.9102 401.693 64.9102C402.783 64.9102 403.594 65.2588 404.127 65.9561C404.665 66.6533 404.94 67.6969 404.954 69.0869V70.8096ZM403.293 68.9502C403.293 68.016 403.165 67.3324 402.91 66.8994C402.655 66.4619 402.249 66.2432 401.693 66.2432C401.151 66.2432 400.752 66.4505 400.497 66.8652C400.242 67.2754 400.107 67.918 400.094 68.793V71.0488C400.094 71.9785 400.224 72.6712 400.483 73.127C400.743 73.5827 401.151 73.8105 401.707 73.8105C402.24 73.8105 402.634 73.6009 402.89 73.1816C403.145 72.7578 403.279 72.097 403.293 71.1992V68.9502ZM412.911 70.8096C412.911 72.2406 412.642 73.3206 412.104 74.0498C411.571 74.7744 410.758 75.1367 409.664 75.1367C408.589 75.1367 407.777 74.7835 407.23 74.0771C406.688 73.3662 406.41 72.3158 406.396 70.9258V69.2031C406.396 67.7721 406.663 66.6989 407.196 65.9834C407.734 65.2679 408.552 64.9102 409.65 64.9102C410.74 64.9102 411.551 65.2588 412.084 65.9561C412.622 66.6533 412.897 67.6969 412.911 69.0869V70.8096ZM411.25 68.9502C411.25 68.016 411.122 67.3324 410.867 66.8994C410.612 66.4619 410.206 66.2432 409.65 66.2432C409.108 66.2432 408.709 66.4505 408.454 66.8652C408.199 67.2754 408.064 67.918 408.051 68.793V71.0488C408.051 71.9785 408.181 72.6712 408.44 73.127C408.7 73.5827 409.108 73.8105 409.664 73.8105C410.197 73.8105 410.591 73.6009 410.847 73.1816C411.102 72.7578 411.236 72.097 411.25 71.1992V68.9502Z" fill="#515151"/>
<path d="M464.586 164H462.932V156.009L460.491 156.843V155.441L464.374 154.013H464.586V164ZM476.699 153.999V155.373H476.494C475.564 155.387 474.822 155.642 474.266 156.139C473.71 156.635 473.379 157.34 473.274 158.251C473.808 157.69 474.489 157.41 475.318 157.41C476.198 157.41 476.891 157.72 477.396 158.34C477.907 158.96 478.162 159.759 478.162 160.739C478.162 161.751 477.864 162.571 477.267 163.2C476.674 163.825 475.895 164.137 474.929 164.137C473.935 164.137 473.129 163.77 472.509 163.036C471.894 162.302 471.586 161.341 471.586 160.151V159.584C471.586 157.839 472.01 156.471 472.857 155.482C473.71 154.493 474.933 153.999 476.528 153.999H476.699ZM474.915 158.75C474.55 158.75 474.215 158.853 473.91 159.058C473.609 159.263 473.388 159.536 473.247 159.878V160.384C473.247 161.122 473.402 161.71 473.712 162.147C474.022 162.58 474.423 162.797 474.915 162.797C475.407 162.797 475.797 162.612 476.084 162.243C476.371 161.874 476.515 161.389 476.515 160.787C476.515 160.186 476.369 159.696 476.077 159.317C475.785 158.939 475.398 158.75 474.915 158.75ZM479.933 159.064L480.473 154.047H485.818V155.482H481.854L481.58 157.861C482.04 157.597 482.56 157.465 483.139 157.465C484.087 157.465 484.823 157.768 485.347 158.374C485.875 158.98 486.14 159.796 486.14 160.821C486.14 161.833 485.848 162.64 485.265 163.241C484.681 163.838 483.882 164.137 482.865 164.137C481.954 164.137 481.197 163.879 480.596 163.364C479.999 162.845 479.675 162.161 479.625 161.313H481.231C481.295 161.797 481.468 162.168 481.751 162.428C482.034 162.683 482.403 162.811 482.858 162.811C483.369 162.811 483.765 162.628 484.048 162.264C484.335 161.899 484.479 161.402 484.479 160.773C484.479 160.167 484.321 159.689 484.007 159.338C483.692 158.982 483.259 158.805 482.708 158.805C482.407 158.805 482.152 158.846 481.942 158.928C481.733 159.005 481.505 159.16 481.259 159.393L479.933 159.064ZM493.933 159.81C493.933 161.241 493.664 162.321 493.126 163.05C492.593 163.774 491.779 164.137 490.686 164.137C489.61 164.137 488.799 163.784 488.252 163.077C487.71 162.366 487.432 161.316 487.418 159.926V158.203C487.418 156.772 487.685 155.699 488.218 154.983C488.756 154.268 489.574 153.91 490.672 153.91C491.761 153.91 492.572 154.259 493.105 154.956C493.643 155.653 493.919 156.697 493.933 158.087V159.81ZM492.271 157.95C492.271 157.016 492.144 156.332 491.889 155.899C491.633 155.462 491.228 155.243 490.672 155.243C490.13 155.243 489.731 155.451 489.476 155.865C489.22 156.275 489.086 156.918 489.072 157.793V160.049C489.072 160.979 489.202 161.671 489.462 162.127C489.722 162.583 490.13 162.811 490.686 162.811C491.219 162.811 491.613 162.601 491.868 162.182C492.123 161.758 492.258 161.097 492.271 160.199V157.95Z" fill="#515151"/>
<path d="M517.586 161H515.932V153.009L513.491 153.843V152.441L517.374 151.013H517.586V161ZM530.8 153.672C530.8 154.16 530.674 154.595 530.424 154.978C530.173 155.356 529.831 155.654 529.398 155.873C529.918 156.115 530.317 156.445 530.595 156.864C530.877 157.284 531.019 157.757 531.019 158.286C531.019 159.161 530.722 159.856 530.13 160.371C529.537 160.882 528.749 161.137 527.765 161.137C526.776 161.137 525.983 160.879 525.386 160.364C524.793 159.849 524.497 159.157 524.497 158.286C524.497 157.753 524.638 157.274 524.921 156.851C525.203 156.427 525.6 156.101 526.11 155.873C525.682 155.654 525.342 155.356 525.092 154.978C524.846 154.595 524.723 154.16 524.723 153.672C524.723 152.824 524.996 152.152 525.543 151.655C526.09 151.159 526.828 150.91 527.758 150.91C528.692 150.91 529.433 151.159 529.979 151.655C530.526 152.152 530.8 152.824 530.8 153.672ZM529.357 158.204C529.357 157.712 529.209 157.315 528.913 157.015C528.621 156.709 528.234 156.557 527.751 156.557C527.268 156.557 526.881 156.707 526.589 157.008C526.302 157.309 526.158 157.707 526.158 158.204C526.158 158.692 526.299 159.081 526.582 159.373C526.869 159.665 527.263 159.811 527.765 159.811C528.266 159.811 528.656 159.669 528.934 159.387C529.216 159.104 529.357 158.71 529.357 158.204ZM529.146 153.733C529.146 153.3 529.02 152.945 528.77 152.667C528.519 152.384 528.182 152.243 527.758 152.243C527.334 152.243 526.999 152.378 526.753 152.646C526.507 152.911 526.384 153.273 526.384 153.733C526.384 154.189 526.507 154.551 526.753 154.82C527.004 155.089 527.341 155.224 527.765 155.224C528.188 155.224 528.523 155.089 528.77 154.82C529.02 154.551 529.146 154.189 529.146 153.733ZM538.976 156.81C538.976 158.241 538.707 159.321 538.169 160.05C537.636 160.774 536.822 161.137 535.729 161.137C534.653 161.137 533.842 160.784 533.295 160.077C532.753 159.366 532.475 158.316 532.461 156.926V155.203C532.461 153.772 532.728 152.699 533.261 151.983C533.799 151.268 534.617 150.91 535.715 150.91C536.804 150.91 537.615 151.259 538.148 151.956C538.686 152.653 538.962 153.697 538.976 155.087V156.81ZM537.314 154.95C537.314 154.016 537.187 153.332 536.932 152.899C536.676 152.462 536.271 152.243 535.715 152.243C535.173 152.243 534.774 152.451 534.519 152.865C534.263 153.275 534.129 153.918 534.115 154.793V157.049C534.115 157.979 534.245 158.671 534.505 159.127C534.765 159.583 535.173 159.811 535.729 159.811C536.262 159.811 536.656 159.601 536.911 159.182C537.166 158.758 537.301 158.097 537.314 157.199V154.95ZM546.933 156.81C546.933 158.241 546.664 159.321 546.126 160.05C545.593 160.774 544.779 161.137 543.686 161.137C542.61 161.137 541.799 160.784 541.252 160.077C540.71 159.366 540.432 158.316 540.418 156.926V155.203C540.418 153.772 540.685 152.699 541.218 151.983C541.756 151.268 542.574 150.91 543.672 150.91C544.761 150.91 545.572 151.259 546.105 151.956C546.643 152.653 546.919 153.697 546.933 155.087V156.81ZM545.271 154.95C545.271 154.016 545.144 153.332 544.889 152.899C544.633 152.462 544.228 152.243 543.672 152.243C543.13 152.243 542.731 152.451 542.476 152.865C542.22 153.275 542.086 153.918 542.072 154.793V157.049C542.072 157.979 542.202 158.671 542.462 159.127C542.722 159.583 543.13 159.811 543.686 159.811C544.219 159.811 544.613 159.601 544.868 159.182C545.123 158.758 545.258 158.097 545.271 157.199V154.95Z" fill="#515151"/>
<path d="M571.586 161H569.932V153.009L567.491 153.843V152.441L571.374 151.013H571.586V161ZM584.8 153.672C584.8 154.16 584.674 154.595 584.424 154.978C584.173 155.356 583.831 155.654 583.398 155.873C583.918 156.115 584.317 156.445 584.595 156.864C584.877 157.284 585.019 157.757 585.019 158.286C585.019 159.161 584.722 159.856 584.13 160.371C583.537 160.882 582.749 161.137 581.765 161.137C580.776 161.137 579.983 160.879 579.386 160.364C578.793 159.849 578.497 159.157 578.497 158.286C578.497 157.753 578.638 157.274 578.921 156.851C579.203 156.427 579.6 156.101 580.11 155.873C579.682 155.654 579.342 155.356 579.092 154.978C578.846 154.595 578.723 154.16 578.723 153.672C578.723 152.824 578.996 152.152 579.543 151.655C580.09 151.159 580.828 150.91 581.758 150.91C582.692 150.91 583.433 151.159 583.979 151.655C584.526 152.152 584.8 152.824 584.8 153.672ZM583.357 158.204C583.357 157.712 583.209 157.315 582.913 157.015C582.621 156.709 582.234 156.557 581.751 156.557C581.268 156.557 580.881 156.707 580.589 157.008C580.302 157.309 580.158 157.707 580.158 158.204C580.158 158.692 580.299 159.081 580.582 159.373C580.869 159.665 581.263 159.811 581.765 159.811C582.266 159.811 582.656 159.669 582.934 159.387C583.216 159.104 583.357 158.71 583.357 158.204ZM583.146 153.733C583.146 153.3 583.02 152.945 582.77 152.667C582.519 152.384 582.182 152.243 581.758 152.243C581.334 152.243 580.999 152.378 580.753 152.646C580.507 152.911 580.384 153.273 580.384 153.733C580.384 154.189 580.507 154.551 580.753 154.82C581.004 155.089 581.341 155.224 581.765 155.224C582.188 155.224 582.523 155.089 582.77 154.82C583.02 154.551 583.146 154.189 583.146 153.733ZM590.986 161H589.332V153.009L586.892 153.843V152.441L590.774 151.013H590.986V161ZM600.933 156.81C600.933 158.241 600.664 159.321 600.126 160.05C599.593 160.774 598.779 161.137 597.686 161.137C596.61 161.137 595.799 160.784 595.252 160.077C594.71 159.366 594.432 158.316 594.418 156.926V155.203C594.418 153.772 594.685 152.699 595.218 151.983C595.756 151.268 596.574 150.91 597.672 150.91C598.761 150.91 599.572 151.259 600.105 151.956C600.643 152.653 600.919 153.697 600.933 155.087V156.81ZM599.271 154.95C599.271 154.016 599.144 153.332 598.889 152.899C598.633 152.462 598.228 152.243 597.672 152.243C597.13 152.243 596.731 152.451 596.476 152.865C596.22 153.275 596.086 153.918 596.072 154.793V157.049C596.072 157.979 596.202 158.671 596.462 159.127C596.722 159.583 597.13 159.811 597.686 159.811C598.219 159.811 598.613 159.601 598.868 159.182C599.123 158.758 599.258 158.097 599.271 157.199V154.95Z" fill="#515151"/>
<path d="M843.434 215.97L839.455 225H837.712L841.684 216.38H836.536V215.047H843.434V215.97ZM845.211 220.064L845.751 215.047H851.097V216.482H847.132L846.858 218.861C847.319 218.597 847.838 218.465 848.417 218.465C849.365 218.465 850.101 218.768 850.625 219.374C851.154 219.98 851.418 220.796 851.418 221.821C851.418 222.833 851.126 223.64 850.543 224.241C849.96 224.838 849.16 225.137 848.144 225.137C847.232 225.137 846.476 224.879 845.874 224.364C845.277 223.845 844.953 223.161 844.903 222.313H846.51C846.574 222.797 846.747 223.168 847.029 223.428C847.312 223.683 847.681 223.811 848.137 223.811C848.647 223.811 849.044 223.628 849.326 223.264C849.613 222.899 849.757 222.402 849.757 221.773C849.757 221.167 849.6 220.689 849.285 220.338C848.971 219.982 848.538 219.805 847.986 219.805C847.686 219.805 847.43 219.846 847.221 219.928C847.011 220.005 846.783 220.16 846.537 220.393L845.211 220.064ZM859.211 220.81C859.211 222.241 858.942 223.321 858.404 224.05C857.871 224.774 857.058 225.137 855.964 225.137C854.888 225.137 854.077 224.784 853.53 224.077C852.988 223.366 852.71 222.316 852.696 220.926V219.203C852.696 217.772 852.963 216.699 853.496 215.983C854.034 215.268 854.852 214.91 855.95 214.91C857.039 214.91 857.851 215.259 858.384 215.956C858.922 216.653 859.197 217.697 859.211 219.087V220.81ZM857.55 218.95C857.55 218.016 857.422 217.332 857.167 216.899C856.912 216.462 856.506 216.243 855.95 216.243C855.408 216.243 855.009 216.451 854.754 216.865C854.499 217.275 854.364 217.918 854.351 218.793V221.049C854.351 221.979 854.48 222.671 854.74 223.127C855 223.583 855.408 223.811 855.964 223.811C856.497 223.811 856.891 223.601 857.146 223.182C857.402 222.758 857.536 222.097 857.55 221.199V218.95Z" fill="#515151"/>
<path d="M887.078 198.672C887.078 199.16 886.953 199.595 886.702 199.978C886.451 200.356 886.11 200.654 885.677 200.873C886.196 201.115 886.595 201.445 886.873 201.864C887.156 202.284 887.297 202.757 887.297 203.286C887.297 204.161 887.001 204.856 886.408 205.371C885.816 205.882 885.027 206.137 884.043 206.137C883.054 206.137 882.261 205.879 881.664 205.364C881.072 204.849 880.775 204.157 880.775 203.286C880.775 202.753 880.917 202.274 881.199 201.851C881.482 201.427 881.878 201.101 882.389 200.873C881.96 200.654 881.621 200.356 881.37 199.978C881.124 199.595 881.001 199.16 881.001 198.672C881.001 197.824 881.274 197.152 881.821 196.655C882.368 196.159 883.106 195.91 884.036 195.91C884.97 195.91 885.711 196.159 886.258 196.655C886.805 197.152 887.078 197.824 887.078 198.672ZM885.636 203.204C885.636 202.712 885.488 202.315 885.191 202.015C884.9 201.709 884.512 201.557 884.029 201.557C883.546 201.557 883.159 201.707 882.867 202.008C882.58 202.309 882.437 202.707 882.437 203.204C882.437 203.692 882.578 204.081 882.86 204.373C883.147 204.665 883.542 204.811 884.043 204.811C884.544 204.811 884.934 204.669 885.212 204.387C885.494 204.104 885.636 203.71 885.636 203.204ZM885.424 198.733C885.424 198.3 885.299 197.945 885.048 197.667C884.797 197.384 884.46 197.243 884.036 197.243C883.612 197.243 883.277 197.378 883.031 197.646C882.785 197.911 882.662 198.273 882.662 198.733C882.662 199.189 882.785 199.551 883.031 199.82C883.282 200.089 883.619 200.224 884.043 200.224C884.467 200.224 884.802 200.089 885.048 199.82C885.299 199.551 885.424 199.189 885.424 198.733ZM889.211 201.064L889.751 196.047H895.097V197.482H891.132L890.858 199.861C891.319 199.597 891.838 199.465 892.417 199.465C893.365 199.465 894.101 199.768 894.625 200.374C895.154 200.98 895.418 201.796 895.418 202.821C895.418 203.833 895.126 204.64 894.543 205.241C893.96 205.838 893.16 206.137 892.144 206.137C891.232 206.137 890.476 205.879 889.874 205.364C889.277 204.845 888.953 204.161 888.903 203.313H890.51C890.574 203.797 890.747 204.168 891.029 204.428C891.312 204.683 891.681 204.811 892.137 204.811C892.647 204.811 893.044 204.628 893.326 204.264C893.613 203.899 893.757 203.402 893.757 202.773C893.757 202.167 893.6 201.689 893.285 201.338C892.971 200.982 892.538 200.805 891.986 200.805C891.686 200.805 891.43 200.846 891.221 200.928C891.011 201.005 890.783 201.16 890.537 201.393L889.211 201.064ZM903.211 201.81C903.211 203.241 902.942 204.321 902.404 205.05C901.871 205.774 901.058 206.137 899.964 206.137C898.888 206.137 898.077 205.784 897.53 205.077C896.988 204.366 896.71 203.316 896.696 201.926V200.203C896.696 198.772 896.963 197.699 897.496 196.983C898.034 196.268 898.852 195.91 899.95 195.91C901.039 195.91 901.851 196.259 902.384 196.956C902.922 197.653 903.197 198.697 903.211 200.087V201.81ZM901.55 199.95C901.55 199.016 901.422 198.332 901.167 197.899C900.912 197.462 900.506 197.243 899.95 197.243C899.408 197.243 899.009 197.451 898.754 197.865C898.499 198.275 898.364 198.918 898.351 199.793V202.049C898.351 202.979 898.48 203.671 898.74 204.127C899 204.583 899.408 204.811 899.964 204.811C900.497 204.811 900.891 204.601 901.146 204.182C901.402 203.758 901.536 203.097 901.55 202.199V199.95Z" fill="#515151"/>
<path d="M931.434 216.97L927.455 226H925.712L929.684 217.38H924.536V216.047H931.434V216.97ZM933.211 221.064L933.751 216.047H939.097V217.482H935.132L934.858 219.861C935.319 219.597 935.838 219.465 936.417 219.465C937.365 219.465 938.101 219.768 938.625 220.374C939.154 220.98 939.418 221.796 939.418 222.821C939.418 223.833 939.126 224.64 938.543 225.241C937.96 225.838 937.16 226.137 936.144 226.137C935.232 226.137 934.476 225.879 933.874 225.364C933.277 224.845 932.953 224.161 932.903 223.313H934.51C934.574 223.797 934.747 224.168 935.029 224.428C935.312 224.683 935.681 224.811 936.137 224.811C936.647 224.811 937.044 224.628 937.326 224.264C937.613 223.899 937.757 223.402 937.757 222.773C937.757 222.167 937.6 221.689 937.285 221.338C936.971 220.982 936.538 220.805 935.986 220.805C935.686 220.805 935.43 220.846 935.221 220.928C935.011 221.005 934.783 221.16 934.537 221.393L933.211 221.064ZM947.211 221.81C947.211 223.241 946.942 224.321 946.404 225.05C945.871 225.774 945.058 226.137 943.964 226.137C942.888 226.137 942.077 225.784 941.53 225.077C940.988 224.366 940.71 223.316 940.696 221.926V220.203C940.696 218.772 940.963 217.699 941.496 216.983C942.034 216.268 942.852 215.91 943.95 215.91C945.039 215.91 945.851 216.259 946.384 216.956C946.922 217.653 947.197 218.697 947.211 220.087V221.81ZM945.55 219.95C945.55 219.016 945.422 218.332 945.167 217.899C944.912 217.462 944.506 217.243 943.95 217.243C943.408 217.243 943.009 217.451 942.754 217.865C942.499 218.275 942.364 218.918 942.351 219.793V222.049C942.351 222.979 942.48 223.671 942.74 224.127C943 224.583 943.408 224.811 943.964 224.811C944.497 224.811 944.891 224.601 945.146 224.182C945.402 223.758 945.536 223.097 945.55 222.199V219.95Z" fill="#515151"/>
<path d="M1005.59 157H1003.93V149.009L1001.49 149.843V148.441L1005.37 147.013H1005.59V157ZM1018.15 153.452H1019.39V154.785H1018.15V157H1016.49V154.785H1012.19L1012.14 153.773L1016.43 147.047H1018.15V153.452ZM1013.88 153.452H1016.49V149.296L1016.37 149.515L1013.88 153.452ZM1026.98 152.81C1026.98 154.241 1026.71 155.321 1026.17 156.05C1025.64 156.774 1024.82 157.137 1023.73 157.137C1022.65 157.137 1021.84 156.784 1021.29 156.077C1020.75 155.366 1020.47 154.316 1020.46 152.926V151.203C1020.46 149.772 1020.73 148.699 1021.26 147.983C1021.8 147.268 1022.62 146.91 1023.71 146.91C1024.8 146.91 1025.62 147.259 1026.15 147.956C1026.69 148.653 1026.96 149.697 1026.98 151.087V152.81ZM1025.31 150.95C1025.31 150.016 1025.19 149.332 1024.93 148.899C1024.68 148.462 1024.27 148.243 1023.71 148.243C1023.17 148.243 1022.77 148.451 1022.52 148.865C1022.26 149.275 1022.13 149.918 1022.12 150.793V153.049C1022.12 153.979 1022.25 154.671 1022.5 155.127C1022.76 155.583 1023.17 155.811 1023.73 155.811C1024.26 155.811 1024.66 155.601 1024.91 155.182C1025.17 154.758 1025.3 154.097 1025.31 153.199V150.95ZM1034.93 152.81C1034.93 154.241 1034.66 155.321 1034.13 156.05C1033.59 156.774 1032.78 157.137 1031.69 157.137C1030.61 157.137 1029.8 156.784 1029.25 156.077C1028.71 155.366 1028.43 154.316 1028.42 152.926V151.203C1028.42 149.772 1028.68 148.699 1029.22 147.983C1029.76 147.268 1030.57 146.91 1031.67 146.91C1032.76 146.91 1033.57 147.259 1034.11 147.956C1034.64 148.653 1034.92 149.697 1034.93 151.087V152.81ZM1033.27 150.95C1033.27 150.016 1033.14 149.332 1032.89 148.899C1032.63 148.462 1032.23 148.243 1031.67 148.243C1031.13 148.243 1030.73 148.451 1030.48 148.865C1030.22 149.275 1030.09 149.918 1030.07 150.793V153.049C1030.07 153.979 1030.2 154.671 1030.46 155.127C1030.72 155.583 1031.13 155.811 1031.69 155.811C1032.22 155.811 1032.61 155.601 1032.87 155.182C1033.12 154.758 1033.26 154.097 1033.27 153.199V150.95Z" fill="#515151"/>
<path d="M1049.59 152H1047.93V144.009L1045.49 144.843V143.441L1049.37 142.013H1049.59V152ZM1056.98 147.064L1057.52 142.047H1062.86V143.482H1058.9L1058.62 145.861C1059.08 145.597 1059.6 145.465 1060.18 145.465C1061.13 145.465 1061.87 145.768 1062.39 146.374C1062.92 146.98 1063.18 147.796 1063.18 148.821C1063.18 149.833 1062.89 150.64 1062.31 151.241C1061.72 151.838 1060.92 152.137 1059.91 152.137C1059 152.137 1058.24 151.879 1057.64 151.364C1057.04 150.845 1056.72 150.161 1056.67 149.313H1058.27C1058.34 149.797 1058.51 150.168 1058.79 150.428C1059.08 150.683 1059.45 150.811 1059.9 150.811C1060.41 150.811 1060.81 150.628 1061.09 150.264C1061.38 149.899 1061.52 149.402 1061.52 148.773C1061.52 148.167 1061.36 147.689 1061.05 147.338C1060.74 146.982 1060.3 146.805 1059.75 146.805C1059.45 146.805 1059.19 146.846 1058.99 146.928C1058.78 147.005 1058.55 147.16 1058.3 147.393L1056.98 147.064ZM1070.98 147.81C1070.98 149.241 1070.71 150.321 1070.17 151.05C1069.64 151.774 1068.82 152.137 1067.73 152.137C1066.65 152.137 1065.84 151.784 1065.29 151.077C1064.75 150.366 1064.47 149.316 1064.46 147.926V146.203C1064.46 144.772 1064.73 143.699 1065.26 142.983C1065.8 142.268 1066.62 141.91 1067.71 141.91C1068.8 141.91 1069.62 142.259 1070.15 142.956C1070.69 143.653 1070.96 144.697 1070.98 146.087V147.81ZM1069.31 145.95C1069.31 145.016 1069.19 144.332 1068.93 143.899C1068.68 143.462 1068.27 143.243 1067.71 143.243C1067.17 143.243 1066.77 143.451 1066.52 143.865C1066.26 144.275 1066.13 144.918 1066.12 145.793V148.049C1066.12 148.979 1066.25 149.671 1066.5 150.127C1066.76 150.583 1067.17 150.811 1067.73 150.811C1068.26 150.811 1068.66 150.601 1068.91 150.182C1069.17 149.758 1069.3 149.097 1069.31 148.199V145.95ZM1078.93 147.81C1078.93 149.241 1078.66 150.321 1078.13 151.05C1077.59 151.774 1076.78 152.137 1075.69 152.137C1074.61 152.137 1073.8 151.784 1073.25 151.077C1072.71 150.366 1072.43 149.316 1072.42 147.926V146.203C1072.42 144.772 1072.68 143.699 1073.22 142.983C1073.76 142.268 1074.57 141.91 1075.67 141.91C1076.76 141.91 1077.57 142.259 1078.11 142.956C1078.64 143.653 1078.92 144.697 1078.93 146.087V147.81ZM1077.27 145.95C1077.27 145.016 1077.14 144.332 1076.89 143.899C1076.63 143.462 1076.23 143.243 1075.67 143.243C1075.13 143.243 1074.73 143.451 1074.48 143.865C1074.22 144.275 1074.09 144.918 1074.07 145.793V148.049C1074.07 148.979 1074.2 149.671 1074.46 150.127C1074.72 150.583 1075.13 150.811 1075.69 150.811C1076.22 150.811 1076.61 150.601 1076.87 150.182C1077.12 149.758 1077.26 149.097 1077.27 148.199V145.95Z" fill="#515151"/>
<path d="M1093.59 152H1091.93V144.009L1089.49 144.843V143.441L1093.37 142.013H1093.59V152ZM1100.98 147.064L1101.52 142.047H1106.86V143.482H1102.9L1102.62 145.861C1103.08 145.597 1103.6 145.465 1104.18 145.465C1105.13 145.465 1105.87 145.768 1106.39 146.374C1106.92 146.98 1107.18 147.796 1107.18 148.821C1107.18 149.833 1106.89 150.64 1106.31 151.241C1105.72 151.838 1104.92 152.137 1103.91 152.137C1103 152.137 1102.24 151.879 1101.64 151.364C1101.04 150.845 1100.72 150.161 1100.67 149.313H1102.27C1102.34 149.797 1102.51 150.168 1102.79 150.428C1103.08 150.683 1103.45 150.811 1103.9 150.811C1104.41 150.811 1104.81 150.628 1105.09 150.264C1105.38 149.899 1105.52 149.402 1105.52 148.773C1105.52 148.167 1105.36 147.689 1105.05 147.338C1104.74 146.982 1104.3 146.805 1103.75 146.805C1103.45 146.805 1103.19 146.846 1102.99 146.928C1102.78 147.005 1102.55 147.16 1102.3 147.393L1100.98 147.064ZM1114.11 148.452H1115.34V149.785H1114.11V152H1112.45V149.785H1108.15L1108.1 148.773L1112.39 142.047H1114.11V148.452ZM1109.84 148.452H1112.45V144.296L1112.32 144.515L1109.84 148.452ZM1122.93 147.81C1122.93 149.241 1122.66 150.321 1122.13 151.05C1121.59 151.774 1120.78 152.137 1119.69 152.137C1118.61 152.137 1117.8 151.784 1117.25 151.077C1116.71 150.366 1116.43 149.316 1116.42 147.926V146.203C1116.42 144.772 1116.68 143.699 1117.22 142.983C1117.76 142.268 1118.57 141.91 1119.67 141.91C1120.76 141.91 1121.57 142.259 1122.11 142.956C1122.64 143.653 1122.92 144.697 1122.93 146.087V147.81ZM1121.27 145.95C1121.27 145.016 1121.14 144.332 1120.89 143.899C1120.63 143.462 1120.23 143.243 1119.67 143.243C1119.13 143.243 1118.73 143.451 1118.48 143.865C1118.22 144.275 1118.09 144.918 1118.07 145.793V148.049C1118.07 148.979 1118.2 149.671 1118.46 150.127C1118.72 150.583 1119.13 150.811 1119.69 150.811C1120.22 150.811 1120.61 150.601 1120.87 150.182C1121.12 149.758 1121.26 149.097 1121.27 148.199V145.95Z" fill="#515151"/>
<path d="M659.73 246.265H660.742C661.253 246.26 661.656 246.128 661.952 245.868C662.253 245.608 662.403 245.232 662.403 244.74C662.403 244.266 662.278 243.899 662.027 243.64C661.781 243.375 661.403 243.243 660.893 243.243C660.446 243.243 660.079 243.373 659.792 243.633C659.505 243.888 659.361 244.223 659.361 244.638H657.7C657.7 244.127 657.835 243.662 658.104 243.243C658.377 242.824 658.755 242.498 659.238 242.266C659.726 242.029 660.271 241.91 660.872 241.91C661.866 241.91 662.645 242.161 663.21 242.662C663.78 243.159 664.064 243.852 664.064 244.74C664.064 245.187 663.921 245.608 663.634 246.005C663.351 246.397 662.984 246.693 662.533 246.894C663.08 247.08 663.495 247.374 663.777 247.775C664.064 248.176 664.208 248.655 664.208 249.211C664.208 250.104 663.9 250.815 663.285 251.344C662.674 251.872 661.87 252.137 660.872 252.137C659.915 252.137 659.131 251.882 658.521 251.371C657.91 250.861 657.604 250.182 657.604 249.334H659.266C659.266 249.771 659.411 250.127 659.703 250.4C659.999 250.674 660.396 250.811 660.893 250.811C661.408 250.811 661.813 250.674 662.109 250.4C662.406 250.127 662.554 249.73 662.554 249.211C662.554 248.687 662.399 248.284 662.089 248.001C661.779 247.718 661.319 247.577 660.708 247.577H659.73V246.265ZM666.211 247.064L666.751 242.047H672.097V243.482H668.132L667.858 245.861C668.319 245.597 668.838 245.465 669.417 245.465C670.365 245.465 671.101 245.768 671.625 246.374C672.154 246.98 672.418 247.796 672.418 248.821C672.418 249.833 672.126 250.64 671.543 251.241C670.96 251.838 670.16 252.137 669.144 252.137C668.232 252.137 667.476 251.879 666.874 251.364C666.277 250.845 665.953 250.161 665.903 249.313H667.51C667.574 249.797 667.747 250.168 668.029 250.428C668.312 250.683 668.681 250.811 669.137 250.811C669.647 250.811 670.044 250.628 670.326 250.264C670.613 249.899 670.757 249.402 670.757 248.773C670.757 248.167 670.6 247.689 670.285 247.338C669.971 246.982 669.538 246.805 668.986 246.805C668.686 246.805 668.43 246.846 668.221 246.928C668.011 247.005 667.783 247.16 667.537 247.393L666.211 247.064ZM680.211 247.81C680.211 249.241 679.942 250.321 679.404 251.05C678.871 251.774 678.058 252.137 676.964 252.137C675.888 252.137 675.077 251.784 674.53 251.077C673.988 250.366 673.71 249.316 673.696 247.926V246.203C673.696 244.772 673.963 243.699 674.496 242.983C675.034 242.268 675.852 241.91 676.95 241.91C678.039 241.91 678.851 242.259 679.384 242.956C679.922 243.653 680.197 244.697 680.211 246.087V247.81ZM678.55 245.95C678.55 245.016 678.422 244.332 678.167 243.899C677.912 243.462 677.506 243.243 676.95 243.243C676.408 243.243 676.009 243.451 675.754 243.865C675.499 244.275 675.364 244.918 675.351 245.793V248.049C675.351 248.979 675.48 249.671 675.74 250.127C676 250.583 676.408 250.811 676.964 250.811C677.497 250.811 677.891 250.601 678.146 250.182C678.402 249.758 678.536 249.097 678.55 248.199V245.95Z" fill="#515151"/>
<path d="M707.429 237.452H708.666V238.785H707.429V241H705.768V238.785H701.468L701.42 237.773L705.713 231.047H707.429V237.452ZM703.163 237.452H705.768V233.296L705.645 233.515L703.163 237.452ZM716.254 236.81C716.254 238.241 715.985 239.321 715.447 240.05C714.914 240.774 714.101 241.137 713.007 241.137C711.931 241.137 711.12 240.784 710.573 240.077C710.031 239.366 709.753 238.316 709.739 236.926V235.203C709.739 233.772 710.006 232.699 710.539 231.983C711.077 231.268 711.895 230.91 712.993 230.91C714.082 230.91 714.894 231.259 715.427 231.956C715.965 232.653 716.24 233.697 716.254 235.087V236.81ZM714.593 234.95C714.593 234.016 714.465 233.332 714.21 232.899C713.955 232.462 713.549 232.243 712.993 232.243C712.451 232.243 712.052 232.451 711.797 232.865C711.542 233.275 711.407 233.918 711.394 234.793V237.049C711.394 237.979 711.523 238.671 711.783 239.127C712.043 239.583 712.451 239.811 713.007 239.811C713.54 239.811 713.934 239.601 714.189 239.182C714.445 238.758 714.579 238.097 714.593 237.199V234.95ZM724.211 236.81C724.211 238.241 723.942 239.321 723.404 240.05C722.871 240.774 722.058 241.137 720.964 241.137C719.888 241.137 719.077 240.784 718.53 240.077C717.988 239.366 717.71 238.316 717.696 236.926V235.203C717.696 233.772 717.963 232.699 718.496 231.983C719.034 231.268 719.852 230.91 720.95 230.91C722.039 230.91 722.851 231.259 723.384 231.956C723.922 232.653 724.197 233.697 724.211 235.087V236.81ZM722.55 234.95C722.55 234.016 722.422 233.332 722.167 232.899C721.912 232.462 721.506 232.243 720.95 232.243C720.408 232.243 720.009 232.451 719.754 232.865C719.499 233.275 719.364 233.918 719.351 234.793V237.049C719.351 237.979 719.48 238.671 719.74 239.127C720 239.583 720.408 239.811 720.964 239.811C721.497 239.811 721.891 239.601 722.146 239.182C722.402 238.758 722.536 238.097 722.55 237.199V234.95Z" fill="#515151"/>
<path d="M751.429 238.452H752.666V239.785H751.429V242H749.768V239.785H745.468L745.42 238.773L749.713 232.047H751.429V238.452ZM747.163 238.452H749.768V234.296L749.645 234.515L747.163 238.452ZM760.254 237.81C760.254 239.241 759.985 240.321 759.447 241.05C758.914 241.774 758.101 242.137 757.007 242.137C755.931 242.137 755.12 241.784 754.573 241.077C754.031 240.366 753.753 239.316 753.739 237.926V236.203C753.739 234.772 754.006 233.699 754.539 232.983C755.077 232.268 755.895 231.91 756.993 231.91C758.082 231.91 758.894 232.259 759.427 232.956C759.965 233.653 760.24 234.697 760.254 236.087V237.81ZM758.593 235.95C758.593 235.016 758.465 234.332 758.21 233.899C757.955 233.462 757.549 233.243 756.993 233.243C756.451 233.243 756.052 233.451 755.797 233.865C755.542 234.275 755.407 234.918 755.394 235.793V238.049C755.394 238.979 755.523 239.671 755.783 240.127C756.043 240.583 756.451 240.811 757.007 240.811C757.54 240.811 757.934 240.601 758.189 240.182C758.445 239.758 758.579 239.097 758.593 238.199V235.95ZM768.348 232.97L764.369 242H762.626L766.598 233.38H761.45V232.047H768.348V232.97Z" fill="#515151"/>
<rect x="96" y="171" width="28" height="164" fill="#9966FF"/>
<rect x="140" y="166" width="28" height="169" fill="#EF7F17"/>
<rect x="184" y="166" width="28" height="169" fill="#2FD85E"/>
<rect x="657" y="262" width="28" height="74" fill="#9966FF"/>
<rect x="701" y="252" width="28" height="84" fill="#EF7F17"/>
<rect x="745" y="252" width="28" height="84" fill="#2FD85E"/>
<rect x="832" y="238.74" width="28" height="96.2597" fill="#9966FF"/>
<rect x="876" y="219" width="28" height="116" fill="#EF7F17"/>
<rect x="920" y="239" width="28" height="96" fill="#2FD85E"/>
<rect x="1004" y="166" width="28" height="169" fill="#9966FF"/>
<rect x="1048" y="163" width="28" height="172" fill="#EF7F17"/>
<rect x="1092" y="161" width="28" height="174" fill="#2FD85E"/>
<rect x="271" y="87" width="28" height="250" fill="#9966FF"/>
<rect x="324" y="78" width="28" height="259" fill="#EF7F17"/>
<rect x="377" y="83" width="28" height="254" fill="#2FD85E"/>
<rect x="464" y="170" width="28" height="165" fill="#9966FF"/>
<rect x="517" y="167" width="28" height="168" fill="#EF7F17"/>
<rect x="570" y="167" width="28" height="168" fill="#2FD85E"/>
</svg>
