<svg width="540" height="32" viewBox="0 0 540 32" fill="none" xmlns="http://www.w3.org/2000/svg">
<line y1="4" x2="90" y2="4" stroke="#9966FF" stroke-width="8"/>
<path d="M12.5547 30.7891H11.0625V28H2.89844V30.7969H1.39844L1.39062 26.7734H2.32031C2.8099 26.2214 3.19792 25.4818 3.48438 24.5547C3.77604 23.6224 3.95833 22.6016 4.03125 21.4922L4.28125 16.625H11.0859V26.7734H12.5703L12.5547 30.7891ZM4.03125 26.7734H9.57812V17.8594H5.72656L5.5625 21.2031C5.49479 22.5104 5.32031 23.625 5.03906 24.5469C4.76302 25.4688 4.42708 26.2109 4.03125 26.7734ZM21.1797 19.5469V28H19.7266V20.7422H16.8516L16.6797 23.9062C16.5859 25.3594 16.3411 26.3984 15.9453 27.0234C15.5547 27.6484 14.9323 27.974 14.0781 28H13.5V26.7266L13.9141 26.6953C14.3828 26.6432 14.7188 26.3724 14.9219 25.8828C15.125 25.3932 15.2552 24.487 15.3125 23.1641L15.4688 19.5469H21.1797ZM29.9609 19.5469V28H28.5078V24.7109H26.3281L24.3359 28H22.7734L24.8984 24.4922C24.3568 24.2943 23.9401 23.9896 23.6484 23.5781C23.362 23.1615 23.2188 22.6771 23.2188 22.125C23.2188 21.3542 23.5078 20.7344 24.0859 20.2656C24.6641 19.7917 25.4375 19.5521 26.4062 19.5469H29.9609ZM24.6719 22.1406C24.6719 22.5521 24.8125 22.8854 25.0938 23.1406C25.375 23.3906 25.7474 23.5182 26.2109 23.5234H28.5078V20.7188H26.4297C25.8932 20.7188 25.4661 20.8516 25.1484 21.1172C24.8307 21.3776 24.6719 21.7188 24.6719 22.1406ZM43.3906 23.8672C43.3906 25.1536 43.0964 26.1901 42.5078 26.9766C41.9193 27.763 41.1224 28.1562 40.1172 28.1562C39.0911 28.1562 38.2839 27.8307 37.6953 27.1797V31.25H36.25V19.5469H37.5703L37.6406 20.4844C38.2292 19.7552 39.0469 19.3906 40.0938 19.3906C41.1094 19.3906 41.9115 19.7734 42.5 20.5391C43.0938 21.3047 43.3906 22.3698 43.3906 23.7344V23.8672ZM41.9453 23.7031C41.9453 22.75 41.7422 21.9974 41.3359 21.4453C40.9297 20.8932 40.3724 20.6172 39.6641 20.6172C38.7891 20.6172 38.1328 21.0052 37.6953 21.7812V25.8203C38.1276 26.5911 38.7891 26.9766 39.6797 26.9766C40.3724 26.9766 40.9219 26.7031 41.3281 26.1562C41.7396 25.6042 41.9453 24.7865 41.9453 23.7031ZM48.7422 28.1562C47.5964 28.1562 46.6641 27.7812 45.9453 27.0312C45.2266 26.276 44.8672 25.2682 44.8672 24.0078V23.7422C44.8672 22.9036 45.026 22.1562 45.3438 21.5C45.6667 20.8385 46.1146 20.3229 46.6875 19.9531C47.2656 19.5781 47.8906 19.3906 48.5625 19.3906C49.6615 19.3906 50.5156 19.7526 51.125 20.4766C51.7344 21.2005 52.0391 22.237 52.0391 23.5859V24.1875H46.3125C46.3333 25.0208 46.5755 25.6953 47.0391 26.2109C47.5078 26.7214 48.1016 26.9766 48.8203 26.9766C49.3307 26.9766 49.763 26.8724 50.1172 26.6641C50.4714 26.4557 50.7812 26.1797 51.0469 25.8359L51.9297 26.5234C51.2214 27.612 50.1589 28.1562 48.7422 28.1562ZM48.5625 20.5781C47.9792 20.5781 47.4896 20.7917 47.0938 21.2188C46.6979 21.6406 46.4531 22.2344 46.3594 23H50.5938V22.8906C50.5521 22.1562 50.3542 21.5885 50 21.1875C49.6458 20.7812 49.1667 20.5781 48.5625 20.5781ZM58.3672 21.8594C58.3672 21.4635 58.2161 21.151 57.9141 20.9219C57.612 20.6875 57.1979 20.5703 56.6719 20.5703C56.1615 20.5703 55.7344 20.7031 55.3906 20.9688C55.0521 21.2344 54.8828 21.5469 54.8828 21.9062H53.4453C53.4453 21.1719 53.7526 20.5703 54.3672 20.1016C54.9818 19.6328 55.75 19.3984 56.6719 19.3984C57.6615 19.3984 58.4323 19.612 58.9844 20.0391C59.5365 20.4609 59.8125 21.0651 59.8125 21.8516C59.8125 22.2318 59.6979 22.5807 59.4688 22.8984C59.2396 23.2161 58.9141 23.4688 58.4922 23.6562C59.4766 23.9896 59.9688 24.6458 59.9688 25.625C59.9688 26.401 59.6693 27.0156 59.0703 27.4688C58.4714 27.9219 57.6719 28.1484 56.6719 28.1484C55.6979 28.1484 54.8932 27.9115 54.2578 27.4375C53.6276 26.9583 53.3125 26.3125 53.3125 25.5H54.75C54.75 25.9115 54.9323 26.2656 55.2969 26.5625C55.6667 26.8542 56.125 27 56.6719 27C57.224 27 57.6693 26.8724 58.0078 26.6172C58.3464 26.362 58.5156 26.0312 58.5156 25.625C58.5156 25.151 58.3724 24.8125 58.0859 24.6094C57.8047 24.401 57.3646 24.2969 56.7656 24.2969H55.3203V23.0781H56.8906C57.875 23.0521 58.3672 22.6458 58.3672 21.8594ZM67.3125 19.5469H68.7578V28H67.3125V21.8359L63.4141 28H61.9688V19.5469H63.4141V25.7188L67.3125 19.5469ZM71.0078 26.8203L71.5078 26.2031C72.0703 25.474 72.3906 24.3802 72.4688 22.9219L72.6016 19.5469H78.0469V26.8203H79.1328V30.4844H77.6875V28H71.7891V30.4844H70.3438L70.3516 26.8203H71.0078ZM72.7188 26.8203H76.6016V20.8828H74L73.9141 22.8984C73.8255 24.5807 73.4271 25.888 72.7188 26.8203ZM84.2422 28.1562C83.0964 28.1562 82.1641 27.7812 81.4453 27.0312C80.7266 26.276 80.3672 25.2682 80.3672 24.0078V23.7422C80.3672 22.9036 80.526 22.1562 80.8438 21.5C81.1667 20.8385 81.6146 20.3229 82.1875 19.9531C82.7656 19.5781 83.3906 19.3906 84.0625 19.3906C85.1615 19.3906 86.0156 19.7526 86.625 20.4766C87.2344 21.2005 87.5391 22.237 87.5391 23.5859V24.1875H81.8125C81.8333 25.0208 82.0755 25.6953 82.5391 26.2109C83.0078 26.7214 83.6016 26.9766 84.3203 26.9766C84.8307 26.9766 85.263 26.8724 85.6172 26.6641C85.9714 26.4557 86.2812 26.1797 86.5469 25.8359L87.4297 26.5234C86.7214 27.612 85.6589 28.1562 84.2422 28.1562ZM84.0625 20.5781C83.4792 20.5781 82.9896 20.7917 82.5938 21.2188C82.1979 21.6406 81.9531 22.2344 81.8594 23H86.0938V22.8906C86.0521 22.1562 85.8542 21.5885 85.5 21.1875C85.1458 20.7812 84.6667 20.5781 84.0625 20.5781ZM96.125 28H94.6797V24.3906H90.7969V28H89.3438V19.5469H90.7969V23.2109H94.6797V19.5469H96.125V28ZM104.734 20.7188H101.898V28H100.453V20.7188H97.6719V19.5469H104.734V20.7188ZM105.43 23.6953C105.43 22.8672 105.591 22.1224 105.914 21.4609C106.242 20.7995 106.695 20.2891 107.273 19.9297C107.857 19.5703 108.521 19.3906 109.266 19.3906C110.417 19.3906 111.346 19.7891 112.055 20.5859C112.768 21.3828 113.125 22.4427 113.125 23.7656V23.8672C113.125 24.6901 112.966 25.4297 112.648 26.0859C112.336 26.737 111.885 27.2448 111.297 27.6094C110.714 27.974 110.042 28.1562 109.281 28.1562C108.135 28.1562 107.206 27.7578 106.492 26.9609C105.784 26.1641 105.43 25.1094 105.43 23.7969V23.6953ZM106.883 23.8672C106.883 24.8047 107.099 25.5573 107.531 26.125C107.969 26.6927 108.552 26.9766 109.281 26.9766C110.016 26.9766 110.599 26.6901 111.031 26.1172C111.464 25.5391 111.68 24.7318 111.68 23.6953C111.68 22.7682 111.458 22.0182 111.016 21.4453C110.578 20.8672 109.995 20.5781 109.266 20.5781C108.552 20.5781 107.977 20.862 107.539 21.4297C107.102 21.9974 106.883 22.8099 106.883 23.8672ZM115.07 28V19.5469H118.367C119.492 19.5469 120.354 19.7448 120.953 20.1406C121.557 20.5312 121.859 21.1068 121.859 21.8672C121.859 22.2578 121.742 22.612 121.508 22.9297C121.273 23.2422 120.927 23.4818 120.469 23.6484C120.979 23.7682 121.388 24.0026 121.695 24.3516C122.008 24.7005 122.164 25.1172 122.164 25.6016C122.164 26.3776 121.878 26.9714 121.305 27.3828C120.737 27.7943 119.932 28 118.891 28H115.07ZM116.516 24.2891V26.8359H118.906C119.51 26.8359 119.961 26.724 120.258 26.5C120.56 26.276 120.711 25.9609 120.711 25.5547C120.711 24.7109 120.091 24.2891 118.852 24.2891H116.516ZM116.516 23.1328H118.383C119.737 23.1328 120.414 22.737 120.414 21.9453C120.414 21.1536 119.773 20.7448 118.492 20.7188H116.516V23.1328ZM130.211 16.625L133.93 25.9062L137.648 16.625H139.594V28H138.094V23.5703L138.234 18.7891L134.5 28H133.352L129.625 18.8125L129.773 23.5703V28H128.273V16.625H130.211ZM143.586 28H142.141V19.5469H143.586V28ZM142.023 17.3047C142.023 17.0703 142.094 16.8724 142.234 16.7109C142.38 16.5495 142.594 16.4688 142.875 16.4688C143.156 16.4688 143.37 16.5495 143.516 16.7109C143.661 16.8724 143.734 17.0703 143.734 17.3047C143.734 17.5391 143.661 17.7344 143.516 17.8906C143.37 18.0469 143.156 18.125 142.875 18.125C142.594 18.125 142.38 18.0469 142.234 17.8906C142.094 17.7344 142.023 17.5391 142.023 17.3047ZM147.477 28H146.031V16H147.477V28ZM151.367 28H149.922V16H151.367V28ZM158.906 28C158.823 27.8333 158.755 27.5365 158.703 27.1094C158.031 27.8073 157.229 28.1562 156.297 28.1562C155.464 28.1562 154.779 27.9219 154.242 27.4531C153.711 26.9792 153.445 26.3802 153.445 25.6562C153.445 24.776 153.779 24.0938 154.445 23.6094C155.117 23.1198 156.06 22.875 157.273 22.875H158.68V22.2109C158.68 21.7057 158.529 21.3047 158.227 21.0078C157.924 20.7057 157.479 20.5547 156.891 20.5547C156.375 20.5547 155.943 20.6849 155.594 20.9453C155.245 21.2057 155.07 21.5208 155.07 21.8906H153.617C153.617 21.4688 153.766 21.0625 154.062 20.6719C154.365 20.276 154.771 19.9635 155.281 19.7344C155.797 19.5052 156.362 19.3906 156.977 19.3906C157.951 19.3906 158.714 19.6354 159.266 20.125C159.818 20.6094 160.104 21.2786 160.125 22.1328V26.0234C160.125 26.7995 160.224 27.4167 160.422 27.875V28H158.906ZM156.508 26.8984C156.961 26.8984 157.391 26.7812 157.797 26.5469C158.203 26.3125 158.497 26.0078 158.68 25.6328V23.8984H157.547C155.776 23.8984 154.891 24.4167 154.891 25.4531C154.891 25.9062 155.042 26.2604 155.344 26.5156C155.646 26.7708 156.034 26.8984 156.508 26.8984ZM165.227 22.6328L167.102 19.5469H168.789L166.023 23.7266L168.875 28H167.203L165.25 24.8359L163.297 28H161.617L164.469 23.7266L161.703 19.5469H163.375L165.227 22.6328Z" fill="#676767"/>
<line x1="207" y1="4" x2="297" y2="4" stroke="#EF7F17" stroke-width="8"/>
<path d="M217.062 28H215.555V22.7422H209.82V28H208.32V16.625H209.82V21.5156H215.555V16.625H217.062V28ZM223.008 28.1562C221.862 28.1562 220.93 27.7812 220.211 27.0312C219.492 26.276 219.133 25.2682 219.133 24.0078V23.7422C219.133 22.9036 219.292 22.1562 219.609 21.5C219.932 20.8385 220.38 20.3229 220.953 19.9531C221.531 19.5781 222.156 19.3906 222.828 19.3906C223.927 19.3906 224.781 19.7526 225.391 20.4766C226 21.2005 226.305 22.237 226.305 23.5859V24.1875H220.578C220.599 25.0208 220.841 25.6953 221.305 26.2109C221.773 26.7214 222.367 26.9766 223.086 26.9766C223.596 26.9766 224.029 26.8724 224.383 26.6641C224.737 26.4557 225.047 26.1797 225.312 25.8359L226.195 26.5234C225.487 27.612 224.424 28.1562 223.008 28.1562ZM222.828 20.5781C222.245 20.5781 221.755 20.7917 221.359 21.2188C220.964 21.6406 220.719 22.2344 220.625 23H224.859V22.8906C224.818 22.1562 224.62 21.5885 224.266 21.1875C223.911 20.7812 223.432 20.5781 222.828 20.5781ZM239.094 23.8672C239.094 25.1536 238.799 26.1901 238.211 26.9766C237.622 27.763 236.826 28.1562 235.82 28.1562C234.794 28.1562 233.987 27.8307 233.398 27.1797V31.25H231.953V19.5469H233.273L233.344 20.4844C233.932 19.7552 234.75 19.3906 235.797 19.3906C236.812 19.3906 237.615 19.7734 238.203 20.5391C238.797 21.3047 239.094 22.3698 239.094 23.7344V23.8672ZM237.648 23.7031C237.648 22.75 237.445 21.9974 237.039 21.4453C236.633 20.8932 236.076 20.6172 235.367 20.6172C234.492 20.6172 233.836 21.0052 233.398 21.7812V25.8203C233.831 26.5911 234.492 26.9766 235.383 26.9766C236.076 26.9766 236.625 26.7031 237.031 26.1562C237.443 25.6042 237.648 24.7865 237.648 23.7031ZM244.445 28.1562C243.299 28.1562 242.367 27.7812 241.648 27.0312C240.93 26.276 240.57 25.2682 240.57 24.0078V23.7422C240.57 22.9036 240.729 22.1562 241.047 21.5C241.37 20.8385 241.818 20.3229 242.391 19.9531C242.969 19.5781 243.594 19.3906 244.266 19.3906C245.365 19.3906 246.219 19.7526 246.828 20.4766C247.438 21.2005 247.742 22.237 247.742 23.5859V24.1875H242.016C242.036 25.0208 242.279 25.6953 242.742 26.2109C243.211 26.7214 243.805 26.9766 244.523 26.9766C245.034 26.9766 245.466 26.8724 245.82 26.6641C246.174 26.4557 246.484 26.1797 246.75 25.8359L247.633 26.5234C246.924 27.612 245.862 28.1562 244.445 28.1562ZM244.266 20.5781C243.682 20.5781 243.193 20.7917 242.797 21.2188C242.401 21.6406 242.156 22.2344 242.062 23H246.297V22.8906C246.255 22.1562 246.057 21.5885 245.703 21.1875C245.349 20.7812 244.87 20.5781 244.266 20.5781ZM254.07 21.8594C254.07 21.4635 253.919 21.151 253.617 20.9219C253.315 20.6875 252.901 20.5703 252.375 20.5703C251.865 20.5703 251.438 20.7031 251.094 20.9688C250.755 21.2344 250.586 21.5469 250.586 21.9062H249.148C249.148 21.1719 249.456 20.5703 250.07 20.1016C250.685 19.6328 251.453 19.3984 252.375 19.3984C253.365 19.3984 254.135 19.612 254.688 20.0391C255.24 20.4609 255.516 21.0651 255.516 21.8516C255.516 22.2318 255.401 22.5807 255.172 22.8984C254.943 23.2161 254.617 23.4688 254.195 23.6562C255.18 23.9896 255.672 24.6458 255.672 25.625C255.672 26.401 255.372 27.0156 254.773 27.4688C254.174 27.9219 253.375 28.1484 252.375 28.1484C251.401 28.1484 250.596 27.9115 249.961 27.4375C249.331 26.9583 249.016 26.3125 249.016 25.5H250.453C250.453 25.9115 250.635 26.2656 251 26.5625C251.37 26.8542 251.828 27 252.375 27C252.927 27 253.372 26.8724 253.711 26.6172C254.049 26.362 254.219 26.0312 254.219 25.625C254.219 25.151 254.076 24.8125 253.789 24.6094C253.508 24.401 253.068 24.2969 252.469 24.2969H251.023V23.0781H252.594C253.578 23.0521 254.07 22.6458 254.07 21.8594ZM263.016 19.5469H264.461V28H263.016V21.8359L259.117 28H257.672V19.5469H259.117V25.7188L263.016 19.5469ZM266.711 26.8203L267.211 26.2031C267.773 25.474 268.094 24.3802 268.172 22.9219L268.305 19.5469H273.75V26.8203H274.836V30.4844H273.391V28H267.492V30.4844H266.047L266.055 26.8203H266.711ZM268.422 26.8203H272.305V20.8828H269.703L269.617 22.8984C269.529 24.5807 269.13 25.888 268.422 26.8203ZM279.945 28.1562C278.799 28.1562 277.867 27.7812 277.148 27.0312C276.43 26.276 276.07 25.2682 276.07 24.0078V23.7422C276.07 22.9036 276.229 22.1562 276.547 21.5C276.87 20.8385 277.318 20.3229 277.891 19.9531C278.469 19.5781 279.094 19.3906 279.766 19.3906C280.865 19.3906 281.719 19.7526 282.328 20.4766C282.938 21.2005 283.242 22.237 283.242 23.5859V24.1875H277.516C277.536 25.0208 277.779 25.6953 278.242 26.2109C278.711 26.7214 279.305 26.9766 280.023 26.9766C280.534 26.9766 280.966 26.8724 281.32 26.6641C281.674 26.4557 281.984 26.1797 282.25 25.8359L283.133 26.5234C282.424 27.612 281.362 28.1562 279.945 28.1562ZM279.766 20.5781C279.182 20.5781 278.693 20.7917 278.297 21.2188C277.901 21.6406 277.656 22.2344 277.562 23H281.797V22.8906C281.755 22.1562 281.557 21.5885 281.203 21.1875C280.849 20.7812 280.37 20.5781 279.766 20.5781ZM291.828 28H290.383V24.3906H286.5V28H285.047V19.5469H286.5V23.2109H290.383V19.5469H291.828V28ZM300.438 20.7188H297.602V28H296.156V20.7188H293.375V19.5469H300.438V20.7188ZM301.133 23.6953C301.133 22.8672 301.294 22.1224 301.617 21.4609C301.945 20.7995 302.398 20.2891 302.977 19.9297C303.56 19.5703 304.224 19.3906 304.969 19.3906C306.12 19.3906 307.049 19.7891 307.758 20.5859C308.471 21.3828 308.828 22.4427 308.828 23.7656V23.8672C308.828 24.6901 308.669 25.4297 308.352 26.0859C308.039 26.737 307.589 27.2448 307 27.6094C306.417 27.974 305.745 28.1562 304.984 28.1562C303.839 28.1562 302.909 27.7578 302.195 26.9609C301.487 26.1641 301.133 25.1094 301.133 23.7969V23.6953ZM302.586 23.8672C302.586 24.8047 302.802 25.5573 303.234 26.125C303.672 26.6927 304.255 26.9766 304.984 26.9766C305.719 26.9766 306.302 26.6901 306.734 26.1172C307.167 25.5391 307.383 24.7318 307.383 23.6953C307.383 22.7682 307.161 22.0182 306.719 21.4453C306.281 20.8672 305.698 20.5781 304.969 20.5781C304.255 20.5781 303.68 20.862 303.242 21.4297C302.805 21.9974 302.586 22.8099 302.586 23.8672ZM310.773 28V19.5469H314.07C315.195 19.5469 316.057 19.7448 316.656 20.1406C317.26 20.5312 317.562 21.1068 317.562 21.8672C317.562 22.2578 317.445 22.612 317.211 22.9297C316.977 23.2422 316.63 23.4818 316.172 23.6484C316.682 23.7682 317.091 24.0026 317.398 24.3516C317.711 24.7005 317.867 25.1172 317.867 25.6016C317.867 26.3776 317.581 26.9714 317.008 27.3828C316.44 27.7943 315.635 28 314.594 28H310.773ZM312.219 24.2891V26.8359H314.609C315.214 26.8359 315.664 26.724 315.961 26.5C316.263 26.276 316.414 25.9609 316.414 25.5547C316.414 24.7109 315.794 24.2891 314.555 24.2891H312.219ZM312.219 23.1328H314.086C315.44 23.1328 316.117 22.737 316.117 21.9453C316.117 21.1536 315.477 20.7448 314.195 20.7188H312.219V23.1328ZM325.914 16.625L329.633 25.9062L333.352 16.625H335.297V28H333.797V23.5703L333.938 18.7891L330.203 28H329.055L325.328 18.8125L325.477 23.5703V28H323.977V16.625H325.914ZM339.289 28H337.844V19.5469H339.289V28ZM337.727 17.3047C337.727 17.0703 337.797 16.8724 337.938 16.7109C338.083 16.5495 338.297 16.4688 338.578 16.4688C338.859 16.4688 339.073 16.5495 339.219 16.7109C339.365 16.8724 339.438 17.0703 339.438 17.3047C339.438 17.5391 339.365 17.7344 339.219 17.8906C339.073 18.0469 338.859 18.125 338.578 18.125C338.297 18.125 338.083 18.0469 337.938 17.8906C337.797 17.7344 337.727 17.5391 337.727 17.3047ZM343.18 28H341.734V16H343.18V28ZM347.07 28H345.625V16H347.07V28ZM354.609 28C354.526 27.8333 354.458 27.5365 354.406 27.1094C353.734 27.8073 352.932 28.1562 352 28.1562C351.167 28.1562 350.482 27.9219 349.945 27.4531C349.414 26.9792 349.148 26.3802 349.148 25.6562C349.148 24.776 349.482 24.0938 350.148 23.6094C350.82 23.1198 351.763 22.875 352.977 22.875H354.383V22.2109C354.383 21.7057 354.232 21.3047 353.93 21.0078C353.628 20.7057 353.182 20.5547 352.594 20.5547C352.078 20.5547 351.646 20.6849 351.297 20.9453C350.948 21.2057 350.773 21.5208 350.773 21.8906H349.32C349.32 21.4688 349.469 21.0625 349.766 20.6719C350.068 20.276 350.474 19.9635 350.984 19.7344C351.5 19.5052 352.065 19.3906 352.68 19.3906C353.654 19.3906 354.417 19.6354 354.969 20.125C355.521 20.6094 355.807 21.2786 355.828 22.1328V26.0234C355.828 26.7995 355.927 27.4167 356.125 27.875V28H354.609ZM352.211 26.8984C352.664 26.8984 353.094 26.7812 353.5 26.5469C353.906 26.3125 354.201 26.0078 354.383 25.6328V23.8984H353.25C351.479 23.8984 350.594 24.4167 350.594 25.4531C350.594 25.9062 350.745 26.2604 351.047 26.5156C351.349 26.7708 351.737 26.8984 352.211 26.8984ZM360.93 22.6328L362.805 19.5469H364.492L361.727 23.7266L364.578 28H362.906L360.953 24.8359L359 28H357.32L360.172 23.7266L357.406 19.5469H359.078L360.93 22.6328Z" fill="#676767"/>
<line x1="416" y1="4" x2="506" y2="4" stroke="#2FD85E" stroke-width="8"/>
<path d="M418.82 23.5469V28H417.32V16.625H421.516C422.76 16.625 423.734 16.9427 424.438 17.5781C425.146 18.2135 425.5 19.0547 425.5 20.1016C425.5 21.2057 425.154 22.0573 424.461 22.6562C423.773 23.25 422.786 23.5469 421.5 23.5469H418.82ZM418.82 22.3203H421.516C422.318 22.3203 422.932 22.1328 423.359 21.7578C423.786 21.3776 424 20.8307 424 20.1172C424 19.4401 423.786 18.8984 423.359 18.4922C422.932 18.0859 422.346 17.875 421.602 17.8594H418.82V22.3203ZM428.766 22.4609H430.961C431.919 22.4714 432.677 22.7214 433.234 23.2109C433.792 23.7005 434.07 24.3646 434.07 25.2031C434.07 26.0469 433.784 26.724 433.211 27.2344C432.638 27.7448 431.867 28 430.898 28H427.32V19.5469H428.766V22.4609ZM437.086 28H435.633V19.5469H437.086V28ZM428.766 23.6406V26.8203H430.914C431.456 26.8203 431.875 26.6823 432.172 26.4062C432.469 26.125 432.617 25.7422 432.617 25.2578C432.617 24.7891 432.471 24.4062 432.18 24.1094C431.893 23.8073 431.49 23.651 430.969 23.6406H428.766ZM446.516 28H445.07V24.3906H441.188V28H439.734V19.5469H441.188V23.2109H445.07V19.5469H446.516V28ZM448.461 23.6953C448.461 22.8672 448.622 22.1224 448.945 21.4609C449.273 20.7995 449.727 20.2891 450.305 19.9297C450.888 19.5703 451.552 19.3906 452.297 19.3906C453.448 19.3906 454.378 19.7891 455.086 20.5859C455.799 21.3828 456.156 22.4427 456.156 23.7656V23.8672C456.156 24.6901 455.997 25.4297 455.68 26.0859C455.367 26.737 454.917 27.2448 454.328 27.6094C453.745 27.974 453.073 28.1562 452.312 28.1562C451.167 28.1562 450.237 27.7578 449.523 26.9609C448.815 26.1641 448.461 25.1094 448.461 23.7969V23.6953ZM449.914 23.8672C449.914 24.8047 450.13 25.5573 450.562 26.125C451 26.6927 451.583 26.9766 452.312 26.9766C453.047 26.9766 453.63 26.6901 454.062 26.1172C454.495 25.5391 454.711 24.7318 454.711 23.6953C454.711 22.7682 454.49 22.0182 454.047 21.4453C453.609 20.8672 453.026 20.5781 452.297 20.5781C451.583 20.5781 451.008 20.862 450.57 21.4297C450.133 21.9974 449.914 22.8099 449.914 23.8672ZM464.352 28H462.898V24.9375C462.263 25.1042 461.612 25.1875 460.945 25.1875C459.888 25.1875 459.081 24.9167 458.523 24.375C457.971 23.8333 457.69 23.0625 457.68 22.0625V19.5391H459.125V22.1094C459.151 23.3698 459.758 24 460.945 24C461.612 24 462.263 23.9167 462.898 23.75V19.5469H464.352V28ZM473.578 28H472.133V24.3906H468.25V28H466.797V19.5469H468.25V23.2109H472.133V19.5469H473.578V28ZM477.484 22.4609H479.68C480.638 22.4714 481.396 22.7214 481.953 23.2109C482.51 23.7005 482.789 24.3646 482.789 25.2031C482.789 26.0469 482.503 26.724 481.93 27.2344C481.357 27.7448 480.586 28 479.617 28H476.039V19.5469H477.484V22.4609ZM485.805 28H484.352V19.5469H485.805V28ZM477.484 23.6406V26.8203H479.633C480.174 26.8203 480.594 26.6823 480.891 26.4062C481.188 26.125 481.336 25.7422 481.336 25.2578C481.336 24.7891 481.19 24.4062 480.898 24.1094C480.612 23.8073 480.208 23.651 479.688 23.6406H477.484ZM491.836 28.1562C490.69 28.1562 489.758 27.7812 489.039 27.0312C488.32 26.276 487.961 25.2682 487.961 24.0078V23.7422C487.961 22.9036 488.12 22.1562 488.438 21.5C488.76 20.8385 489.208 20.3229 489.781 19.9531C490.359 19.5781 490.984 19.3906 491.656 19.3906C492.755 19.3906 493.609 19.7526 494.219 20.4766C494.828 21.2005 495.133 22.237 495.133 23.5859V24.1875H489.406C489.427 25.0208 489.669 25.6953 490.133 26.2109C490.602 26.7214 491.195 26.9766 491.914 26.9766C492.424 26.9766 492.857 26.8724 493.211 26.6641C493.565 26.4557 493.875 26.1797 494.141 25.8359L495.023 26.5234C494.315 27.612 493.253 28.1562 491.836 28.1562ZM491.656 20.5781C491.073 20.5781 490.583 20.7917 490.188 21.2188C489.792 21.6406 489.547 22.2344 489.453 23H493.688V22.8906C493.646 22.1562 493.448 21.5885 493.094 21.1875C492.74 20.7812 492.26 20.5781 491.656 20.5781ZM500.906 19.5469H502.359V26.8203H506.25V19.5469H507.695V26.8203H508.703L508.562 30.5078H507.266V28H500.906V19.5469ZM513.773 28.1562C512.628 28.1562 511.695 27.7812 510.977 27.0312C510.258 26.276 509.898 25.2682 509.898 24.0078V23.7422C509.898 22.9036 510.057 22.1562 510.375 21.5C510.698 20.8385 511.146 20.3229 511.719 19.9531C512.297 19.5781 512.922 19.3906 513.594 19.3906C514.693 19.3906 515.547 19.7526 516.156 20.4766C516.766 21.2005 517.07 22.237 517.07 23.5859V24.1875H511.344C511.365 25.0208 511.607 25.6953 512.07 26.2109C512.539 26.7214 513.133 26.9766 513.852 26.9766C514.362 26.9766 514.794 26.8724 515.148 26.6641C515.503 26.4557 515.812 26.1797 516.078 25.8359L516.961 26.5234C516.253 27.612 515.19 28.1562 513.773 28.1562ZM513.594 20.5781C513.01 20.5781 512.521 20.7917 512.125 21.2188C511.729 21.6406 511.484 22.2344 511.391 23H515.625V22.8906C515.583 22.1562 515.385 21.5885 515.031 21.1875C514.677 20.7812 514.198 20.5781 513.594 20.5781ZM525.656 28H524.211V24.3906H520.328V28H518.875V19.5469H520.328V23.2109H524.211V19.5469H525.656V28ZM529.562 22.4609H531.758C532.716 22.4714 533.474 22.7214 534.031 23.2109C534.589 23.7005 534.867 24.3646 534.867 25.2031C534.867 26.0469 534.581 26.724 534.008 27.2344C533.435 27.7448 532.664 28 531.695 28H528.117V19.5469H529.562V22.4609ZM537.883 28H536.43V19.5469H537.883V28ZM529.562 23.6406V26.8203H531.711C532.253 26.8203 532.672 26.6823 532.969 26.4062C533.266 26.125 533.414 25.7422 533.414 25.2578C533.414 24.7891 533.268 24.4062 532.977 24.1094C532.69 23.8073 532.286 23.651 531.766 23.6406H529.562Z" fill="#676767"/>
</svg>
