<svg width="672" height="61" viewBox="0 0 672 61" fill="none" xmlns="http://www.w3.org/2000/svg">
<rect x="0.5" y="0.5" width="46" height="60" stroke="#BDBDBD" stroke-linecap="round" stroke-dasharray="5 5 5 5"/>
<rect x="46.5" y="0.5" width="46" height="60" stroke="#BDBDBD" stroke-linecap="round" stroke-dasharray="5 5 5 5"/>
<rect x="92.5" y="0.5" width="44" height="60" stroke="#BDBDBD" stroke-linecap="round" stroke-dasharray="5 5 5 5"/>
<rect x="136.5" y="0.5" width="42" height="60" stroke="#BDBDBD" stroke-linecap="round" stroke-dasharray="5 5 5 5"/>
<rect x="178.5" y="0.5" width="41" height="60" stroke="#BDBDBD" stroke-linecap="round" stroke-dasharray="5 5 5 5"/>
<rect x="219.5" y="0.5" width="45" height="60" stroke="#BDBDBD" stroke-linecap="round" stroke-dasharray="5 5 5 5"/>
<rect x="264.5" y="0.5" width="48" height="60" stroke="#BDBDBD" stroke-linecap="round" stroke-dasharray="5 5 5 5"/>
<rect x="312.5" y="0.5" width="49" height="60" stroke="#BDBDBD" stroke-linecap="round" stroke-dasharray="5 5 5 5"/>
<rect x="361.5" y="0.5" width="47" height="60" stroke="#BDBDBD" stroke-linecap="round" stroke-dasharray="5 5 5 5"/>
<rect x="408.5" y="0.5" width="46" height="60" stroke="#BDBDBD" stroke-linecap="round" stroke-dasharray="5 5 5 5"/>
<rect x="454.5" y="0.5" width="41" height="60" stroke="#BDBDBD" stroke-linecap="round" stroke-dasharray="5 5 5 5"/>
<rect x="495.5" y="0.5" width="40" height="60" stroke="#BDBDBD" stroke-linecap="round" stroke-dasharray="5 5 5 5"/>
<rect x="535.5" y="0.5" width="45" height="60" stroke="#BDBDBD" stroke-linecap="round" stroke-dasharray="5 5 5 5"/>
<rect x="580.5" y="0.5" width="47" height="60" stroke="#BDBDBD" stroke-linecap="round" stroke-dasharray="5 5 5 5"/>
<rect x="627.5" y="0.5" width="44" height="60" stroke="#BDBDBD" stroke-linecap="round" stroke-dasharray="5 5 5 5"/>
</svg>
