<svg width="672" height="61" viewBox="0 0 672 61" fill="none" xmlns="http://www.w3.org/2000/svg">
<path fill-rule="evenodd" clip-rule="evenodd" d="M0 0V3.54167C0.552285 3.54167 1 3.09395 1 2.54167V1H2.9375C3.48978 1 3.9375 0.552285 3.9375 0H0ZM7.8125 0C7.8125 0.552285 8.26021 1 8.8125 1H14.6875C15.2398 1 15.6875 0.552285 15.6875 0H7.8125ZM19.5625 0C19.5625 0.552285 20.0102 1 20.5625 1H26.4375C26.9898 1 27.4375 0.552285 27.4375 0H19.5625ZM31.3125 0C31.3125 0.552285 31.7602 1 32.3125 1H38.1875C38.7398 1 39.1875 0.552285 39.1875 0H31.3125ZM43.0625 0C43.0625 0.552285 43.5102 1 44.0625 1H46V2.54167V3.54167C46.1821 3.54167 46.3529 3.49297 46.5 3.40788C46.6471 3.49297 46.8179 3.54167 47 3.54167V2.54167V1H48.9375C49.4898 1 49.9375 0.552285 49.9375 0H47H46H43.0625ZM47 6.625C46.8179 6.625 46.6471 6.6737 46.5 6.75879C46.3529 6.6737 46.1821 6.625 46 6.625V7.625V12.7083V13.7083C46.1821 13.7083 46.3529 13.6596 46.5 13.5745C46.6471 13.6596 46.8179 13.7083 47 13.7083V12.7083V7.625V6.625ZM47 16.7917C46.8179 16.7917 46.6471 16.8404 46.5 16.9255C46.3529 16.8404 46.1821 16.7917 46 16.7917V17.7917V22.875V23.875C46.1821 23.875 46.3529 23.8263 46.5 23.7412C46.6471 23.8263 46.8179 23.875 47 23.875V22.875V17.7917V16.7917ZM47 26.9583C46.8179 26.9583 46.6471 27.007 46.5 27.0921C46.3529 27.007 46.1821 26.9583 46 26.9583V27.9583V33.0417V34.0417C46.1821 34.0417 46.3529 33.993 46.5 33.9079C46.6471 33.993 46.8179 34.0417 47 34.0417V33.0417V27.9583V26.9583ZM47 37.125C46.8179 37.125 46.6471 37.1737 46.5 37.2588C46.3529 37.1737 46.1821 37.125 46 37.125V38.125V43.2083V44.2083C46.1821 44.2083 46.3529 44.1596 46.5 44.0745C46.6471 44.1596 46.8179 44.2083 47 44.2083V43.2083V38.125V37.125ZM47 47.2917C46.8179 47.2917 46.6471 47.3404 46.5 47.4254C46.3529 47.3404 46.1821 47.2917 46 47.2917V48.2917V53.375V54.375C46.1821 54.375 46.3529 54.3263 46.5 54.2412C46.6471 54.3263 46.8179 54.375 47 54.375V53.375V48.2917V47.2917ZM47 57.4583C46.8179 57.4583 46.6471 57.507 46.5 57.5921C46.3529 57.507 46.1821 57.4583 46 57.4583V58.4583V60H44.0625C43.5102 60 43.0625 60.4477 43.0625 61H46H47H49.9375C49.9375 60.4477 49.4898 60 48.9375 60H47V58.4583V57.4583ZM39.1875 61C39.1875 60.4477 38.7398 60 38.1875 60H32.3125C31.7602 60 31.3125 60.4477 31.3125 61H39.1875ZM27.4375 61C27.4375 60.4477 26.9898 60 26.4375 60H20.5625C20.0102 60 19.5625 60.4477 19.5625 61H27.4375ZM15.6875 61C15.6875 60.4477 15.2398 60 14.6875 60H8.8125C8.26021 60 7.8125 60.4477 7.8125 61H15.6875ZM3.9375 61C3.9375 60.4477 3.48978 60 2.9375 60H1V58.4583C1 57.906 0.552285 57.4583 0 57.4583V61H3.9375ZM0 54.375C0.552285 54.375 1 53.9273 1 53.375V48.2917C1 47.7394 0.552285 47.2917 0 47.2917V54.375ZM0 44.2083C0.552285 44.2083 1 43.7606 1 43.2083V38.125C1 37.5727 0.552285 37.125 0 37.125V44.2083ZM0 34.0417C0.552285 34.0417 1 33.594 1 33.0417V27.9583C1 27.4061 0.552285 26.9583 0 26.9583V34.0417ZM0 23.875C0.552285 23.875 1 23.4273 1 22.875V17.7917C1 17.2394 0.552285 16.7917 0 16.7917V23.875ZM0 13.7083C0.552285 13.7083 1 13.2606 1 12.7083V7.625C1 7.07272 0.552285 6.625 0 6.625V13.7083ZM53.8125 0C53.8125 0.552285 54.2602 1 54.8125 1H60.6875C61.2398 1 61.6875 0.552285 61.6875 0H53.8125ZM65.5625 0C65.5625 0.552285 66.0102 1 66.5625 1H72.4375C72.9898 1 73.4375 0.552285 73.4375 0H65.5625ZM77.3125 0C77.3125 0.552285 77.7602 1 78.3125 1H84.1875C84.7398 1 85.1875 0.552285 85.1875 0H77.3125ZM89.0625 0C89.0625 0.552285 89.5102 1 90.0625 1H92V2.54167V3.54167C92.1821 3.54167 92.3529 3.49297 92.5 3.40788C92.6471 3.49297 92.8179 3.54167 93 3.54167V2.54167V1H94.8125C95.3648 1 95.8125 0.552285 95.8125 0H93H92H89.0625ZM93 6.625C92.8179 6.625 92.6471 6.6737 92.5 6.75879C92.3529 6.6737 92.1821 6.625 92 6.625V7.625V12.7083V13.7083C92.1821 13.7083 92.3529 13.6596 92.5 13.5745C92.6471 13.6596 92.8179 13.7083 93 13.7083V12.7083V7.625V6.625ZM93 16.7917C92.8179 16.7917 92.6471 16.8404 92.5 16.9255C92.3529 16.8404 92.1821 16.7917 92 16.7917V17.7917V22.875V23.875C92.1821 23.875 92.3529 23.8263 92.5 23.7412C92.6471 23.8263 92.8179 23.875 93 23.875V22.875V17.7917V16.7917ZM93 26.9583C92.8179 26.9583 92.6471 27.007 92.5 27.0921C92.3529 27.007 92.1821 26.9583 92 26.9583V27.9583V33.0417V34.0417C92.1821 34.0417 92.3529 33.993 92.5 33.9079C92.6471 33.993 92.8179 34.0417 93 34.0417V33.0417V27.9583V26.9583ZM93 37.125C92.8179 37.125 92.6471 37.1737 92.5 37.2588C92.3529 37.1737 92.1821 37.125 92 37.125V38.125V43.2083V44.2083C92.1821 44.2083 92.3529 44.1596 92.5 44.0745C92.6471 44.1596 92.8179 44.2083 93 44.2083V43.2083V38.125V37.125ZM93 47.2917C92.8179 47.2917 92.6471 47.3404 92.5 47.4254C92.3529 47.3404 92.1821 47.2917 92 47.2917V48.2917V53.375V54.375C92.1821 54.375 92.3529 54.3263 92.5 54.2412C92.6471 54.3263 92.8179 54.375 93 54.375V53.375V48.2917V47.2917ZM93 57.4583C92.8179 57.4583 92.6471 57.507 92.5 57.5921C92.3529 57.507 92.1821 57.4583 92 57.4583V58.4583V60H90.0625C89.5102 60 89.0625 60.4477 89.0625 61H92H93H95.8125C95.8125 60.4477 95.3648 60 94.8125 60H93V58.4583V57.4583ZM85.1875 61C85.1875 60.4477 84.7398 60 84.1875 60H78.3125C77.7602 60 77.3125 60.4477 77.3125 61H85.1875ZM73.4375 61C73.4375 60.4477 72.9898 60 72.4375 60H66.5625C66.0102 60 65.5625 60.4477 65.5625 61H73.4375ZM61.6875 61C61.6875 60.4477 61.2398 60 60.6875 60H54.8125C54.2602 60 53.8125 60.4477 53.8125 61H61.6875ZM100.438 1C99.8852 1 99.4375 0.552285 99.4375 0H107.062C107.062 0.552285 106.615 1 106.062 1H100.438ZM111.688 1C111.135 1 110.688 0.552285 110.688 0H118.312C118.312 0.552285 117.865 1 117.312 1H111.688ZM122.938 1C122.385 1 121.938 0.552285 121.938 0H129.562C129.562 0.552285 129.115 1 128.562 1H122.938ZM134.188 1C133.635 1 133.188 0.552285 133.188 0H136H137H139.688C139.688 0.552285 139.24 1 138.688 1H137V2.54167V3.54167C136.818 3.54167 136.647 3.49297 136.5 3.40788C136.353 3.49297 136.182 3.54167 136 3.54167V2.54167V1H134.188ZM136.5 6.75879C136.647 6.6737 136.818 6.625 137 6.625V7.625V12.7083V13.7083C136.818 13.7083 136.647 13.6596 136.5 13.5745C136.353 13.6596 136.182 13.7083 136 13.7083V12.7083V7.625V6.625C136.182 6.625 136.353 6.6737 136.5 6.75879ZM136.5 16.9255C136.647 16.8404 136.818 16.7917 137 16.7917V17.7917V22.875V23.875C136.818 23.875 136.647 23.8263 136.5 23.7412C136.353 23.8263 136.182 23.875 136 23.875V22.875V17.7917V16.7917C136.182 16.7917 136.353 16.8404 136.5 16.9255ZM136.5 27.0921C136.647 27.007 136.818 26.9583 137 26.9583V27.9583V33.0417V34.0417C136.818 34.0417 136.647 33.993 136.5 33.9079C136.353 33.993 136.182 34.0417 136 34.0417V33.0417V27.9583V26.9583C136.182 26.9583 136.353 27.007 136.5 27.0921ZM136.5 37.2588C136.647 37.1737 136.818 37.125 137 37.125V38.125V43.2083V44.2083C136.818 44.2083 136.647 44.1596 136.5 44.0745C136.353 44.1596 136.182 44.2083 136 44.2083V43.2083V38.125V37.125C136.182 37.125 136.353 37.1737 136.5 37.2588ZM136.5 47.4254C136.647 47.3404 136.818 47.2917 137 47.2917V48.2917V53.375V54.375C136.818 54.375 136.647 54.3263 136.5 54.2412C136.353 54.3263 136.182 54.375 136 54.375V53.375V48.2917V47.2917C136.182 47.2917 136.353 47.3404 136.5 47.4254ZM136.5 57.5921C136.647 57.507 136.818 57.4583 137 57.4583V58.4583V60H138.688C139.24 60 139.688 60.4477 139.688 61H137H136H133.188C133.188 60.4477 133.635 60 134.188 60H136V58.4583V57.4583C136.182 57.4583 136.353 57.507 136.5 57.5921ZM128.562 60C129.115 60 129.562 60.4477 129.562 61H121.938C121.938 60.4477 122.385 60 122.938 60H128.562ZM117.312 60C117.865 60 118.312 60.4477 118.312 61H110.688C110.688 60.4477 111.135 60 111.688 60H117.312ZM106.062 60C106.615 60 107.062 60.4477 107.062 61H99.4375C99.4375 60.4477 99.8852 60 100.438 60H106.062ZM143.062 0C143.062 0.552285 143.51 1 144.062 1H149.438C149.99 1 150.438 0.552285 150.438 0H143.062ZM153.812 0C153.812 0.552285 154.26 1 154.812 1H160.188C160.74 1 161.188 0.552285 161.188 0H153.812ZM164.562 0C164.562 0.552285 165.01 1 165.562 1H170.938C171.49 1 171.938 0.552285 171.938 0H164.562ZM175.312 0C175.312 0.552285 175.76 1 176.312 1H178V2.54167V3.54167C178.182 3.54167 178.353 3.49297 178.5 3.40788C178.647 3.49297 178.818 3.54167 179 3.54167V2.54167V1H180.625C181.177 1 181.625 0.552285 181.625 0H179H178H175.312ZM179 6.625C178.818 6.625 178.647 6.6737 178.5 6.75879C178.353 6.6737 178.182 6.625 178 6.625V7.625V12.7083V13.7083C178.182 13.7083 178.353 13.6596 178.5 13.5745C178.647 13.6596 178.818 13.7083 179 13.7083V12.7083V7.625V6.625ZM179 16.7917C178.818 16.7917 178.647 16.8404 178.5 16.9255C178.353 16.8404 178.182 16.7917 178 16.7917V17.7917V22.875V23.875C178.182 23.875 178.353 23.8263 178.5 23.7412C178.647 23.8263 178.818 23.875 179 23.875V22.875V17.7917V16.7917ZM179 26.9583C178.818 26.9583 178.647 27.007 178.5 27.0921C178.353 27.007 178.182 26.9583 178 26.9583V27.9583V33.0417V34.0417C178.182 34.0417 178.353 33.993 178.5 33.9079C178.647 33.993 178.818 34.0417 179 34.0417V33.0417V27.9583V26.9583ZM179 37.125C178.818 37.125 178.647 37.1737 178.5 37.2588C178.353 37.1737 178.182 37.125 178 37.125V38.125V43.2083V44.2083C178.182 44.2083 178.353 44.1596 178.5 44.0745C178.647 44.1596 178.818 44.2083 179 44.2083V43.2083V38.125V37.125ZM179 47.2917C178.818 47.2917 178.647 47.3404 178.5 47.4254C178.353 47.3404 178.182 47.2917 178 47.2917V48.2917V53.375V54.375C178.182 54.375 178.353 54.3263 178.5 54.2412C178.647 54.3263 178.818 54.375 179 54.375V53.375V48.2917V47.2917ZM179 57.4583C178.818 57.4583 178.647 57.507 178.5 57.5921C178.353 57.507 178.182 57.4583 178 57.4583V58.4583V60H176.312C175.76 60 175.312 60.4477 175.312 61H178H179H181.625C181.625 60.4477 181.177 60 180.625 60H179V58.4583V57.4583ZM171.938 61C171.938 60.4477 171.49 60 170.938 60H165.562C165.01 60 164.562 60.4477 164.562 61H171.938ZM161.188 61C161.188 60.4477 160.74 60 160.188 60H154.812C154.26 60 153.812 60.4477 153.812 61H161.188ZM150.438 61C150.438 60.4477 149.99 60 149.438 60H144.062C143.51 60 143.062 60.4477 143.062 61H150.438ZM185.875 1C185.323 1 184.875 0.552285 184.875 0H192.125C192.125 0.552285 191.677 1 191.125 1H185.875ZM196.375 1C195.823 1 195.375 0.552285 195.375 0H202.625C202.625 0.552285 202.177 1 201.625 1H196.375ZM206.875 1C206.323 1 205.875 0.552285 205.875 0H213.125C213.125 0.552285 212.677 1 212.125 1H206.875ZM217.375 1C216.823 1 216.375 0.552285 216.375 0H219H220H222.875C222.875 0.552285 222.427 1 221.875 1H220V2.54167V3.54167C219.818 3.54167 219.647 3.49297 219.5 3.40788C219.353 3.49297 219.182 3.54167 219 3.54167V2.54167V1H217.375ZM219.5 6.75879C219.647 6.6737 219.818 6.625 220 6.625V7.625V12.7083V13.7083C219.818 13.7083 219.647 13.6596 219.5 13.5745C219.353 13.6596 219.182 13.7083 219 13.7083V12.7083V7.625V6.625C219.182 6.625 219.353 6.6737 219.5 6.75879ZM219.5 16.9255C219.647 16.8404 219.818 16.7917 220 16.7917V17.7917V22.875V23.875C219.818 23.875 219.647 23.8263 219.5 23.7412C219.353 23.8263 219.182 23.875 219 23.875V22.875V17.7917V16.7917C219.182 16.7917 219.353 16.8404 219.5 16.9255ZM219.5 27.0921C219.647 27.007 219.818 26.9583 220 26.9583V27.9583V33.0417V34.0417C219.818 34.0417 219.647 33.993 219.5 33.9079C219.353 33.993 219.182 34.0417 219 34.0417V33.0417V27.9583V26.9583C219.182 26.9583 219.353 27.007 219.5 27.0921ZM219.5 37.2588C219.647 37.1737 219.818 37.125 220 37.125V38.125V43.2083V44.2083C219.818 44.2083 219.647 44.1596 219.5 44.0745C219.353 44.1596 219.182 44.2083 219 44.2083V43.2083V38.125V37.125C219.182 37.125 219.353 37.1737 219.5 37.2588ZM219.5 47.4254C219.647 47.3404 219.818 47.2917 220 47.2917V48.2917V53.375V54.375C219.818 54.375 219.647 54.3263 219.5 54.2412C219.353 54.3263 219.182 54.375 219 54.375V53.375V48.2917V47.2917C219.182 47.2917 219.353 47.3404 219.5 47.4254ZM219.5 57.5921C219.647 57.507 219.818 57.4583 220 57.4583V58.4583V60H221.875C222.427 60 222.875 60.4477 222.875 61H220H219H216.375C216.375 60.4477 216.823 60 217.375 60H219V58.4583V57.4583C219.182 57.4583 219.353 57.507 219.5 57.5921ZM212.125 60C212.677 60 213.125 60.4477 213.125 61H205.875C205.875 60.4477 206.323 60 206.875 60H212.125ZM201.625 60C202.177 60 202.625 60.4477 202.625 61H195.375C195.375 60.4477 195.823 60 196.375 60H201.625ZM191.125 60C191.677 60 192.125 60.4477 192.125 61H184.875C184.875 60.4477 185.323 60 185.875 60H191.125ZM226.625 0C226.625 0.552285 227.073 1 227.625 1H233.375C233.927 1 234.375 0.552285 234.375 0H226.625ZM238.125 0C238.125 0.552285 238.573 1 239.125 1H244.875C245.427 1 245.875 0.552285 245.875 0H238.125ZM249.625 0C249.625 0.552285 250.073 1 250.625 1H256.375C256.927 1 257.375 0.552285 257.375 0H249.625ZM261.125 0C261.125 0.552285 261.573 1 262.125 1H264V2.54167V3.54167C264.182 3.54167 264.353 3.49297 264.5 3.40788C264.647 3.49297 264.818 3.54167 265 3.54167V2.54167V1H267.062C267.615 1 268.062 0.552285 268.062 0H265H264H261.125ZM265 6.625C264.818 6.625 264.647 6.6737 264.5 6.75879C264.353 6.6737 264.182 6.625 264 6.625V7.625V12.7083V13.7083C264.182 13.7083 264.353 13.6596 264.5 13.5745C264.647 13.6596 264.818 13.7083 265 13.7083V12.7083V7.625V6.625ZM265 16.7917C264.818 16.7917 264.647 16.8404 264.5 16.9255C264.353 16.8404 264.182 16.7917 264 16.7917V17.7917V22.875V23.875C264.182 23.875 264.353 23.8263 264.5 23.7412C264.647 23.8263 264.818 23.875 265 23.875V22.875V17.7917V16.7917ZM265 26.9583C264.818 26.9583 264.647 27.007 264.5 27.0921C264.353 27.007 264.182 26.9583 264 26.9583V27.9583V33.0417V34.0417C264.182 34.0417 264.353 33.993 264.5 33.9079C264.647 33.993 264.818 34.0417 265 34.0417V33.0417V27.9583V26.9583ZM265 37.125C264.818 37.125 264.647 37.1737 264.5 37.2588C264.353 37.1737 264.182 37.125 264 37.125V38.125V43.2083V44.2083C264.182 44.2083 264.353 44.1596 264.5 44.0745C264.647 44.1596 264.818 44.2083 265 44.2083V43.2083V38.125V37.125ZM265 47.2917C264.818 47.2917 264.647 47.3404 264.5 47.4255C264.353 47.3404 264.182 47.2917 264 47.2917V48.2917V53.375V54.375C264.182 54.375 264.353 54.3263 264.5 54.2412C264.647 54.3263 264.818 54.375 265 54.375V53.375V48.2917V47.2917ZM265 57.4583C264.818 57.4583 264.647 57.507 264.5 57.5921C264.353 57.507 264.182 57.4583 264 57.4583V58.4583V60H262.125C261.573 60 261.125 60.4477 261.125 61H264H265H268.062C268.062 60.4477 267.615 60 267.062 60H265V58.4583V57.4583ZM257.375 61C257.375 60.4477 256.927 60 256.375 60H250.625C250.073 60 249.625 60.4477 249.625 61H257.375ZM245.875 61C245.875 60.4477 245.427 60 244.875 60H239.125C238.573 60 238.125 60.4477 238.125 61H245.875ZM234.375 61C234.375 60.4477 233.927 60 233.375 60H227.625C227.073 60 226.625 60.4477 226.625 61H234.375ZM273.188 1C272.635 1 272.188 0.552285 272.188 0H280.312C280.312 0.552285 279.865 1 279.312 1H273.188ZM285.438 1C284.885 1 284.438 0.552285 284.438 0H292.562C292.562 0.552285 292.115 1 291.562 1H285.438ZM297.688 1C297.135 1 296.688 0.552285 296.688 0H304.812C304.812 0.552285 304.365 1 303.812 1H297.688ZM309.938 1C309.385 1 308.938 0.552285 308.938 0H312H313H315.083C315.083 0.552285 314.636 1 314.083 1H313V2.54167V3.54167C312.818 3.54167 312.647 3.49297 312.5 3.40788C312.353 3.49297 312.182 3.54167 312 3.54167V2.54167V1H309.938ZM312.5 6.75879C312.647 6.6737 312.818 6.625 313 6.625V7.625V12.7083V13.7083C312.818 13.7083 312.647 13.6596 312.5 13.5745C312.353 13.6596 312.182 13.7083 312 13.7083V12.7083V7.625V6.625C312.182 6.625 312.353 6.6737 312.5 6.75879ZM312.5 16.9255C312.647 16.8404 312.818 16.7917 313 16.7917V17.7917V22.875V23.875C312.818 23.875 312.647 23.8263 312.5 23.7412C312.353 23.8263 312.182 23.875 312 23.875V22.875V17.7917V16.7917C312.182 16.7917 312.353 16.8404 312.5 16.9255ZM312.5 27.0921C312.647 27.007 312.818 26.9583 313 26.9583V27.9583V33.0417V34.0417C312.818 34.0417 312.647 33.993 312.5 33.9079C312.353 33.993 312.182 34.0417 312 34.0417V33.0417V27.9583V26.9583C312.182 26.9583 312.353 27.007 312.5 27.0921ZM312.5 37.2588C312.647 37.1737 312.818 37.125 313 37.125V38.125V43.2083V44.2083C312.818 44.2083 312.647 44.1596 312.5 44.0745C312.353 44.1596 312.182 44.2083 312 44.2083V43.2083V38.125V37.125C312.182 37.125 312.353 37.1737 312.5 37.2588ZM312.5 47.4255C312.647 47.3404 312.818 47.2917 313 47.2917V48.2917V53.375V54.375C312.818 54.375 312.647 54.3263 312.5 54.2412C312.353 54.3263 312.182 54.375 312 54.375V53.375V48.2917V47.2917C312.182 47.2917 312.353 47.3404 312.5 47.4255ZM312.5 57.5921C312.647 57.507 312.818 57.4583 313 57.4583V58.4583V60H314.083C314.636 60 315.083 60.4477 315.083 61H313H312H308.938C308.938 60.4477 309.385 60 309.938 60H312V58.4583V57.4583C312.182 57.4583 312.353 57.507 312.5 57.5921ZM303.812 60C304.365 60 304.812 60.4477 304.812 61H296.688C296.688 60.4477 297.135 60 297.688 60H303.812ZM291.562 60C292.115 60 292.562 60.4477 292.562 61H284.438C284.438 60.4477 284.885 60 285.438 60H291.562ZM279.312 60C279.865 60 280.312 60.4477 280.312 61H272.188C272.188 60.4477 272.635 60 273.188 60H279.312ZM317.25 0C317.25 0.552285 317.698 1 318.25 1H322.417C322.969 1 323.417 0.552285 323.417 0H317.25ZM325.583 0C325.583 0.552285 326.031 1 326.583 1H330.75C331.302 1 331.75 0.552285 331.75 0H325.583ZM333.917 0C333.917 0.552285 334.364 1 334.917 1H339.083C339.636 1 340.083 0.552285 340.083 0H333.917ZM342.25 0C342.25 0.552285 342.698 1 343.25 1H347.417C347.969 1 348.417 0.552285 348.417 0H342.25ZM350.583 0C350.583 0.552285 351.031 1 351.583 1H355.75C356.302 1 356.75 0.552285 356.75 0H350.583ZM358.917 0C358.917 0.552285 359.364 1 359.917 1H361V2.54167V3.54167C361.182 3.54167 361.353 3.49297 361.5 3.40788C361.647 3.49297 361.818 3.54167 362 3.54167V2.54167V1H364C364.552 1 365 0.552285 365 0H362H361H358.917ZM362 6.625C361.818 6.625 361.647 6.6737 361.5 6.75879C361.353 6.6737 361.182 6.625 361 6.625V7.625V12.7083V13.7083C361.182 13.7083 361.353 13.6596 361.5 13.5745C361.647 13.6596 361.818 13.7083 362 13.7083V12.7083V7.625V6.625ZM362 16.7917C361.818 16.7917 361.647 16.8404 361.5 16.9255C361.353 16.8404 361.182 16.7917 361 16.7917V17.7917V22.875V23.875C361.182 23.875 361.353 23.8263 361.5 23.7412C361.647 23.8263 361.818 23.875 362 23.875V22.875V17.7917V16.7917ZM362 26.9583C361.818 26.9583 361.647 27.007 361.5 27.0921C361.353 27.007 361.182 26.9583 361 26.9583V27.9583V33.0417V34.0417C361.182 34.0417 361.353 33.993 361.5 33.9079C361.647 33.993 361.818 34.0417 362 34.0417V33.0417V27.9583V26.9583ZM362 37.125C361.818 37.125 361.647 37.1737 361.5 37.2588C361.353 37.1737 361.182 37.125 361 37.125V38.125V43.2083V44.2083C361.182 44.2083 361.353 44.1596 361.5 44.0745C361.647 44.1596 361.818 44.2083 362 44.2083V43.2083V38.125V37.125ZM362 47.2917C361.818 47.2917 361.647 47.3404 361.5 47.4255C361.353 47.3404 361.182 47.2917 361 47.2917V48.2917V53.375V54.375C361.182 54.375 361.353 54.3263 361.5 54.2412C361.647 54.3263 361.818 54.375 362 54.375V53.375V48.2917V47.2917ZM362 57.4583C361.818 57.4583 361.647 57.507 361.5 57.5921C361.353 57.507 361.182 57.4583 361 57.4583V58.4583V60H359.917C359.364 60 358.917 60.4477 358.917 61H361H362H365C365 60.4477 364.552 60 364 60H362V58.4583V57.4583ZM356.75 61C356.75 60.4477 356.302 60 355.75 60H351.583C351.031 60 350.583 60.4477 350.583 61H356.75ZM348.417 61C348.417 60.4477 347.969 60 347.417 60H343.25C342.698 60 342.25 60.4477 342.25 61H348.417ZM340.083 61C340.083 60.4477 339.636 60 339.083 60H334.917C334.364 60 333.917 60.4477 333.917 61H340.083ZM331.75 61C331.75 60.4477 331.302 60 330.75 60H326.583C326.031 60 325.583 60.4477 325.583 61H331.75ZM323.417 61C323.417 60.4477 322.969 60 322.417 60H318.25C317.698 60 317.25 60.4477 317.25 61H323.417ZM370 1C369.448 1 369 0.552285 369 0H377C377 0.552285 376.552 1 376 1H370ZM382 1C381.448 1 381 0.552285 381 0H389C389 0.552285 388.552 1 388 1H382ZM394 1C393.448 1 393 0.552285 393 0H401C401 0.552285 400.552 1 400 1H394ZM406 1C405.448 1 405 0.552285 405 0H408H409H411.938C411.938 0.552285 411.49 1 410.938 1H409V2.54167V3.54167C408.818 3.54167 408.647 3.49297 408.5 3.40788C408.353 3.49297 408.182 3.54167 408 3.54167V2.54167V1H406ZM408.5 6.75879C408.647 6.6737 408.818 6.625 409 6.625V7.625V12.7083V13.7083C408.818 13.7083 408.647 13.6596 408.5 13.5745C408.353 13.6596 408.182 13.7083 408 13.7083V12.7083V7.625V6.625C408.182 6.625 408.353 6.6737 408.5 6.75879ZM408.5 16.9255C408.647 16.8404 408.818 16.7917 409 16.7917V17.7917V22.875V23.875C408.818 23.875 408.647 23.8263 408.5 23.7412C408.353 23.8263 408.182 23.875 408 23.875V22.875V17.7917V16.7917C408.182 16.7917 408.353 16.8404 408.5 16.9255ZM408.5 27.0921C408.647 27.007 408.818 26.9583 409 26.9583V27.9583V33.0417V34.0417C408.818 34.0417 408.647 33.993 408.5 33.9079C408.353 33.993 408.182 34.0417 408 34.0417V33.0417V27.9583V26.9583C408.182 26.9583 408.353 27.007 408.5 27.0921ZM408.5 37.2588C408.647 37.1737 408.818 37.125 409 37.125V38.125V43.2083V44.2083C408.818 44.2083 408.647 44.1596 408.5 44.0745C408.353 44.1596 408.182 44.2083 408 44.2083V43.2083V38.125V37.125C408.182 37.125 408.353 37.1737 408.5 37.2588ZM408.5 47.4255C408.647 47.3404 408.818 47.2917 409 47.2917V48.2917V53.375V54.375C408.818 54.375 408.647 54.3263 408.5 54.2412C408.353 54.3263 408.182 54.375 408 54.375V53.375V48.2917V47.2917C408.182 47.2917 408.353 47.3404 408.5 47.4255ZM408.5 57.5921C408.647 57.507 408.818 57.4583 409 57.4583V58.4583V60H410.938C411.49 60 411.938 60.4477 411.938 61H409H408H405C405 60.4477 405.448 60 406 60H408V58.4583V57.4583C408.182 57.4583 408.353 57.507 408.5 57.5921ZM400 60C400.552 60 401 60.4477 401 61H393C393 60.4477 393.448 60 394 60H400ZM388 60C388.552 60 389 60.4477 389 61H381C381 60.4477 381.448 60 382 60H388ZM376 60C376.552 60 377 60.4477 377 61H369C369 60.4477 369.448 60 370 60H376ZM415.812 0C415.812 0.552285 416.26 1 416.812 1H422.688C423.24 1 423.688 0.552285 423.688 0H415.812ZM427.562 0C427.562 0.552285 428.01 1 428.562 1H434.438C434.99 1 435.438 0.552285 435.438 0H427.562ZM439.312 0C439.312 0.552285 439.76 1 440.312 1H446.188C446.74 1 447.188 0.552285 447.188 0H439.312ZM451.062 0C451.062 0.552285 451.51 1 452.062 1H454V2.54167V3.54167C454.182 3.54167 454.353 3.49297 454.5 3.40788C454.647 3.49297 454.818 3.54167 455 3.54167V2.54167V1H456.625C457.177 1 457.625 0.552285 457.625 0H455H454H451.062ZM455 6.625C454.818 6.625 454.647 6.6737 454.5 6.75879C454.353 6.6737 454.182 6.625 454 6.625V7.625V12.7083V13.7083C454.182 13.7083 454.353 13.6596 454.5 13.5745C454.647 13.6596 454.818 13.7083 455 13.7083V12.7083V7.625V6.625ZM455 16.7917C454.818 16.7917 454.647 16.8404 454.5 16.9255C454.353 16.8404 454.182 16.7917 454 16.7917V17.7917V22.875V23.875C454.182 23.875 454.353 23.8263 454.5 23.7412C454.647 23.8263 454.818 23.875 455 23.875V22.875V17.7917V16.7917ZM455 26.9583C454.818 26.9583 454.647 27.007 454.5 27.0921C454.353 27.007 454.182 26.9583 454 26.9583V27.9583V33.0417V34.0417C454.182 34.0417 454.353 33.993 454.5 33.9079C454.647 33.993 454.818 34.0417 455 34.0417V33.0417V27.9583V26.9583ZM455 37.125C454.818 37.125 454.647 37.1737 454.5 37.2588C454.353 37.1737 454.182 37.125 454 37.125V38.125V43.2083V44.2083C454.182 44.2083 454.353 44.1596 454.5 44.0745C454.647 44.1596 454.818 44.2083 455 44.2083V43.2083V38.125V37.125ZM455 47.2917C454.818 47.2917 454.647 47.3404 454.5 47.4255C454.353 47.3404 454.182 47.2917 454 47.2917V48.2917V53.375V54.375C454.182 54.375 454.353 54.3263 454.5 54.2412C454.647 54.3263 454.818 54.375 455 54.375V53.375V48.2917V47.2917ZM455 57.4583C454.818 57.4583 454.647 57.507 454.5 57.5921C454.353 57.507 454.182 57.4583 454 57.4583V58.4583V60H452.062C451.51 60 451.062 60.4477 451.062 61H454H455H457.625C457.625 60.4477 457.177 60 456.625 60H455V58.4583V57.4583ZM447.188 61C447.188 60.4477 446.74 60 446.188 60H440.312C439.76 60 439.312 60.4477 439.312 61H447.188ZM435.438 61C435.438 60.4477 434.99 60 434.438 60H428.562C428.01 60 427.562 60.4477 427.562 61H435.438ZM423.688 61C423.688 60.4477 423.24 60 422.688 60H416.812C416.26 60 415.812 60.4477 415.812 61H423.688ZM461.875 1C461.323 1 460.875 0.552285 460.875 0H468.125C468.125 0.552285 467.677 1 467.125 1H461.875ZM472.375 1C471.823 1 471.375 0.552285 471.375 0H478.625C478.625 0.552285 478.177 1 477.625 1H472.375ZM482.875 1C482.323 1 481.875 0.552285 481.875 0H489.125C489.125 0.552285 488.677 1 488.125 1H482.875ZM493.375 1C492.823 1 492.375 0.552285 492.375 0H495H496H498.562C498.562 0.552285 498.115 1 497.562 1H496V2.54167V3.54167C495.818 3.54167 495.647 3.49297 495.5 3.40788C495.353 3.49297 495.182 3.54167 495 3.54167V2.54167V1H493.375ZM495.5 6.75879C495.647 6.6737 495.818 6.625 496 6.625V7.625V12.7083V13.7083C495.818 13.7083 495.647 13.6596 495.5 13.5745C495.353 13.6596 495.182 13.7083 495 13.7083V12.7083V7.625V6.625C495.182 6.625 495.353 6.6737 495.5 6.75879ZM495.5 16.9255C495.647 16.8404 495.818 16.7917 496 16.7917V17.7917V22.875V23.875C495.818 23.875 495.647 23.8263 495.5 23.7412C495.353 23.8263 495.182 23.875 495 23.875V22.875V17.7917V16.7917C495.182 16.7917 495.353 16.8404 495.5 16.9255ZM495.5 27.0921C495.647 27.007 495.818 26.9583 496 26.9583V27.9583V33.0417V34.0417C495.818 34.0417 495.647 33.993 495.5 33.9079C495.353 33.993 495.182 34.0417 495 34.0417V33.0417V27.9583V26.9583C495.182 26.9583 495.353 27.007 495.5 27.0921ZM495.5 37.2588C495.647 37.1737 495.818 37.125 496 37.125V38.125V43.2083V44.2083C495.818 44.2083 495.647 44.1596 495.5 44.0745C495.353 44.1596 495.182 44.2083 495 44.2083V43.2083V38.125V37.125C495.182 37.125 495.353 37.1737 495.5 37.2588ZM495.5 47.4255C495.647 47.3404 495.818 47.2917 496 47.2917V48.2917V53.375V54.375C495.818 54.375 495.647 54.3263 495.5 54.2412C495.353 54.3263 495.182 54.375 495 54.375V53.375V48.2917V47.2917C495.182 47.2917 495.353 47.3404 495.5 47.4255ZM495.5 57.5921C495.647 57.507 495.818 57.4583 496 57.4583V58.4583V60H497.562C498.115 60 498.562 60.4477 498.562 61H496H495H492.375C492.375 60.4477 492.823 60 493.375 60H495V58.4583V57.4583C495.182 57.4583 495.353 57.507 495.5 57.5921ZM488.125 60C488.677 60 489.125 60.4477 489.125 61H481.875C481.875 60.4477 482.323 60 482.875 60H488.125ZM477.625 60C478.177 60 478.625 60.4477 478.625 61H471.375C471.375 60.4477 471.823 60 472.375 60H477.625ZM467.125 60C467.677 60 468.125 60.4477 468.125 61H460.875C460.875 60.4477 461.323 60 461.875 60H467.125ZM501.688 0C501.688 0.552285 502.135 1 502.688 1H507.812C508.365 1 508.812 0.552285 508.812 0H501.688ZM511.938 0C511.938 0.552285 512.385 1 512.938 1H518.062C518.615 1 519.062 0.552285 519.062 0H511.938ZM522.188 0C522.188 0.552285 522.635 1 523.188 1H528.312C528.865 1 529.312 0.552285 529.312 0H522.188ZM532.438 0C532.438 0.552285 532.885 1 533.438 1H535V2.54167V3.54167C535.182 3.54167 535.353 3.49297 535.5 3.40789C535.647 3.49297 535.818 3.54167 536 3.54167V2.54167V1H537.875C538.427 1 538.875 0.552285 538.875 0H536H535H532.438ZM536 6.625C535.818 6.625 535.647 6.6737 535.5 6.75878C535.353 6.6737 535.182 6.625 535 6.625V7.625V12.7083V13.7083C535.182 13.7083 535.353 13.6596 535.5 13.5746C535.647 13.6596 535.818 13.7083 536 13.7083V12.7083V7.625V6.625ZM536 16.7917C535.818 16.7917 535.647 16.8404 535.5 16.9254C535.353 16.8404 535.182 16.7917 535 16.7917V17.7917V22.875V23.875C535.182 23.875 535.353 23.8263 535.5 23.7412C535.647 23.8263 535.818 23.875 536 23.875V22.875V17.7917V16.7917ZM536 26.9583C535.818 26.9583 535.647 27.007 535.5 27.0921C535.353 27.007 535.182 26.9583 535 26.9583V27.9583V33.0417V34.0417C535.182 34.0417 535.353 33.993 535.5 33.9079C535.647 33.993 535.818 34.0417 536 34.0417V33.0417V27.9583V26.9583ZM536 37.125C535.818 37.125 535.647 37.1737 535.5 37.2588C535.353 37.1737 535.182 37.125 535 37.125V38.125V43.2083V44.2083C535.182 44.2083 535.353 44.1596 535.5 44.0746C535.647 44.1596 535.818 44.2083 536 44.2083V43.2083V38.125V37.125ZM536 47.2917C535.818 47.2917 535.647 47.3404 535.5 47.4254C535.353 47.3404 535.182 47.2917 535 47.2917V48.2917V53.375V54.375C535.182 54.375 535.353 54.3263 535.5 54.2412C535.647 54.3263 535.818 54.375 536 54.375V53.375V48.2917V47.2917ZM536 57.4583C535.818 57.4583 535.647 57.507 535.5 57.5921C535.353 57.507 535.182 57.4583 535 57.4583V58.4583V60H533.438C532.885 60 532.438 60.4477 532.438 61H535H536H538.875C538.875 60.4477 538.427 60 537.875 60H536V58.4583V57.4583ZM529.312 61C529.312 60.4477 528.865 60 528.312 60H523.188C522.635 60 522.188 60.4477 522.188 61H529.312ZM519.062 61C519.062 60.4477 518.615 60 518.062 60H512.938C512.385 60 511.938 60.4477 511.938 61H519.062ZM508.812 61C508.812 60.4477 508.365 60 507.812 60H502.688C502.135 60 501.688 60.4477 501.688 61H508.812ZM543.625 1C543.073 1 542.625 0.552285 542.625 0H550.375C550.375 0.552285 549.927 1 549.375 1H543.625ZM555.125 1C554.573 1 554.125 0.552285 554.125 0H561.875C561.875 0.552285 561.427 1 560.875 1H555.125ZM566.625 1C566.073 1 565.625 0.552285 565.625 0H573.375C573.375 0.552285 572.927 1 572.375 1H566.625ZM578.125 1C577.573 1 577.125 0.552285 577.125 0H580H581H584C584 0.552285 583.552 1 583 1H581V2.54167V3.54167C580.818 3.54167 580.647 3.49297 580.5 3.40789C580.353 3.49297 580.182 3.54167 580 3.54167V2.54167V1H578.125ZM580.5 6.75878C580.647 6.6737 580.818 6.625 581 6.625V7.625V12.7083V13.7083C580.818 13.7083 580.647 13.6596 580.5 13.5746C580.353 13.6596 580.182 13.7083 580 13.7083V12.7083V7.625V6.625C580.182 6.625 580.353 6.6737 580.5 6.75878ZM580.5 16.9254C580.647 16.8404 580.818 16.7917 581 16.7917V17.7917V22.875V23.875C580.818 23.875 580.647 23.8263 580.5 23.7412C580.353 23.8263 580.182 23.875 580 23.875V22.875V17.7917V16.7917C580.182 16.7917 580.353 16.8404 580.5 16.9254ZM580.5 27.0921C580.647 27.007 580.818 26.9583 581 26.9583V27.9583V33.0417V34.0417C580.818 34.0417 580.647 33.993 580.5 33.9079C580.353 33.993 580.182 34.0417 580 34.0417V33.0417V27.9583V26.9583C580.182 26.9583 580.353 27.007 580.5 27.0921ZM580.5 37.2588C580.647 37.1737 580.818 37.125 581 37.125V38.125V43.2083V44.2083C580.818 44.2083 580.647 44.1596 580.5 44.0746C580.353 44.1596 580.182 44.2083 580 44.2083V43.2083V38.125V37.125C580.182 37.125 580.353 37.1737 580.5 37.2588ZM580.5 47.4254C580.647 47.3404 580.818 47.2917 581 47.2917V48.2917V53.375V54.375C580.818 54.375 580.647 54.3263 580.5 54.2412C580.353 54.3263 580.182 54.375 580 54.375V53.375V48.2917V47.2917C580.182 47.2917 580.353 47.3404 580.5 47.4254ZM580.5 57.5921C580.647 57.507 580.818 57.4583 581 57.4583V58.4583V60H583C583.552 60 584 60.4477 584 61H581H580H577.125C577.125 60.4477 577.573 60 578.125 60H580V58.4583V57.4583C580.182 57.4583 580.353 57.507 580.5 57.5921ZM572.375 60C572.927 60 573.375 60.4477 573.375 61H565.625C565.625 60.4477 566.073 60 566.625 60H572.375ZM560.875 60C561.427 60 561.875 60.4477 561.875 61H554.125C554.125 60.4477 554.573 60 555.125 60H560.875ZM549.375 60C549.927 60 550.375 60.4477 550.375 61H542.625C542.625 60.4477 543.073 60 543.625 60H549.375ZM588 0C588 0.552285 588.448 1 589 1H595C595.552 1 596 0.552285 596 0H588ZM600 0C600 0.552285 600.448 1 601 1H607C607.552 1 608 0.552285 608 0H600ZM612 0C612 0.552285 612.448 1 613 1H619C619.552 1 620 0.552285 620 0H612ZM624 0C624 0.552285 624.448 1 625 1H627V2.54167V3.54167C627.182 3.54167 627.353 3.49297 627.5 3.40789C627.647 3.49297 627.818 3.54167 628 3.54167V2.54167V1H629.812C630.365 1 630.812 0.552285 630.812 0H628H627H624ZM628 6.625C627.818 6.625 627.647 6.6737 627.5 6.75878C627.353 6.6737 627.182 6.625 627 6.625V7.625V12.7083V13.7083C627.182 13.7083 627.353 13.6596 627.5 13.5746C627.647 13.6596 627.818 13.7083 628 13.7083V12.7083V7.625V6.625ZM628 16.7917C627.818 16.7917 627.647 16.8404 627.5 16.9254C627.353 16.8404 627.182 16.7917 627 16.7917V17.7917V22.875V23.875C627.182 23.875 627.353 23.8263 627.5 23.7412C627.647 23.8263 627.818 23.875 628 23.875V22.875V17.7917V16.7917ZM628 26.9583C627.818 26.9583 627.647 27.007 627.5 27.0921C627.353 27.007 627.182 26.9583 627 26.9583V27.9583V33.0417V34.0417C627.182 34.0417 627.353 33.993 627.5 33.9079C627.647 33.993 627.818 34.0417 628 34.0417V33.0417V27.9583V26.9583ZM628 37.125C627.818 37.125 627.647 37.1737 627.5 37.2588C627.353 37.1737 627.182 37.125 627 37.125V38.125V43.2083V44.2083C627.182 44.2083 627.353 44.1596 627.5 44.0746C627.647 44.1596 627.818 44.2083 628 44.2083V43.2083V38.125V37.125ZM628 47.2917C627.818 47.2917 627.647 47.3404 627.5 47.4254C627.353 47.3404 627.182 47.2917 627 47.2917V48.2917V53.375V54.375C627.182 54.375 627.353 54.3263 627.5 54.2412C627.647 54.3263 627.818 54.375 628 54.375V53.375V48.2917V47.2917ZM628 57.4583C627.818 57.4583 627.647 57.507 627.5 57.5921C627.353 57.507 627.182 57.4583 627 57.4583V58.4583V60H625C624.448 60 624 60.4477 624 61H627H628H630.812C630.812 60.4477 630.365 60 629.812 60H628V58.4583V57.4583ZM620 61C620 60.4477 619.552 60 619 60H613C612.448 60 612 60.4477 612 61H620ZM608 61C608 60.4477 607.552 60 607 60H601C600.448 60 600 60.4477 600 61H608ZM596 61C596 60.4477 595.552 60 595 60H589C588.448 60 588 60.4477 588 61H596ZM635.438 1C634.885 1 634.438 0.552285 634.438 0H642.062C642.062 0.552285 641.615 1 641.062 1H635.438ZM646.688 1C646.135 1 645.688 0.552285 645.688 0H653.312C653.312 0.552285 652.865 1 652.312 1H646.688ZM657.938 1C657.385 1 656.938 0.552285 656.938 0H664.562C664.562 0.552285 664.115 1 663.562 1H657.938ZM669.188 1C668.635 1 668.188 0.552285 668.188 0H672V3.54167C671.448 3.54167 671 3.09396 671 2.54167V1H669.188ZM671 7.625C671 7.07272 671.448 6.625 672 6.625V13.7083C671.448 13.7083 671 13.2606 671 12.7083V7.625ZM671 17.7917C671 17.2394 671.448 16.7917 672 16.7917V23.875C671.448 23.875 671 23.4273 671 22.875V17.7917ZM671 27.9583C671 27.406 671.448 26.9583 672 26.9583V34.0417C671.448 34.0417 671 33.5939 671 33.0417V27.9583ZM671 38.125C671 37.5727 671.448 37.125 672 37.125V44.2083C671.448 44.2083 671 43.7606 671 43.2083V38.125ZM671 48.2917C671 47.7394 671.448 47.2917 672 47.2917V54.375C671.448 54.375 671 53.9273 671 53.375V48.2917ZM671 58.4583C671 57.906 671.448 57.4583 672 57.4583V61H668.188C668.188 60.4477 668.635 60 669.188 60H671V58.4583ZM663.562 60C664.115 60 664.562 60.4477 664.562 61H656.938C656.938 60.4477 657.385 60 657.938 60H663.562ZM652.312 60C652.865 60 653.312 60.4477 653.312 61H645.688C645.688 60.4477 646.135 60 646.688 60H652.312ZM641.062 60C641.615 60 642.062 60.4477 642.062 61H634.438C634.438 60.4477 634.885 60 635.438 60H641.062Z" fill="#BDBDBD"/>
</svg>
