<svg width="675" height="61" viewBox="0 0 675 61" fill="none" xmlns="http://www.w3.org/2000/svg">
<rect x="0.5" y="0.5" width="46" height="60" stroke="#BDBDBD" stroke-linecap="round" stroke-dasharray="5 5 5 5"/>
<rect x="-0.5" y="0.5" width="46" height="60" transform="matrix(-1 0 0 1 674 0)" stroke="#BDBDBD" stroke-linecap="round" stroke-dasharray="5 5 5 5"/>
<rect x="46.5" y="0.5" width="45" height="60" stroke="#BDBDBD" stroke-linecap="round" stroke-dasharray="5 5 5 5"/>
<rect x="-0.5" y="0.5" width="45" height="60" transform="matrix(-1 0 0 1 628 0)" stroke="#BDBDBD" stroke-linecap="round" stroke-dasharray="5 5 5 5"/>
<rect x="91.5" y="0.5" width="43" height="60" stroke="#BDBDBD" stroke-linecap="round" stroke-dasharray="5 5 5 5"/>
<rect x="-0.5" y="0.5" width="43" height="60" transform="matrix(-1 0 0 1 583 0)" stroke="#BDBDBD" stroke-linecap="round" stroke-dasharray="5 5 5 5"/>
<rect x="134.5" y="0.5" width="35" height="60" stroke="#BDBDBD" stroke-linecap="round" stroke-dasharray="5 5 5 5"/>
<rect x="-0.5" y="0.5" width="35" height="60" transform="matrix(-1 0 0 1 540 0)" stroke="#BDBDBD" stroke-linecap="round" stroke-dasharray="5 5 5 5"/>
<rect x="169.5" y="0.5" width="35" height="60" stroke="#BDBDBD" stroke-linecap="round" stroke-dasharray="5 5 5 5"/>
<rect x="-0.5" y="0.5" width="35" height="60" transform="matrix(-1 0 0 1 505 0)" stroke="#BDBDBD" stroke-linecap="round" stroke-dasharray="5 5 5 5"/>
<rect x="204.5" y="0.5" width="41" height="60" stroke="#BDBDBD" stroke-linecap="round" stroke-dasharray="5 5 5 5"/>
<rect x="-0.5" y="0.5" width="41" height="60" transform="matrix(-1 0 0 1 470 0)" stroke="#BDBDBD" stroke-linecap="round" stroke-dasharray="5 5 5 5"/>
<rect x="245.5" y="0.5" width="57" height="60" stroke="#BDBDBD" stroke-linecap="round" stroke-dasharray="5 5 5 5"/>
<rect x="-0.5" y="0.5" width="57" height="60" transform="matrix(-1 0 0 1 429 0)" stroke="#BDBDBD" stroke-linecap="round" stroke-dasharray="5 5 5 5"/>
<rect x="-0.5" y="0.5" width="70" height="60" transform="matrix(-1 0 0 1 372 0)" stroke="#BDBDBD" stroke-linecap="round" stroke-dasharray="5 5 5 5"/>
</svg>
