<svg width="675" height="61" viewBox="0 0 675 61" fill="none" xmlns="http://www.w3.org/2000/svg">
<path fill-rule="evenodd" clip-rule="evenodd" d="M0 0V3.54167C0.552285 3.54167 1 3.09395 1 2.54167V1H2.9375C3.48978 1 3.9375 0.552285 3.9375 0H0ZM7.8125 0C7.8125 0.552285 8.26021 1 8.8125 1H14.6875C15.2398 1 15.6875 0.552285 15.6875 0H7.8125ZM19.5625 0C19.5625 0.552285 20.0102 1 20.5625 1H26.4375C26.9898 1 27.4375 0.552285 27.4375 0H19.5625ZM31.3125 0C31.3125 0.552285 31.7602 1 32.3125 1H38.1875C38.7398 1 39.1875 0.552285 39.1875 0H31.3125ZM43.0625 0C43.0625 0.552285 43.5102 1 44.0625 1H46V2.54167V3.54167C46.1821 3.54167 46.3529 3.49297 46.5 3.40788C46.6471 3.49297 46.8179 3.54167 47 3.54167V2.54167V1H48.875C49.4273 1 49.875 0.552285 49.875 0H47H46H43.0625ZM47 6.625C46.8179 6.625 46.6471 6.6737 46.5 6.75879C46.3529 6.6737 46.1821 6.625 46 6.625V7.625V12.7083V13.7083C46.1821 13.7083 46.3529 13.6596 46.5 13.5745C46.6471 13.6596 46.8179 13.7083 47 13.7083V12.7083V7.625V6.625ZM47 16.7917C46.8179 16.7917 46.6471 16.8404 46.5 16.9255C46.3529 16.8404 46.1821 16.7917 46 16.7917V17.7917V22.875V23.875C46.1821 23.875 46.3529 23.8263 46.5 23.7412C46.6471 23.8263 46.8179 23.875 47 23.875V22.875V17.7917V16.7917ZM47 26.9583C46.8179 26.9583 46.6471 27.007 46.5 27.0921C46.3529 27.007 46.1821 26.9583 46 26.9583V27.9583V33.0417V34.0417C46.1821 34.0417 46.3529 33.993 46.5 33.9079C46.6471 33.993 46.8179 34.0417 47 34.0417V33.0417V27.9583V26.9583ZM47 37.125C46.8179 37.125 46.6471 37.1737 46.5 37.2588C46.3529 37.1737 46.1821 37.125 46 37.125V38.125V43.2083V44.2083C46.1821 44.2083 46.3529 44.1596 46.5 44.0745C46.6471 44.1596 46.8179 44.2083 47 44.2083V43.2083V38.125V37.125ZM47 47.2917C46.8179 47.2917 46.6471 47.3404 46.5 47.4254C46.3529 47.3404 46.1821 47.2917 46 47.2917V48.2917V53.375V54.375C46.1821 54.375 46.3529 54.3263 46.5 54.2412C46.6471 54.3263 46.8179 54.375 47 54.375V53.375V48.2917V47.2917ZM47 57.4583C46.8179 57.4583 46.6471 57.507 46.5 57.5921C46.3529 57.507 46.1821 57.4583 46 57.4583V58.4583V60H44.0625C43.5102 60 43.0625 60.4477 43.0625 61H46H47H49.875C49.875 60.4477 49.4273 60 48.875 60H47V58.4583V57.4583ZM39.1875 61C39.1875 60.4477 38.7398 60 38.1875 60H32.3125C31.7602 60 31.3125 60.4477 31.3125 61H39.1875ZM27.4375 61C27.4375 60.4477 26.9898 60 26.4375 60H20.5625C20.0102 60 19.5625 60.4477 19.5625 61H27.4375ZM15.6875 61C15.6875 60.4477 15.2398 60 14.6875 60H8.8125C8.26021 60 7.8125 60.4477 7.8125 61H15.6875ZM3.9375 61C3.9375 60.4477 3.48978 60 2.9375 60H1V58.4583C1 57.906 0.552285 57.4583 0 57.4583V61H3.9375ZM0 54.375C0.552285 54.375 1 53.9273 1 53.375V48.2917C1 47.7394 0.552285 47.2917 0 47.2917V54.375ZM0 44.2083C0.552285 44.2083 1 43.7606 1 43.2083V38.125C1 37.5727 0.552285 37.125 0 37.125V44.2083ZM0 34.0417C0.552285 34.0417 1 33.594 1 33.0417V27.9583C1 27.4061 0.552285 26.9583 0 26.9583V34.0417ZM0 23.875C0.552285 23.875 1 23.4273 1 22.875V17.7917C1 17.2394 0.552285 16.7917 0 16.7917V23.875ZM0 13.7083C0.552285 13.7083 1 13.2606 1 12.7083V7.625C1 7.07272 0.552285 6.625 0 6.625V13.7083ZM675 0V3.54167C674.448 3.54167 674 3.09395 674 2.54167V1H672.062C671.51 1 671.062 0.552285 671.062 0H675ZM667.188 0C667.188 0.552285 666.74 1 666.188 1H660.312C659.76 1 659.312 0.552285 659.312 0H667.188ZM655.438 0C655.438 0.552285 654.99 1 654.438 1H648.562C648.01 1 647.562 0.552285 647.562 0H655.438ZM643.688 0C643.688 0.552285 643.24 1 642.688 1H636.812C636.26 1 635.812 0.552285 635.812 0H643.688ZM631.938 0C631.938 0.552285 631.49 1 630.938 1H629V2.54167V3.54167C628.818 3.54167 628.647 3.49297 628.5 3.40789C628.353 3.49297 628.182 3.54167 628 3.54167V2.54167V1H626.125C625.573 1 625.125 0.552285 625.125 0H628H629H631.938ZM628 6.625C628.182 6.625 628.353 6.6737 628.5 6.75878C628.647 6.6737 628.818 6.625 629 6.625V7.625V12.7083V13.7083C628.818 13.7083 628.647 13.6596 628.5 13.5746C628.353 13.6596 628.182 13.7083 628 13.7083V12.7083V7.625V6.625ZM628 16.7917C628.182 16.7917 628.353 16.8404 628.5 16.9254C628.647 16.8404 628.818 16.7917 629 16.7917V17.7917V22.875V23.875C628.818 23.875 628.647 23.8263 628.5 23.7412C628.353 23.8263 628.182 23.875 628 23.875V22.875V17.7917V16.7917ZM628 26.9583C628.182 26.9583 628.353 27.007 628.5 27.0921C628.647 27.007 628.818 26.9583 629 26.9583V27.9583V33.0417V34.0417C628.818 34.0417 628.647 33.993 628.5 33.9079C628.353 33.993 628.182 34.0417 628 34.0417V33.0417V27.9583V26.9583ZM628 37.125C628.182 37.125 628.353 37.1737 628.5 37.2588C628.647 37.1737 628.818 37.125 629 37.125V38.125V43.2083V44.2083C628.818 44.2083 628.647 44.1596 628.5 44.0746C628.353 44.1596 628.182 44.2083 628 44.2083V43.2083V38.125V37.125ZM628 47.2917C628.182 47.2917 628.353 47.3404 628.5 47.4254C628.647 47.3404 628.818 47.2917 629 47.2917V48.2917V53.375V54.375C628.818 54.375 628.647 54.3263 628.5 54.2412C628.353 54.3263 628.182 54.375 628 54.375V53.375V48.2917V47.2917ZM628 57.4583C628.182 57.4583 628.353 57.507 628.5 57.5921C628.647 57.507 628.818 57.4583 629 57.4583V58.4583V60H630.938C631.49 60 631.938 60.4477 631.938 61H629H628H625.125C625.125 60.4477 625.573 60 626.125 60H628V58.4583V57.4583ZM635.812 61C635.812 60.4477 636.26 60 636.812 60H642.688C643.24 60 643.688 60.4477 643.688 61H635.812ZM647.562 61C647.562 60.4477 648.01 60 648.562 60H654.438C654.99 60 655.438 60.4477 655.438 61H647.562ZM659.312 61C659.312 60.4477 659.76 60 660.312 60H666.188C666.74 60 667.188 60.4477 667.188 61H659.312ZM671.062 61C671.062 60.4477 671.51 60 672.062 60H674V58.4583C674 57.906 674.448 57.4583 675 57.4583V61H671.062ZM675 54.375C674.448 54.375 674 53.9273 674 53.375V48.2917C674 47.7394 674.448 47.2917 675 47.2917V54.375ZM675 44.2083C674.448 44.2083 674 43.7606 674 43.2083V38.125C674 37.5727 674.448 37.125 675 37.125V44.2083ZM675 34.0417C674.448 34.0417 674 33.594 674 33.0417V27.9583C674 27.4061 674.448 26.9583 675 26.9583V34.0417ZM675 23.875C674.448 23.875 674 23.4273 674 22.875V17.7917C674 17.2394 674.448 16.7917 675 16.7917V23.875ZM675 13.7083C674.448 13.7083 674 13.2606 674 12.7083V7.625C674 7.07272 674.448 6.625 675 6.625V13.7083ZM54.625 1C54.0727 1 53.625 0.552285 53.625 0H61.375C61.375 0.552285 60.9273 1 60.375 1H54.625ZM66.125 1C65.5727 1 65.125 0.552285 65.125 0H72.875C72.875 0.552285 72.4273 1 71.875 1H66.125ZM77.625 1C77.0727 1 76.625 0.552285 76.625 0H84.375C84.375 0.552285 83.9273 1 83.375 1H77.625ZM89.125 1C88.5727 1 88.125 0.552285 88.125 0H91H92H94.75C94.75 0.552285 94.3023 1 93.75 1H92V2.54167V3.54167C91.8179 3.54167 91.6471 3.49297 91.5 3.40788C91.3529 3.49297 91.1821 3.54167 91 3.54167V2.54167V1H89.125ZM91.5 6.75879C91.6471 6.6737 91.8179 6.625 92 6.625V7.625V12.7083V13.7083C91.8179 13.7083 91.6471 13.6596 91.5 13.5745C91.3529 13.6596 91.1821 13.7083 91 13.7083V12.7083V7.625V6.625C91.1821 6.625 91.3529 6.6737 91.5 6.75879ZM91.5 16.9255C91.6471 16.8404 91.8179 16.7917 92 16.7917V17.7917V22.875V23.875C91.8179 23.875 91.6471 23.8263 91.5 23.7412C91.3529 23.8263 91.1821 23.875 91 23.875V22.875V17.7917V16.7917C91.1821 16.7917 91.3529 16.8404 91.5 16.9255ZM91.5 27.0921C91.6471 27.007 91.8179 26.9583 92 26.9583V27.9583V33.0417V34.0417C91.8179 34.0417 91.6471 33.993 91.5 33.9079C91.3529 33.993 91.1821 34.0417 91 34.0417V33.0417V27.9583V26.9583C91.1821 26.9583 91.3529 27.007 91.5 27.0921ZM91.5 37.2588C91.6471 37.1737 91.8179 37.125 92 37.125V38.125V43.2083V44.2083C91.8179 44.2083 91.6471 44.1596 91.5 44.0745C91.3529 44.1596 91.1821 44.2083 91 44.2083V43.2083V38.125V37.125C91.1821 37.125 91.3529 37.1737 91.5 37.2588ZM91.5 47.4254C91.6471 47.3404 91.8179 47.2917 92 47.2917V48.2917V53.375V54.375C91.8179 54.375 91.6471 54.3263 91.5 54.2412C91.3529 54.3263 91.1821 54.375 91 54.375V53.375V48.2917V47.2917C91.1821 47.2917 91.3529 47.3404 91.5 47.4254ZM91.5 57.5921C91.6471 57.507 91.8179 57.4583 92 57.4583V58.4583V60H93.75C94.3023 60 94.75 60.4477 94.75 61H92H91H88.125C88.125 60.4477 88.5727 60 89.125 60H91V58.4583V57.4583C91.1821 57.4583 91.3529 57.507 91.5 57.5921ZM83.375 60C83.9273 60 84.375 60.4477 84.375 61H76.625C76.625 60.4477 77.0727 60 77.625 60H83.375ZM71.875 60C72.4273 60 72.875 60.4477 72.875 61H65.125C65.125 60.4477 65.5727 60 66.125 60H71.875ZM60.375 60C60.9273 60 61.375 60.4477 61.375 61H53.625C53.625 60.4477 54.0727 60 54.625 60H60.375ZM621.375 0C621.375 0.552285 620.927 1 620.375 1H614.625C614.073 1 613.625 0.552285 613.625 0H621.375ZM609.875 0C609.875 0.552285 609.427 1 608.875 1H603.125C602.573 1 602.125 0.552285 602.125 0H609.875ZM598.375 0C598.375 0.552285 597.927 1 597.375 1H591.625C591.073 1 590.625 0.552285 590.625 0H598.375ZM586.875 0C586.875 0.552285 586.427 1 585.875 1H584V2.54167V3.54167C583.818 3.54167 583.647 3.49297 583.5 3.40789C583.353 3.49297 583.182 3.54167 583 3.54167V2.54167V1H581.25C580.698 1 580.25 0.552285 580.25 0H583H584H586.875ZM583 6.625C583.182 6.625 583.353 6.6737 583.5 6.75878C583.647 6.6737 583.818 6.625 584 6.625V7.625V12.7083V13.7083C583.818 13.7083 583.647 13.6596 583.5 13.5746C583.353 13.6596 583.182 13.7083 583 13.7083V12.7083V7.625V6.625ZM583 16.7917C583.182 16.7917 583.353 16.8404 583.5 16.9254C583.647 16.8404 583.818 16.7917 584 16.7917V17.7917V22.875V23.875C583.818 23.875 583.647 23.8263 583.5 23.7412C583.353 23.8263 583.182 23.875 583 23.875V22.875V17.7917V16.7917ZM583 26.9583C583.182 26.9583 583.353 27.007 583.5 27.0921C583.647 27.007 583.818 26.9583 584 26.9583V27.9583V33.0417V34.0417C583.818 34.0417 583.647 33.993 583.5 33.9079C583.353 33.993 583.182 34.0417 583 34.0417V33.0417V27.9583V26.9583ZM583 37.125C583.182 37.125 583.353 37.1737 583.5 37.2588C583.647 37.1737 583.818 37.125 584 37.125V38.125V43.2083V44.2083C583.818 44.2083 583.647 44.1596 583.5 44.0746C583.353 44.1596 583.182 44.2083 583 44.2083V43.2083V38.125V37.125ZM583 47.2917C583.182 47.2917 583.353 47.3404 583.5 47.4254C583.647 47.3404 583.818 47.2917 584 47.2917V48.2917V53.375V54.375C583.818 54.375 583.647 54.3263 583.5 54.2412C583.353 54.3263 583.182 54.375 583 54.375V53.375V48.2917V47.2917ZM583 57.4583C583.182 57.4583 583.353 57.507 583.5 57.5921C583.647 57.507 583.818 57.4583 584 57.4583V58.4583V60H585.875C586.427 60 586.875 60.4477 586.875 61H584H583H580.25C580.25 60.4477 580.698 60 581.25 60H583V58.4583V57.4583ZM590.625 61C590.625 60.4477 591.073 60 591.625 60H597.375C597.927 60 598.375 60.4477 598.375 61H590.625ZM602.125 61C602.125 60.4477 602.573 60 603.125 60H608.875C609.427 60 609.875 60.4477 609.875 61H602.125ZM613.625 61C613.625 60.4477 614.073 60 614.625 60H620.375C620.927 60 621.375 60.4477 621.375 61H613.625ZM99.25 1C98.6977 1 98.25 0.552285 98.25 0H105.75C105.75 0.552285 105.302 1 104.75 1H99.25ZM110.25 1C109.698 1 109.25 0.552285 109.25 0H116.75C116.75 0.552285 116.302 1 115.75 1H110.25ZM121.25 1C120.698 1 120.25 0.552285 120.25 0H127.75C127.75 0.552285 127.302 1 126.75 1H121.25ZM132.25 1C131.698 1 131.25 0.552285 131.25 0H134H135H137.25C137.25 0.552285 136.802 1 136.25 1H135V2.54167V3.54167C134.818 3.54167 134.647 3.49297 134.5 3.40788C134.353 3.49297 134.182 3.54167 134 3.54167V2.54167V1H132.25ZM134.5 6.75879C134.647 6.6737 134.818 6.625 135 6.625V7.625V12.7083V13.7083C134.818 13.7083 134.647 13.6596 134.5 13.5745C134.353 13.6596 134.182 13.7083 134 13.7083V12.7083V7.625V6.625C134.182 6.625 134.353 6.6737 134.5 6.75879ZM134.5 16.9255C134.647 16.8404 134.818 16.7917 135 16.7917V17.7917V22.875V23.875C134.818 23.875 134.647 23.8263 134.5 23.7412C134.353 23.8263 134.182 23.875 134 23.875V22.875V17.7917V16.7917C134.182 16.7917 134.353 16.8404 134.5 16.9255ZM134.5 27.0921C134.647 27.007 134.818 26.9583 135 26.9583V27.9583V33.0417V34.0417C134.818 34.0417 134.647 33.993 134.5 33.9079C134.353 33.993 134.182 34.0417 134 34.0417V33.0417V27.9583V26.9583C134.182 26.9583 134.353 27.007 134.5 27.0921ZM134.5 37.2588C134.647 37.1737 134.818 37.125 135 37.125V38.125V43.2083V44.2083C134.818 44.2083 134.647 44.1596 134.5 44.0745C134.353 44.1596 134.182 44.2083 134 44.2083V43.2083V38.125V37.125C134.182 37.125 134.353 37.1737 134.5 37.2588ZM134.5 47.4254C134.647 47.3404 134.818 47.2917 135 47.2917V48.2917V53.375V54.375C134.818 54.375 134.647 54.3263 134.5 54.2412C134.353 54.3263 134.182 54.375 134 54.375V53.375V48.2917V47.2917C134.182 47.2917 134.353 47.3404 134.5 47.4254ZM134.5 57.5921C134.647 57.507 134.818 57.4583 135 57.4583V58.4583V60H136.25C136.802 60 137.25 60.4477 137.25 61H135H134H131.25C131.25 60.4477 131.698 60 132.25 60H134V58.4583V57.4583C134.182 57.4583 134.353 57.507 134.5 57.5921ZM126.75 60C127.302 60 127.75 60.4477 127.75 61H120.25C120.25 60.4477 120.698 60 121.25 60H126.75ZM115.75 60C116.302 60 116.75 60.4477 116.75 61H109.25C109.25 60.4477 109.698 60 110.25 60H115.75ZM104.75 60C105.302 60 105.75 60.4477 105.75 61H98.25C98.25 60.4477 98.6977 60 99.25 60H104.75ZM576.75 0C576.75 0.552285 576.302 1 575.75 1H570.25C569.698 1 569.25 0.552285 569.25 0H576.75ZM565.75 0C565.75 0.552285 565.302 1 564.75 1H559.25C558.698 1 558.25 0.552285 558.25 0H565.75ZM554.75 0C554.75 0.552285 554.302 1 553.75 1H548.25C547.698 1 547.25 0.552285 547.25 0H554.75ZM543.75 0C543.75 0.552285 543.302 1 542.75 1H541V2.54167V3.54167C540.818 3.54167 540.647 3.49297 540.5 3.40789C540.353 3.49297 540.182 3.54167 540 3.54167V2.54167V1H538.75C538.198 1 537.75 0.552285 537.75 0H540H541H543.75ZM540 6.625C540.182 6.625 540.353 6.6737 540.5 6.75878C540.647 6.6737 540.818 6.625 541 6.625V7.625V12.7083V13.7083C540.818 13.7083 540.647 13.6596 540.5 13.5746C540.353 13.6596 540.182 13.7083 540 13.7083V12.7083V7.625V6.625ZM540 16.7917C540.182 16.7917 540.353 16.8404 540.5 16.9254C540.647 16.8404 540.818 16.7917 541 16.7917V17.7917V22.875V23.875C540.818 23.875 540.647 23.8263 540.5 23.7412C540.353 23.8263 540.182 23.875 540 23.875V22.875V17.7917V16.7917ZM540 26.9583C540.182 26.9583 540.353 27.007 540.5 27.0921C540.647 27.007 540.818 26.9583 541 26.9583V27.9583V33.0417V34.0417C540.818 34.0417 540.647 33.993 540.5 33.9079C540.353 33.993 540.182 34.0417 540 34.0417V33.0417V27.9583V26.9583ZM540 37.125C540.182 37.125 540.353 37.1737 540.5 37.2588C540.647 37.1737 540.818 37.125 541 37.125V38.125V43.2083V44.2083C540.818 44.2083 540.647 44.1596 540.5 44.0746C540.353 44.1596 540.182 44.2083 540 44.2083V43.2083V38.125V37.125ZM540 47.2917C540.182 47.2917 540.353 47.3404 540.5 47.4254C540.647 47.3404 540.818 47.2917 541 47.2917V48.2917V53.375V54.375C540.818 54.375 540.647 54.3263 540.5 54.2412C540.353 54.3263 540.182 54.375 540 54.375V53.375V48.2917V47.2917ZM540 57.4583C540.182 57.4583 540.353 57.507 540.5 57.5921C540.647 57.507 540.818 57.4583 541 57.4583V58.4583V60H542.75C543.302 60 543.75 60.4477 543.75 61H541H540H537.75C537.75 60.4477 538.198 60 538.75 60H540V58.4583V57.4583ZM547.25 61C547.25 60.4477 547.698 60 548.25 60H553.75C554.302 60 554.75 60.4477 554.75 61H547.25ZM558.25 61C558.25 60.4477 558.698 60 559.25 60H564.75C565.302 60 565.75 60.4477 565.75 61H558.25ZM569.25 61C569.25 60.4477 569.698 60 570.25 60H575.75C576.302 60 576.75 60.4477 576.75 61H569.25ZM140.75 1C140.198 1 139.75 0.552285 139.75 0H146.25C146.25 0.552285 145.802 1 145.25 1H140.75ZM149.75 1C149.198 1 148.75 0.552285 148.75 0H155.25C155.25 0.552285 154.802 1 154.25 1H149.75ZM158.75 1C158.198 1 157.75 0.552285 157.75 0H164.25C164.25 0.552285 163.802 1 163.25 1H158.75ZM167.75 1C167.198 1 166.75 0.552285 166.75 0H169H170H172.25C172.25 0.552285 171.802 1 171.25 1H170V2.54167V3.54167C169.818 3.54167 169.647 3.49297 169.5 3.40788C169.353 3.49297 169.182 3.54167 169 3.54167V2.54167V1H167.75ZM169.5 6.75879C169.647 6.6737 169.818 6.625 170 6.625V7.625V12.7083V13.7083C169.818 13.7083 169.647 13.6596 169.5 13.5745C169.353 13.6596 169.182 13.7083 169 13.7083V12.7083V7.625V6.625C169.182 6.625 169.353 6.6737 169.5 6.75879ZM169.5 16.9255C169.647 16.8404 169.818 16.7917 170 16.7917V17.7917V22.875V23.875C169.818 23.875 169.647 23.8263 169.5 23.7412C169.353 23.8263 169.182 23.875 169 23.875V22.875V17.7917V16.7917C169.182 16.7917 169.353 16.8404 169.5 16.9255ZM169.5 27.0921C169.647 27.007 169.818 26.9583 170 26.9583V27.9583V33.0417V34.0417C169.818 34.0417 169.647 33.993 169.5 33.9079C169.353 33.993 169.182 34.0417 169 34.0417V33.0417V27.9583V26.9583C169.182 26.9583 169.353 27.007 169.5 27.0921ZM169.5 37.2588C169.647 37.1737 169.818 37.125 170 37.125V38.125V43.2083V44.2083C169.818 44.2083 169.647 44.1596 169.5 44.0745C169.353 44.1596 169.182 44.2083 169 44.2083V43.2083V38.125V37.125C169.182 37.125 169.353 37.1737 169.5 37.2588ZM169.5 47.4254C169.647 47.3404 169.818 47.2917 170 47.2917V48.2917V53.375V54.375C169.818 54.375 169.647 54.3263 169.5 54.2412C169.353 54.3263 169.182 54.375 169 54.375V53.375V48.2917V47.2917C169.182 47.2917 169.353 47.3404 169.5 47.4254ZM169.5 57.5921C169.647 57.507 169.818 57.4583 170 57.4583V58.4583V60H171.25C171.802 60 172.25 60.4477 172.25 61H170H169H166.75C166.75 60.4477 167.198 60 167.75 60H169V58.4583V57.4583C169.182 57.4583 169.353 57.507 169.5 57.5921ZM163.25 60C163.802 60 164.25 60.4477 164.25 61H157.75C157.75 60.4477 158.198 60 158.75 60H163.25ZM154.25 60C154.802 60 155.25 60.4477 155.25 61H148.75C148.75 60.4477 149.198 60 149.75 60H154.25ZM145.25 60C145.802 60 146.25 60.4477 146.25 61H139.75C139.75 60.4477 140.198 60 140.75 60H145.25ZM535.25 0C535.25 0.552285 534.802 1 534.25 1H529.75C529.198 1 528.75 0.552285 528.75 0H535.25ZM526.25 0C526.25 0.552285 525.802 1 525.25 1H520.75C520.198 1 519.75 0.552285 519.75 0H526.25ZM517.25 0C517.25 0.552285 516.802 1 516.25 1H511.75C511.198 1 510.75 0.552285 510.75 0H517.25ZM508.25 0C508.25 0.552285 507.802 1 507.25 1H506V2.54167V3.54167C505.818 3.54167 505.647 3.49297 505.5 3.40788C505.353 3.49297 505.182 3.54167 505 3.54167V2.54167V1H503.75C503.198 1 502.75 0.552285 502.75 0H505H506H508.25ZM505 6.625C505.182 6.625 505.353 6.6737 505.5 6.75879C505.647 6.6737 505.818 6.625 506 6.625V7.625V12.7083V13.7083C505.818 13.7083 505.647 13.6596 505.5 13.5745C505.353 13.6596 505.182 13.7083 505 13.7083V12.7083V7.625V6.625ZM505 16.7917C505.182 16.7917 505.353 16.8404 505.5 16.9255C505.647 16.8404 505.818 16.7917 506 16.7917V17.7917V22.875V23.875C505.818 23.875 505.647 23.8263 505.5 23.7412C505.353 23.8263 505.182 23.875 505 23.875V22.875V17.7917V16.7917ZM505 26.9583C505.182 26.9583 505.353 27.007 505.5 27.0921C505.647 27.007 505.818 26.9583 506 26.9583V27.9583V33.0417V34.0417C505.818 34.0417 505.647 33.993 505.5 33.9079C505.353 33.993 505.182 34.0417 505 34.0417V33.0417V27.9583V26.9583ZM505 37.125C505.182 37.125 505.353 37.1737 505.5 37.2588C505.647 37.1737 505.818 37.125 506 37.125V38.125V43.2083V44.2083C505.818 44.2083 505.647 44.1596 505.5 44.0745C505.353 44.1596 505.182 44.2083 505 44.2083V43.2083V38.125V37.125ZM505 47.2917C505.182 47.2917 505.353 47.3404 505.5 47.4255C505.647 47.3404 505.818 47.2917 506 47.2917V48.2917V53.375V54.375C505.818 54.375 505.647 54.3263 505.5 54.2412C505.353 54.3263 505.182 54.375 505 54.375V53.375V48.2917V47.2917ZM505 57.4583C505.182 57.4583 505.353 57.507 505.5 57.5921C505.647 57.507 505.818 57.4583 506 57.4583V58.4583V60H507.25C507.802 60 508.25 60.4477 508.25 61H506H505H502.75C502.75 60.4477 503.198 60 503.75 60H505V58.4583V57.4583ZM510.75 61C510.75 60.4477 511.198 60 511.75 60H516.25C516.802 60 517.25 60.4477 517.25 61H510.75ZM519.75 61C519.75 60.4477 520.198 60 520.75 60H525.25C525.802 60 526.25 60.4477 526.25 61H519.75ZM528.75 61C528.75 60.4477 529.198 60 529.75 60H534.25C534.802 60 535.25 60.4477 535.25 61H528.75ZM175.75 1C175.198 1 174.75 0.552285 174.75 0H181.25C181.25 0.552285 180.802 1 180.25 1H175.75ZM184.75 1C184.198 1 183.75 0.552285 183.75 0H190.25C190.25 0.552285 189.802 1 189.25 1H184.75ZM193.75 1C193.198 1 192.75 0.552285 192.75 0H199.25C199.25 0.552285 198.802 1 198.25 1H193.75ZM202.75 1C202.198 1 201.75 0.552285 201.75 0H204H205H207.625C207.625 0.552285 207.177 1 206.625 1H205V2.54167V3.54167C204.818 3.54167 204.647 3.49297 204.5 3.40788C204.353 3.49297 204.182 3.54167 204 3.54167V2.54167V1H202.75ZM204.5 6.75879C204.647 6.6737 204.818 6.625 205 6.625V7.625V12.7083V13.7083C204.818 13.7083 204.647 13.6596 204.5 13.5745C204.353 13.6596 204.182 13.7083 204 13.7083V12.7083V7.625V6.625C204.182 6.625 204.353 6.6737 204.5 6.75879ZM204.5 16.9255C204.647 16.8404 204.818 16.7917 205 16.7917V17.7917V22.875V23.875C204.818 23.875 204.647 23.8263 204.5 23.7412C204.353 23.8263 204.182 23.875 204 23.875V22.875V17.7917V16.7917C204.182 16.7917 204.353 16.8404 204.5 16.9255ZM204.5 27.0921C204.647 27.007 204.818 26.9583 205 26.9583V27.9583V33.0417V34.0417C204.818 34.0417 204.647 33.993 204.5 33.9079C204.353 33.993 204.182 34.0417 204 34.0417V33.0417V27.9583V26.9583C204.182 26.9583 204.353 27.007 204.5 27.0921ZM204.5 37.2588C204.647 37.1737 204.818 37.125 205 37.125V38.125V43.2083V44.2083C204.818 44.2083 204.647 44.1596 204.5 44.0745C204.353 44.1596 204.182 44.2083 204 44.2083V43.2083V38.125V37.125C204.182 37.125 204.353 37.1737 204.5 37.2588ZM204.5 47.4254C204.647 47.3404 204.818 47.2917 205 47.2917V48.2917V53.375V54.375C204.818 54.375 204.647 54.3263 204.5 54.2412C204.353 54.3263 204.182 54.375 204 54.375V53.375V48.2917V47.2917C204.182 47.2917 204.353 47.3404 204.5 47.4254ZM204.5 57.5921C204.647 57.507 204.818 57.4583 205 57.4583V58.4583V60H206.625C207.177 60 207.625 60.4477 207.625 61H205H204H201.75C201.75 60.4477 202.198 60 202.75 60H204V58.4583V57.4583C204.182 57.4583 204.353 57.507 204.5 57.5921ZM198.25 60C198.802 60 199.25 60.4477 199.25 61H192.75C192.75 60.4477 193.198 60 193.75 60H198.25ZM189.25 60C189.802 60 190.25 60.4477 190.25 61H183.75C183.75 60.4477 184.198 60 184.75 60H189.25ZM180.25 60C180.802 60 181.25 60.4477 181.25 61H174.75C174.75 60.4477 175.198 60 175.75 60H180.25ZM500.25 0C500.25 0.552285 499.802 1 499.25 1H494.75C494.198 1 493.75 0.552285 493.75 0H500.25ZM491.25 0C491.25 0.552285 490.802 1 490.25 1H485.75C485.198 1 484.75 0.552285 484.75 0H491.25ZM482.25 0C482.25 0.552285 481.802 1 481.25 1H476.75C476.198 1 475.75 0.552285 475.75 0H482.25ZM473.25 0C473.25 0.552285 472.802 1 472.25 1H471V2.54167V3.54167C470.818 3.54167 470.647 3.49297 470.5 3.40788C470.353 3.49297 470.182 3.54167 470 3.54167V2.54167V1H468.375C467.823 1 467.375 0.552285 467.375 0H470H471H473.25ZM470 6.625C470.182 6.625 470.353 6.6737 470.5 6.75879C470.647 6.6737 470.818 6.625 471 6.625V7.625V12.7083V13.7083C470.818 13.7083 470.647 13.6596 470.5 13.5745C470.353 13.6596 470.182 13.7083 470 13.7083V12.7083V7.625V6.625ZM470 16.7917C470.182 16.7917 470.353 16.8404 470.5 16.9255C470.647 16.8404 470.818 16.7917 471 16.7917V17.7917V22.875V23.875C470.818 23.875 470.647 23.8263 470.5 23.7412C470.353 23.8263 470.182 23.875 470 23.875V22.875V17.7917V16.7917ZM470 26.9583C470.182 26.9583 470.353 27.007 470.5 27.0921C470.647 27.007 470.818 26.9583 471 26.9583V27.9583V33.0417V34.0417C470.818 34.0417 470.647 33.993 470.5 33.9079C470.353 33.993 470.182 34.0417 470 34.0417V33.0417V27.9583V26.9583ZM470 37.125C470.182 37.125 470.353 37.1737 470.5 37.2588C470.647 37.1737 470.818 37.125 471 37.125V38.125V43.2083V44.2083C470.818 44.2083 470.647 44.1596 470.5 44.0745C470.353 44.1596 470.182 44.2083 470 44.2083V43.2083V38.125V37.125ZM470 47.2917C470.182 47.2917 470.353 47.3404 470.5 47.4255C470.647 47.3404 470.818 47.2917 471 47.2917V48.2917V53.375V54.375C470.818 54.375 470.647 54.3263 470.5 54.2412C470.353 54.3263 470.182 54.375 470 54.375V53.375V48.2917V47.2917ZM470 57.4583C470.182 57.4583 470.353 57.507 470.5 57.5921C470.647 57.507 470.818 57.4583 471 57.4583V58.4583V60H472.25C472.802 60 473.25 60.4477 473.25 61H471H470H467.375C467.375 60.4477 467.823 60 468.375 60H470V58.4583V57.4583ZM475.75 61C475.75 60.4477 476.198 60 476.75 60H481.25C481.802 60 482.25 60.4477 482.25 61H475.75ZM484.75 61C484.75 60.4477 485.198 60 485.75 60H490.25C490.802 60 491.25 60.4477 491.25 61H484.75ZM493.75 61C493.75 60.4477 494.198 60 494.75 60H499.25C499.802 60 500.25 60.4477 500.25 61H493.75ZM211.875 1C211.323 1 210.875 0.552285 210.875 0H218.125C218.125 0.552285 217.677 1 217.125 1H211.875ZM222.375 1C221.823 1 221.375 0.552285 221.375 0H228.625C228.625 0.552285 228.177 1 227.625 1H222.375ZM232.875 1C232.323 1 231.875 0.552285 231.875 0H239.125C239.125 0.552285 238.677 1 238.125 1H232.875ZM243.375 1C242.823 1 242.375 0.552285 242.375 0H245H246H248.417C248.417 0.552285 247.969 1 247.417 1H246V2.54167V3.54167C245.818 3.54167 245.647 3.49297 245.5 3.40788C245.353 3.49297 245.182 3.54167 245 3.54167V2.54167V1H243.375ZM245.5 6.75879C245.647 6.6737 245.818 6.625 246 6.625V7.625V12.7083V13.7083C245.818 13.7083 245.647 13.6596 245.5 13.5745C245.353 13.6596 245.182 13.7083 245 13.7083V12.7083V7.625V6.625C245.182 6.625 245.353 6.6737 245.5 6.75879ZM245.5 16.9255C245.647 16.8404 245.818 16.7917 246 16.7917V17.7917V22.875V23.875C245.818 23.875 245.647 23.8263 245.5 23.7412C245.353 23.8263 245.182 23.875 245 23.875V22.875V17.7917V16.7917C245.182 16.7917 245.353 16.8404 245.5 16.9255ZM245.5 27.0921C245.647 27.007 245.818 26.9583 246 26.9583V27.9583V33.0417V34.0417C245.818 34.0417 245.647 33.993 245.5 33.9079C245.353 33.993 245.182 34.0417 245 34.0417V33.0417V27.9583V26.9583C245.182 26.9583 245.353 27.007 245.5 27.0921ZM245.5 37.2588C245.647 37.1737 245.818 37.125 246 37.125V38.125V43.2083V44.2083C245.818 44.2083 245.647 44.1596 245.5 44.0745C245.353 44.1596 245.182 44.2083 245 44.2083V43.2083V38.125V37.125C245.182 37.125 245.353 37.1737 245.5 37.2588ZM245.5 47.4254C245.647 47.3404 245.818 47.2917 246 47.2917V48.2917V53.375V54.375C245.818 54.375 245.647 54.3263 245.5 54.2412C245.353 54.3263 245.182 54.375 245 54.375V53.375V48.2917V47.2917C245.182 47.2917 245.353 47.3404 245.5 47.4254ZM245.5 57.5921C245.647 57.507 245.818 57.4583 246 57.4583V58.4583V60H247.417C247.969 60 248.417 60.4477 248.417 61H246H245H242.375C242.375 60.4477 242.823 60 243.375 60H245V58.4583V57.4583C245.182 57.4583 245.353 57.507 245.5 57.5921ZM238.125 60C238.677 60 239.125 60.4477 239.125 61H231.875C231.875 60.4477 232.323 60 232.875 60H238.125ZM227.625 60C228.177 60 228.625 60.4477 228.625 61H221.375C221.375 60.4477 221.823 60 222.375 60H227.625ZM217.125 60C217.677 60 218.125 60.4477 218.125 61H210.875C210.875 60.4477 211.323 60 211.875 60H217.125ZM464.125 0C464.125 0.552285 463.677 1 463.125 1H457.875C457.323 1 456.875 0.552285 456.875 0H464.125ZM453.625 0C453.625 0.552285 453.177 1 452.625 1H447.375C446.823 1 446.375 0.552285 446.375 0H453.625ZM443.125 0C443.125 0.552285 442.677 1 442.125 1H436.875C436.323 1 435.875 0.552285 435.875 0H443.125ZM432.625 0C432.625 0.552285 432.177 1 431.625 1H430V2.54167V3.54167C429.818 3.54167 429.647 3.49297 429.5 3.40788C429.353 3.49297 429.182 3.54167 429 3.54167V2.54167V1H427.583C427.031 1 426.583 0.552285 426.583 0H429H430H432.625ZM429 6.625C429.182 6.625 429.353 6.6737 429.5 6.75879C429.647 6.6737 429.818 6.625 430 6.625V7.625V12.7083V13.7083C429.818 13.7083 429.647 13.6596 429.5 13.5745C429.353 13.6596 429.182 13.7083 429 13.7083V12.7083V7.625V6.625ZM429 16.7917C429.182 16.7917 429.353 16.8404 429.5 16.9255C429.647 16.8404 429.818 16.7917 430 16.7917V17.7917V22.875V23.875C429.818 23.875 429.647 23.8263 429.5 23.7412C429.353 23.8263 429.182 23.875 429 23.875V22.875V17.7917V16.7917ZM429 26.9583C429.182 26.9583 429.353 27.007 429.5 27.0921C429.647 27.007 429.818 26.9583 430 26.9583V27.9583V33.0417V34.0417C429.818 34.0417 429.647 33.993 429.5 33.9079C429.353 33.993 429.182 34.0417 429 34.0417V33.0417V27.9583V26.9583ZM429 37.125C429.182 37.125 429.353 37.1737 429.5 37.2588C429.647 37.1737 429.818 37.125 430 37.125V38.125V43.2083V44.2083C429.818 44.2083 429.647 44.1596 429.5 44.0745C429.353 44.1596 429.182 44.2083 429 44.2083V43.2083V38.125V37.125ZM429 47.2917C429.182 47.2917 429.353 47.3404 429.5 47.4255C429.647 47.3404 429.818 47.2917 430 47.2917V48.2917V53.375V54.375C429.818 54.375 429.647 54.3263 429.5 54.2412C429.353 54.3263 429.182 54.375 429 54.375V53.375V48.2917V47.2917ZM429 57.4583C429.182 57.4583 429.353 57.507 429.5 57.5921C429.647 57.507 429.818 57.4583 430 57.4583V58.4583V60H431.625C432.177 60 432.625 60.4477 432.625 61H430H429H426.583C426.583 60.4477 427.031 60 427.583 60H429V58.4583V57.4583ZM435.875 61C435.875 60.4477 436.323 60 436.875 60H442.125C442.677 60 443.125 60.4477 443.125 61H435.875ZM446.375 61C446.375 60.4477 446.823 60 447.375 60H452.625C453.177 60 453.625 60.4477 453.625 61H446.375ZM456.875 61C456.875 60.4477 457.323 60 457.875 60H463.125C463.677 60 464.125 60.4477 464.125 61H456.875ZM252.25 1C251.698 1 251.25 0.552285 251.25 0H258.083C258.083 0.552285 257.636 1 257.083 1H252.25ZM261.917 1C261.364 1 260.917 0.552285 260.917 0H267.75C267.75 0.552285 267.302 1 266.75 1H261.917ZM271.583 1C271.031 1 270.583 0.552285 270.583 0H277.417C277.417 0.552285 276.969 1 276.417 1H271.583ZM281.25 1C280.698 1 280.25 0.552285 280.25 0H287.083C287.083 0.552285 286.636 1 286.083 1H281.25ZM290.917 1C290.364 1 289.917 0.552285 289.917 0H296.75C296.75 0.552285 296.302 1 295.75 1H290.917ZM300.583 1C300.031 1 299.583 0.552285 299.583 0H302H303H305.219C305.219 0.552285 304.771 1 304.219 1H303V2.54167V3.54167C302.818 3.54167 302.647 3.49297 302.5 3.40788C302.353 3.49297 302.182 3.54167 302 3.54167V2.54167V1H300.583ZM302.5 6.75879C302.647 6.6737 302.818 6.625 303 6.625V7.625V12.7083V13.7083C302.818 13.7083 302.647 13.6596 302.5 13.5745C302.353 13.6596 302.182 13.7083 302 13.7083V12.7083V7.625V6.625C302.182 6.625 302.353 6.6737 302.5 6.75879ZM302.5 16.9255C302.647 16.8404 302.818 16.7917 303 16.7917V17.7917V22.875V23.875C302.818 23.875 302.647 23.8263 302.5 23.7412C302.353 23.8263 302.182 23.875 302 23.875V22.875V17.7917V16.7917C302.182 16.7917 302.353 16.8404 302.5 16.9255ZM302.5 27.0921C302.647 27.007 302.818 26.9583 303 26.9583V27.9583V33.0417V34.0417C302.818 34.0417 302.647 33.993 302.5 33.9079C302.353 33.993 302.182 34.0417 302 34.0417V33.0417V27.9583V26.9583C302.182 26.9583 302.353 27.007 302.5 27.0921ZM302.5 37.2588C302.647 37.1737 302.818 37.125 303 37.125V38.125V43.2083V44.2083C302.818 44.2083 302.647 44.1596 302.5 44.0745C302.353 44.1596 302.182 44.2083 302 44.2083V43.2083V38.125V37.125C302.182 37.125 302.353 37.1737 302.5 37.2588ZM302.5 47.4255C302.647 47.3404 302.818 47.2917 303 47.2917V48.2917V53.375V54.375C302.818 54.375 302.647 54.3263 302.5 54.2412C302.353 54.3263 302.182 54.375 302 54.375V53.375V48.2917V47.2917C302.182 47.2917 302.353 47.3404 302.5 47.4255ZM302.5 57.5921C302.647 57.507 302.818 57.4583 303 57.4583V58.4583V60H304.219C304.771 60 305.219 60.4477 305.219 61H303H302H299.583C299.583 60.4477 300.031 60 300.583 60H302V58.4583V57.4583C302.182 57.4583 302.353 57.507 302.5 57.5921ZM295.75 60C296.302 60 296.75 60.4477 296.75 61H289.917C289.917 60.4477 290.364 60 290.917 60H295.75ZM286.083 60C286.636 60 287.083 60.4477 287.083 61H280.25C280.25 60.4477 280.698 60 281.25 60H286.083ZM276.417 60C276.969 60 277.417 60.4477 277.417 61H270.583C270.583 60.4477 271.031 60 271.583 60H276.417ZM266.75 60C267.302 60 267.75 60.4477 267.75 61H260.917C260.917 60.4477 261.364 60 261.917 60H266.75ZM257.083 60C257.636 60 258.083 60.4477 258.083 61H251.25C251.25 60.4477 251.698 60 252.25 60H257.083ZM423.75 0C423.75 0.552285 423.302 1 422.75 1H417.917C417.364 1 416.917 0.552285 416.917 0H423.75ZM414.083 0C414.083 0.552285 413.636 1 413.083 1H408.25C407.698 1 407.25 0.552285 407.25 0H414.083ZM404.417 0C404.417 0.552285 403.969 1 403.417 1H398.583C398.031 1 397.583 0.552285 397.583 0H404.417ZM394.75 0C394.75 0.552285 394.302 1 393.75 1H388.917C388.364 1 387.917 0.552285 387.917 0H394.75ZM385.083 0C385.083 0.552285 384.636 1 384.083 1H379.25C378.698 1 378.25 0.552285 378.25 0H385.083ZM375.417 0C375.417 0.552285 374.969 1 374.417 1H373V2.54167V3.54167C372.818 3.54167 372.647 3.49297 372.5 3.40788C372.353 3.49297 372.182 3.54167 372 3.54167V2.54167V1H370.781C370.229 1 369.781 0.552285 369.781 0H372H373H375.417ZM372 6.625C372.182 6.625 372.353 6.6737 372.5 6.75879C372.647 6.6737 372.818 6.625 373 6.625V7.625V12.7083V13.7083C372.818 13.7083 372.647 13.6596 372.5 13.5745C372.353 13.6596 372.182 13.7083 372 13.7083V12.7083V7.625V6.625ZM372 16.7917C372.182 16.7917 372.353 16.8404 372.5 16.9255C372.647 16.8404 372.818 16.7917 373 16.7917V17.7917V22.875V23.875C372.818 23.875 372.647 23.8263 372.5 23.7412C372.353 23.8263 372.182 23.875 372 23.875V22.875V17.7917V16.7917ZM372 26.9583C372.182 26.9583 372.353 27.007 372.5 27.0921C372.647 27.007 372.818 26.9583 373 26.9583V27.9583V33.0417V34.0417C372.818 34.0417 372.647 33.993 372.5 33.9079C372.353 33.993 372.182 34.0417 372 34.0417V33.0417V27.9583V26.9583ZM372 37.125C372.182 37.125 372.353 37.1737 372.5 37.2588C372.647 37.1737 372.818 37.125 373 37.125V38.125V43.2083V44.2083C372.818 44.2083 372.647 44.1596 372.5 44.0745C372.353 44.1596 372.182 44.2083 372 44.2083V43.2083V38.125V37.125ZM372 47.2917C372.182 47.2917 372.353 47.3404 372.5 47.4255C372.647 47.3404 372.818 47.2917 373 47.2917V48.2917V53.375V54.375C372.818 54.375 372.647 54.3263 372.5 54.2412C372.353 54.3263 372.182 54.375 372 54.375V53.375V48.2917V47.2917ZM372 57.4583C372.182 57.4583 372.353 57.507 372.5 57.5921C372.647 57.507 372.818 57.4583 373 57.4583V58.4583V60H374.417C374.969 60 375.417 60.4477 375.417 61H373H372H369.781C369.781 60.4477 370.229 60 370.781 60H372V58.4583V57.4583ZM378.25 61C378.25 60.4477 378.698 60 379.25 60H384.083C384.636 60 385.083 60.4477 385.083 61H378.25ZM387.917 61C387.917 60.4477 388.364 60 388.917 60H393.75C394.302 60 394.75 60.4477 394.75 61H387.917ZM397.583 61C397.583 60.4477 398.031 60 398.583 60H403.417C403.969 60 404.417 60.4477 404.417 61H397.583ZM407.25 61C407.25 60.4477 407.698 60 408.25 60H413.083C413.636 60 414.083 60.4477 414.083 61H407.25ZM416.917 61C416.917 60.4477 417.364 60 417.917 60H422.75C423.302 60 423.75 60.4477 423.75 61H416.917ZM366.344 1C366.896 1 367.344 0.552285 367.344 0H360.906C360.906 0.552285 361.354 1 361.906 1H366.344ZM357.469 1C358.021 1 358.469 0.552285 358.469 0H352.031C352.031 0.552285 352.479 1 353.031 1H357.469ZM348.594 1C349.146 1 349.594 0.552285 349.594 0H343.156C343.156 0.552285 343.604 1 344.156 1H348.594ZM339.719 1C340.271 1 340.719 0.552285 340.719 0H334.281C334.281 0.552285 334.729 1 335.281 1H339.719ZM330.844 1C331.396 1 331.844 0.552285 331.844 0H325.406C325.406 0.552285 325.854 1 326.406 1H330.844ZM321.969 1C322.521 1 322.969 0.552285 322.969 0H316.531C316.531 0.552285 316.979 1 317.531 1H321.969ZM313.094 1C313.646 1 314.094 0.552285 314.094 0H307.656C307.656 0.552285 308.104 1 308.656 1H313.094ZM308.656 60C308.104 60 307.656 60.4477 307.656 61H314.094C314.094 60.4477 313.646 60 313.094 60H308.656ZM317.531 60C316.979 60 316.531 60.4477 316.531 61H322.969C322.969 60.4477 322.521 60 321.969 60H317.531ZM326.406 60C325.854 60 325.406 60.4477 325.406 61H331.844C331.844 60.4477 331.396 60 330.844 60H326.406ZM335.281 60C334.729 60 334.281 60.4477 334.281 61H340.719C340.719 60.4477 340.271 60 339.719 60H335.281ZM344.156 60C343.604 60 343.156 60.4477 343.156 61H349.594C349.594 60.4477 349.146 60 348.594 60H344.156ZM353.031 60C352.479 60 352.031 60.4477 352.031 61H358.469C358.469 60.4477 358.021 60 357.469 60H353.031ZM361.906 60C361.354 60 360.906 60.4477 360.906 61H367.344C367.344 60.4477 366.896 60 366.344 60H361.906Z" fill="#BDBDBD"/>
</svg>
